SeanSlab-CompressedMedium.ufo
<glyph name="exclam" format="1">
  <advance width="241"/>
  <unicode hex="0021"/>
  <outline>
    <contour>
      <point x="166" y="229" type="line"/>
      <point x="172" y="722" type="line"/>
      <point x="70" y="722" type="line"/>
      <point x="76" y="229" type="line"/>
    </contour>
    <contour>
      <point x="167" y="38" type="curve"/>
      <point x="167" y="69"/>
      <point x="147" y="84"/>
      <point x="120" y="84" type="curve"/>
      <point x="93" y="84"/>
      <point x="75" y="67"/>
      <point x="75" y="38" type="curve"/>
      <point x="169" y="38"/>
      <point x="74" y="38"/>
      <point x="167" y="38" type="curve"/>
      <point x="167" y="7"/>
      <point x="148" y="-7"/>
      <point x="120" y="-7" type="curve"/>
      <point x="92" y="-7"/>
      <point x="75" y="8"/>
      <point x="75" y="38" type="curve"/>
      <point x="169" y="38"/>
      <point x="74" y="38"/>
    </contour>
  </outline>
</glyph>
<glyph name="quotedbl" format="1">
  <advance width="372"/>
  <unicode hex="0022"/>
  <outline>
    <contour>
      <point x="148" y="577" type="line"/>
      <point x="155" y="779" type="line"/>
      <point x="68" y="779" type="line"/>
      <point x="75" y="577" type="line"/>
    </contour>
    <contour>
      <point x="298" y="577" type="line"/>
      <point x="304" y="779" type="line"/>
      <point x="217" y="779" type="line"/>
      <point x="224" y="577" type="line"/>
    </contour>
  </outline>
</glyph>
<glyph name="numbersign" format="1">
  <advance width="497"/>
  <unicode hex="0023"/>
  <outline>
    <contour>
      <point x="44" y="231" type="line"/>
      <point x="395" y="231" type="line"/>
      <point x="410" y="300" type="line"/>
      <point x="59" y="300" type="line"/>
    </contour>
    <contour>
      <point x="87" y="459" type="line"/>
      <point x="439" y="459" type="line"/>
      <point x="454" y="527" type="line"/>
      <point x="101" y="527" type="line"/>
    </contour>
    <contour>
      <point x="308" y="39" type="line"/>
      <point x="446" y="722" type="line"/>
      <point x="360" y="722" type="line"/>
      <point x="222" y="39" type="line"/>
    </contour>
    <contour>
      <point x="137" y="46" type="line"/>
      <point x="274" y="722" type="line"/>
      <point x="188" y="722" type="line"/>
      <point x="54" y="46" type="line"/>
    </contour>
  </outline>
</glyph>
<glyph name="dollar" format="1">
  <advance width="430"/>
  <unicode hex="0024"/>
  <outline>
    <contour>
      <point x="130" y="95" type="curve"/>
      <point x="130" y="215"/>
      <point x="130" y="92"/>
      <point x="130" y="212" type="curve"/>
      <point x="61" y="212"/>
      <point x="130" y="212"/>
      <point x="61" y="212" type="curve"/>
      <point x="61" y="92"/>
      <point x="61" y="215"/>
      <point x="61" y="95" type="curve"/>
      <point x="130" y="95"/>
      <point x="61" y="95"/>
    </contour>
    <contour>
      <point x="287" y="634" type="curve"/>
      <point x="287" y="514"/>
      <point x="287" y="636"/>
      <point x="287" y="516" type="curve"/>
      <point x="356" y="516"/>
      <point x="287" y="516"/>
      <point x="356" y="516" type="curve"/>
      <point x="356" y="636"/>
      <point x="356" y="514"/>
      <point x="356" y="634" type="curve"/>
      <point x="287" y="634"/>
      <point x="356" y="634"/>
    </contour>
    <contour>
      <point x="248" y="-43" type="curve"/>
      <point x="248" y="-11"/>
      <point x="248" y="47"/>
      <point x="248" y="79" type="curve"/>
      <point x="162" y="79"/>
      <point x="248" y="79"/>
      <point x="162" y="79" type="curve"/>
      <point x="162" y="47"/>
      <point x="162" y="-11"/>
      <point x="162" y="-43" type="curve"/>
      <point x="248" y="-43"/>
      <point x="162" y="-43"/>
    </contour>
    <contour>
      <point x="255" y="650" type="curve"/>
      <point x="255" y="682"/>
      <point x="255" y="741"/>
      <point x="255" y="773" type="curve"/>
      <point x="169" y="773"/>
      <point x="255" y="773"/>
      <point x="169" y="773" type="curve"/>
      <point x="169" y="741"/>
      <point x="169" y="682"/>
      <point x="169" y="650" type="curve"/>
      <point x="255" y="650"/>
      <point x="169" y="650"/>
    </contour>
    <contour>
      <point x="61" y="95" type="curve"/>
      <point x="98" y="68"/>
      <point x="145" y="45"/>
      <point x="201" y="45" type="curve"/>
      <point x="310" y="45"/>
      <point x="385" y="116"/>
      <point x="385" y="210" type="curve"/>
      <point x="385" y="295"/>
      <point x="321" y="355"/>
      <point x="239" y="405" type="curve"/>
      <point x="184" y="440"/>
      <point x="146" y="472"/>
      <point x="146" y="531" type="curve"/>
      <point x="146" y="575"/>
      <point x="168" y="618"/>
      <point x="214" y="618" type="curve"/>
      <point x="255" y="618"/>
      <point x="282" y="601"/>
      <point x="314" y="576" type="curve"/>
      <point x="356" y="634"/>
      <point x="314" y="576"/>
      <point x="356" y="634" type="curve"/>
      <point x="313" y="667"/>
      <point x="274" y="686"/>
      <point x="218" y="686" type="curve"/>
      <point x="121" y="686"/>
      <point x="60" y="618"/>
      <point x="60" y="531" type="curve"/>
      <point x="60" y="447"/>
      <point x="109" y="391"/>
      <point x="189" y="343" type="curve"/>
      <point x="247" y="308"/>
      <point x="299" y="270"/>
      <point x="299" y="207" type="curve"/>
      <point x="299" y="155"/>
      <point x="264" y="113"/>
      <point x="209" y="113" type="curve"/>
      <point x="167" y="113"/>
      <point x="134" y="136"/>
      <point x="107" y="156" type="curve"/>
      <point x="61" y="95"/>
      <point x="107" y="156"/>
    </contour>
  </outline>
</glyph>
<glyph name="percent" format="1">
  <advance width="791"/>
  <unicode hex="0025"/>
  <outline>
    <contour>
      <point x="302" y="-62" type="line"/>
      <point x="574" y="731" type="line"/>
      <point x="493" y="731" type="line"/>
      <point x="222" y="-62" type="line"/>
    </contour>
    <contour>
      <point x="108" y="524" type="curve"/>
      <point x="108" y="604"/>
      <point x="115" y="674"/>
      <point x="183" y="674" type="curve"/>
      <point x="250" y="675"/>
      <point x="258" y="605"/>
      <point x="258" y="524" type="curve"/>
      <point x="258" y="443"/>
      <point x="254" y="371"/>
      <point x="187" y="371" type="curve"/>
      <point x="117" y="371"/>
      <point x="108" y="442"/>
      <point x="108" y="524" type="curve"/>
      <point x="81" y="524"/>
      <point x="63" y="524"/>
      <point x="37" y="524" type="curve"/>
      <point x="37" y="404"/>
      <point x="76" y="310"/>
      <point x="184" y="310" type="curve"/>
      <point x="293" y="310"/>
      <point x="333" y="405"/>
      <point x="333" y="527" type="curve"/>
      <point x="333" y="645"/>
      <point x="293" y="736"/>
      <point x="186" y="736" type="curve"/>
      <point x="78" y="736"/>
      <point x="37" y="643"/>
      <point x="37" y="524" type="curve"/>
      <point x="63" y="524"/>
      <point x="81" y="524"/>
    </contour>
    <contour>
      <point x="530" y="150" type="curve"/>
      <point x="530" y="230"/>
      <point x="537" y="300"/>
      <point x="605" y="300" type="curve"/>
      <point x="672" y="301"/>
      <point x="680" y="231"/>
      <point x="680" y="150" type="curve"/>
      <point x="680" y="69"/>
      <point x="677" y="-4"/>
      <point x="609" y="-4" type="curve"/>
      <point x="539" y="-4"/>
      <point x="530" y="68"/>
      <point x="530" y="150" type="curve"/>
      <point x="504" y="150"/>
      <point x="485" y="150"/>
      <point x="459" y="150" type="curve"/>
      <point x="459" y="30"/>
      <point x="498" y="-65"/>
      <point x="606" y="-65" type="curve"/>
      <point x="715" y="-65"/>
      <point x="755" y="31"/>
      <point x="755" y="153" type="curve"/>
      <point x="755" y="271"/>
      <point x="715" y="362"/>
      <point x="608" y="362" type="curve"/>
      <point x="500" y="362"/>
      <point x="459" y="269"/>
      <point x="459" y="150" type="curve"/>
      <point x="485" y="150"/>
      <point x="504" y="150"/>
    </contour>
  </outline>
</glyph>
<glyph name="ampersand" format="1">
  <advance width="502"/>
  <unicode hex="0026"/>
  <outline>
    <contour>
      <point x="481" y="23" type="line"/>
      <point x="413" y="129"/>
      <point x="339" y="256"/>
      <point x="267" y="364" type="curve"/>
      <point x="228" y="428"/>
      <point x="178" y="486"/>
      <point x="178" y="562" type="curve"/>
      <point x="178" y="610"/>
      <point x="185" y="658"/>
      <point x="223" y="658" type="curve"/>
      <point x="262" y="658"/>
      <point x="270" y="613"/>
      <point x="270" y="564" type="curve"/>
      <point x="270" y="498"/>
      <point x="239" y="449"/>
      <point x="187" y="405" type="curve"/>
      <point x="112" y="343"/>
      <point x="54" y="285"/>
      <point x="54" y="190" type="curve"/>
      <point x="54" y="80"/>
      <point x="114" y="-5"/>
      <point x="217" y="-5" type="curve"/>
      <point x="375" y="-5"/>
      <point x="426" y="147"/>
      <point x="460" y="315" type="curve"/>
      <point x="386" y="332"/>
      <point x="460" y="315"/>
      <point x="386" y="332" type="curve"/>
      <point x="359" y="199"/>
      <point x="338" y="64"/>
      <point x="221" y="64" type="curve"/>
      <point x="164" y="64"/>
      <point x="141" y="123"/>
      <point x="141" y="190" type="curve"/>
      <point x="141" y="257"/>
      <point x="173" y="305"/>
      <point x="225" y="349" type="curve"/>
      <point x="298" y="411"/>
      <point x="356" y="470"/>
      <point x="356" y="565" type="curve"/>
      <point x="356" y="656"/>
      <point x="310" y="727"/>
      <point x="226" y="727" type="curve"/>
      <point x="141" y="727"/>
      <point x="97" y="654"/>
      <point x="97" y="562" type="curve"/>
      <point x="97" y="468"/>
      <point x="153" y="401"/>
      <point x="205" y="323" type="curve"/>
      <point x="272" y="217"/>
      <point x="350" y="86"/>
      <point x="414" y="-16" type="curve"/>
    </contour>
  </outline>
</glyph>
<glyph name="parenleft" format="1">
  <advance width="278"/>
  <unicode hex="0028"/>
  <outline>
    <contour>
      <point x="270" y="-220" type="curve"/>
      <point x="151" y="-41"/>
      <point x="130" y="114"/>
      <point x="130" y="326" type="curve"/>
      <point x="130" y="538"/>
      <point x="153" y="693"/>
      <point x="269" y="874" type="curve"/>
      <point x="217" y="918"/>
      <point x="269" y="874"/>
      <point x="217" y="918" type="curve"/>
      <point x="87" y="723"/>
      <point x="46" y="559"/>
      <point x="46" y="326" type="curve"/>
      <point x="46" y="92"/>
      <point x="89" y="-71"/>
      <point x="218" y="-267" type="curve"/>
      <point x="270" y="-220"/>
      <point x="218" y="-267"/>
    </contour>
  </outline>
</glyph>
<glyph name="parenright" format="1">
  <advance width="283"/>
  <unicode hex="0029"/>
  <outline>
    <contour>
      <point x="56" y="-282" type="curve"/>
      <point x="187" y="-78"/>
      <point x="238" y="87"/>
      <point x="238" y="328" type="curve"/>
      <point x="238" y="562"/>
      <point x="194" y="725"/>
      <point x="59" y="919" type="curve"/>
      <point x="7" y="872"/>
      <point x="59" y="919"/>
      <point x="7" y="872" type="curve"/>
      <point x="127" y="692"/>
      <point x="153" y="538"/>
      <point x="153" y="325" type="curve"/>
      <point x="153" y="107"/>
      <point x="119" y="-49"/>
      <point x="4" y="-237" type="curve"/>
      <point x="56" y="-282"/>
      <point x="4" y="-237"/>
    </contour>
  </outline>
</glyph>
<glyph name="asterisk" format="1">
  <advance width="510"/>
  <unicode hex="002A"/>
  <outline>
    <contour>
      <point x="283" y="521" type="line"/>
      <point x="288" y="723" type="line"/>
      <point x="223" y="723" type="line"/>
      <point x="228" y="521" type="line"/>
    </contour>
    <contour>
      <point x="256" y="500" type="line"/>
      <point x="449" y="562" type="line"/>
      <point x="427" y="623" type="line"/>
      <point x="237" y="552" type="line"/>
    </contour>
    <contour>
      <point x="228" y="519" type="line"/>
      <point x="350" y="356" type="line"/>
      <point x="400" y="398" type="line"/>
      <point x="271" y="553" type="line"/>
    </contour>
    <contour>
      <point x="238" y="554" type="line"/>
      <point x="109" y="399" type="line"/>
      <point x="159" y="357" type="line"/>
      <point x="281" y="520" type="line"/>
    </contour>
    <contour>
      <point x="273" y="553" type="line"/>
      <point x="83" y="624" type="line"/>
      <point x="61" y="563" type="line"/>
      <point x="255" y="501" type="line"/>
    </contour>
  </outline>
</glyph>
<glyph name="plus" format="1">
  <advance width="573"/>
  <unicode hex="002B"/>
  <outline>
    <contour>
      <point x="45" y="275" type="curve"/>
      <point x="528" y="275" type="line"/>
      <point x="528" y="350"/>
      <point x="528" y="275"/>
      <point x="528" y="350" type="curve"/>
      <point x="45" y="350" type="line"/>
      <point x="45" y="275"/>
      <point x="45" y="350"/>
    </contour>
    <contour>
      <point x="327" y="42" type="curve"/>
      <point x="327" y="582" type="line"/>
      <point x="241" y="582"/>
      <point x="332" y="582"/>
      <point x="246" y="582" type="curve"/>
      <point x="246" y="42" type="line"/>
      <point x="332" y="42"/>
      <point x="241" y="42"/>
    </contour>
  </outline>
</glyph>
<glyph name="comma" format="1">
  <advance width="228"/>
  <unicode hex="002C"/>
  <outline>
    <contour>
      <point x="52" y="-109" type="line"/>
      <point x="112" y="-98"/>
      <point x="152" y="-49"/>
      <point x="152" y="29" type="curve"/>
      <point x="152" y="86"/>
      <point x="134" y="117"/>
      <point x="102" y="117" type="curve"/>
      <point x="74" y="117"/>
      <point x="55" y="101"/>
      <point x="55" y="71" type="curve"/>
      <point x="55" y="47"/>
      <point x="67" y="28"/>
      <point x="91" y="25" type="curve"/>
      <point x="91" y="3"/>
      <point x="87" y="-43"/>
      <point x="44" y="-60" type="curve"/>
    </contour>
  </outline>
</glyph>
<glyph name="hyphen" format="1">
  <advance width="329"/>
  <unicode hex="002D"/>
  <outline>
    <contour>
      <point x="72" y="241" type="curve"/>
      <point x="134" y="241"/>
      <point x="196" y="241"/>
      <point x="258" y="241" type="curve"/>
      <point x="258" y="316"/>
      <point x="258" y="241"/>
      <point x="258" y="316" type="curve"/>
      <point x="196" y="316"/>
      <point x="134" y="316"/>
      <point x="72" y="316" type="curve"/>
      <point x="72" y="241"/>
      <point x="72" y="316"/>
    </contour>
  </outline>
</glyph>
<glyph name="period" format="1">
  <advance width="227"/>
  <unicode hex="002E"/>
  <outline>
    <contour>
      <point x="159" y="38" type="curve"/>
      <point x="159" y="69"/>
      <point x="140" y="84"/>
      <point x="113" y="84" type="curve"/>
      <point x="85" y="84"/>
      <point x="68" y="67"/>
      <point x="68" y="38" type="curve"/>
      <point x="161" y="38"/>
      <point x="66" y="38"/>
      <point x="159" y="38" type="curve"/>
      <point x="159" y="7"/>
      <point x="140" y="-7"/>
      <point x="113" y="-7" type="curve"/>
      <point x="85" y="-7"/>
      <point x="68" y="8"/>
      <point x="68" y="38" type="curve"/>
      <point x="161" y="38"/>
      <point x="66" y="38"/>
    </contour>
  </outline>
</glyph>
<glyph name="slash" format="1">
  <advance width="417"/>
  <unicode hex="002F"/>
  <outline>
    <contour>
      <point x="116" y="-39" type="curve"/>
      <point x="206" y="244"/>
      <point x="297" y="528"/>
      <point x="387" y="811" type="curve"/>
      <point x="301" y="811"/>
      <point x="387" y="811"/>
      <point x="301" y="811" type="curve"/>
      <point x="211" y="528"/>
      <point x="120" y="244"/>
      <point x="30" y="-39" type="curve"/>
      <point x="116" y="-39"/>
      <point x="30" y="-39"/>
    </contour>
  </outline>
</glyph>
<glyph name="zero" format="1">
  <advance width="538"/>
  <unicode hex="0030"/>
  <outline>
    <contour>
      <point x="139" y="360" type="curve"/>
      <point x="139" y="516"/>
      <point x="139" y="656"/>
      <point x="266" y="656" type="curve"/>
      <point x="395" y="656"/>
      <point x="399" y="518"/>
      <point x="399" y="363" type="curve"/>
      <point x="399" y="207"/>
      <point x="398" y="67"/>
      <point x="273" y="67" type="curve"/>
      <point x="149" y="67"/>
      <point x="139" y="204"/>
      <point x="139" y="360" type="curve"/>
      <point x="58" y="360"/>
      <point x="138" y="360"/>
      <point x="57" y="360" type="curve"/>
      <point x="57" y="159"/>
      <point x="96" y="-5"/>
      <point x="269" y="-5" type="curve"/>
      <point x="444" y="-5"/>
      <point x="481" y="160"/>
      <point x="481" y="363" type="curve"/>
      <point x="481" y="563"/>
      <point x="446" y="727"/>
      <point x="275" y="727" type="curve"/>
      <point x="99" y="727"/>
      <point x="57" y="563"/>
      <point x="57" y="360" type="curve"/>
      <point x="138" y="360"/>
      <point x="58" y="360"/>
    </contour>
  </outline>
</glyph>
<glyph name="one" format="1">
  <advance width="356"/>
  <unicode hex="0031"/>
  <outline>
    <contour>
      <point x="207" y="0" type="curve"/>
      <point x="246" y="0"/>
      <point x="285" y="0"/>
      <point x="325" y="0" type="curve"/>
      <point x="325" y="69"/>
      <point x="325" y="0"/>
      <point x="325" y="69" type="curve"/>
      <point x="207" y="69"/>
      <point x="325" y="69"/>
      <point x="207" y="69" type="curve"/>
      <point x="207" y="0"/>
      <point x="207" y="69"/>
    </contour>
    <contour>
      <point x="207" y="69" type="curve"/>
      <point x="84" y="69"/>
      <point x="207" y="69"/>
      <point x="84" y="69" type="curve"/>
      <point x="84" y="0"/>
      <point x="84" y="69"/>
      <point x="84" y="0" type="curve"/>
      <point x="125" y="0"/>
      <point x="166" y="0"/>
      <point x="207" y="0" type="curve"/>
      <point x="207" y="69"/>
      <point x="207" y="0"/>
    </contour>
    <contour>
      <point x="84" y="508" type="curve"/>
      <point x="227" y="680"/>
      <point x="84" y="508"/>
      <point x="227" y="680" type="curve"/>
      <point x="163" y="722"/>
      <point x="227" y="680"/>
      <point x="163" y="722" type="curve"/>
      <point x="30" y="561"/>
      <point x="163" y="722"/>
      <point x="30" y="561" type="curve"/>
      <point x="84" y="508"/>
      <point x="30" y="561"/>
    </contour>
    <contour>
      <point x="249" y="0" type="curve"/>
      <point x="249" y="241"/>
      <point x="249" y="481"/>
      <point x="249" y="722" type="curve"/>
      <point x="163" y="722"/>
      <point x="249" y="722"/>
      <point x="163" y="722" type="curve"/>
      <point x="163" y="481"/>
      <point x="163" y="241"/>
      <point x="163" y="0" type="curve"/>
      <point x="249" y="0"/>
      <point x="163" y="0"/>
    </contour>
  </outline>
</glyph>
<glyph name="two" format="1">
  <advance width="443"/>
  <unicode hex="0032"/>
  <outline>
    <contour>
      <point x="381" y="68" type="curve"/>
      <point x="381" y="174"/>
      <point x="381" y="58"/>
      <point x="381" y="164" type="curve"/>
      <point x="313" y="164"/>
      <point x="381" y="164"/>
      <point x="313" y="164" type="curve"/>
      <point x="313" y="58"/>
      <point x="313" y="174"/>
      <point x="313" y="68" type="curve"/>
      <point x="381" y="68"/>
      <point x="313" y="68"/>
    </contour>
    <contour>
      <point x="47" y="0" type="curve"/>
      <point x="180" y="0"/>
      <point x="291" y="0"/>
      <point x="381" y="0" type="curve"/>
      <point x="381" y="68"/>
      <point x="381" y="0"/>
      <point x="381" y="68" type="curve"/>
      <point x="277" y="68"/>
      <point x="152" y="69"/>
      <point x="48" y="69" type="curve"/>
      <point x="47" y="0"/>
      <point x="48" y="68"/>
    </contour>
    <contour>
      <point x="111" y="540" type="curve"/>
      <point x="135" y="600"/>
      <point x="150" y="656"/>
      <point x="208" y="656" type="curve"/>
      <point x="271" y="656"/>
      <point x="284" y="591"/>
      <point x="284" y="513" type="curve"/>
      <point x="284" y="410"/>
      <point x="231" y="320"/>
      <point x="188" y="260" type="curve"/>
      <point x="141" y="195"/>
      <point x="97" y="134"/>
      <point x="48" y="69" type="curve"/>
      <point x="52" y="0"/>
      <point x="48" y="68"/>
      <point x="52" y="0" type="curve"/>
      <point x="139" y="62"/>
      <point x="190" y="139"/>
      <point x="241" y="210" type="curve"/>
      <point x="301" y="287"/>
      <point x="364" y="390"/>
      <point x="364" y="517" type="curve"/>
      <point x="364" y="639"/>
      <point x="320" y="727"/>
      <point x="212" y="727" type="curve"/>
      <point x="124" y="727"/>
      <point x="76" y="660"/>
      <point x="49" y="574" type="curve"/>
      <point x="111" y="540"/>
      <point x="49" y="574"/>
    </contour>
  </outline>
</glyph>
<glyph name="three" format="1">
  <advance width="416"/>
  <unicode hex="0033"/>
  <outline>
    <contour>
      <point x="47" y="59" type="curve"/>
      <point x="91" y="20"/>
      <point x="125" y="-5"/>
      <point x="180" y="-5" type="curve"/>
      <point x="301" y="-5"/>
      <point x="362" y="76"/>
      <point x="362" y="201" type="curve"/>
      <point x="362" y="320"/>
      <point x="270" y="398"/>
      <point x="125" y="398" type="curve"/>
      <point x="125" y="347"/>
      <point x="125" y="392"/>
      <point x="125" y="341" type="curve"/>
      <point x="221" y="341"/>
      <point x="278" y="280"/>
      <point x="278" y="198" type="curve"/>
      <point x="278" y="124"/>
      <point x="245" y="67"/>
      <point x="184" y="67" type="curve"/>
      <point x="146" y="67"/>
      <point x="123" y="83"/>
      <point x="96" y="108" type="curve"/>
      <point x="47" y="59"/>
      <point x="96" y="108"/>
    </contour>
    <contour>
      <point x="107" y="594" type="curve"/>
      <point x="118" y="619"/>
      <point x="142" y="656"/>
      <point x="179" y="656" type="curve"/>
      <point x="237" y="656"/>
      <point x="258" y="604"/>
      <point x="258" y="537" type="curve"/>
      <point x="258" y="465"/>
      <point x="208" y="412"/>
      <point x="125" y="412" type="curve"/>
      <point x="125" y="360"/>
      <point x="125" y="405"/>
      <point x="125" y="354" type="curve"/>
      <point x="253" y="354"/>
      <point x="340" y="426"/>
      <point x="340" y="539" type="curve"/>
      <point x="340" y="650"/>
      <point x="289" y="727"/>
      <point x="187" y="727" type="curve"/>
      <point x="123" y="727"/>
      <point x="72" y="681"/>
      <point x="49" y="635" type="curve"/>
      <point x="107" y="594"/>
      <point x="49" y="635"/>
    </contour>
  </outline>
</glyph>
<glyph name="four" format="1">
  <advance width="442"/>
  <unicode hex="0034"/>
  <outline>
    <contour>
      <point x="276" y="68" type="line"/>
      <point x="163" y="68" type="line"/>
      <point x="163" y="0" type="line"/>
      <point x="276" y="0" type="line"/>
    </contour>
    <contour>
      <point x="276" y="0" type="line"/>
      <point x="386" y="0" type="line"/>
      <point x="386" y="68" type="line"/>
      <point x="276" y="68" type="line"/>
    </contour>
    <contour>
      <point x="70" y="263" type="line"/>
      <point x="308" y="712" type="line"/>
      <point x="234" y="708" type="line"/>
      <point x="30" y="319" type="line"/>
    </contour>
    <contour>
      <point x="400" y="319" type="line"/>
      <point x="30" y="319" type="line"/>
      <point x="31" y="245" type="line"/>
      <point x="400" y="245" type="line"/>
    </contour>
    <contour>
      <point x="320" y="25" type="line"/>
      <point x="320" y="708" type="line"/>
      <point x="235" y="708" type="line"/>
      <point x="235" y="25" type="line"/>
    </contour>
  </outline>
</glyph>
<glyph name="five" format="1">
  <advance width="404"/>
  <unicode hex="0035"/>
  <outline>
    <contour>
      <point x="65" y="722" type="curve"/>
      <point x="65" y="622"/>
      <point x="65" y="517"/>
      <point x="65" y="392" type="curve"/>
      <point x="147" y="364"/>
      <point x="65" y="392"/>
      <point x="147" y="364" type="curve"/>
      <point x="147" y="459"/>
      <point x="147" y="559"/>
      <point x="147" y="654" type="curve"/>
      <point x="65" y="722"/>
      <point x="147" y="654"/>
    </contour>
    <contour>
      <point x="147" y="364" type="curve"/>
      <point x="156" y="378"/>
      <point x="172" y="392"/>
      <point x="194" y="392" type="curve"/>
      <point x="257" y="392"/>
      <point x="268" y="316"/>
      <point x="268" y="235" type="curve"/>
      <point x="268" y="151"/>
      <point x="246" y="66"/>
      <point x="177" y="66" type="curve"/>
      <point x="141" y="66"/>
      <point x="121" y="80"/>
      <point x="92" y="104" type="curve"/>
      <point x="47" y="43"/>
      <point x="92" y="104"/>
      <point x="47" y="43" type="curve"/>
      <point x="86" y="11"/>
      <point x="123" y="-5"/>
      <point x="172" y="-5" type="curve"/>
      <point x="291" y="-5"/>
      <point x="354" y="105"/>
      <point x="354" y="233" type="curve"/>
      <point x="354" y="358"/>
      <point x="313" y="465"/>
      <point x="207" y="465" type="curve"/>
      <point x="157" y="465"/>
      <point x="111" y="449"/>
      <point x="65" y="391" type="curve"/>
      <point x="147" y="364"/>
      <point x="65" y="391"/>
    </contour>
    <contour>
      <point x="333" y="722" type="curve"/>
      <point x="252" y="722"/>
      <point x="149" y="722"/>
      <point x="65" y="722" type="curve"/>
      <point x="147" y="654"/>
      <point x="65" y="722"/>
      <point x="147" y="654" type="curve"/>
      <point x="204" y="654"/>
      <point x="279" y="654"/>
      <point x="333" y="654" type="curve"/>
      <point x="333" y="722"/>
      <point x="333" y="654"/>
    </contour>
  </outline>
</glyph>
<glyph name="six" format="1">
  <advance width="451"/>
  <unicode hex="0036"/>
  <outline>
    <contour>
      <point x="123" y="218" type="curve"/>
      <point x="131" y="285"/>
      <point x="163" y="359"/>
      <point x="230" y="359" type="curve"/>
      <point x="297" y="359"/>
      <point x="313" y="293"/>
      <point x="313" y="215" type="curve"/>
      <point x="313" y="145"/>
      <point x="296" y="72"/>
      <point x="233" y="72" type="curve"/>
      <point x="154" y="72"/>
      <point x="135" y="154"/>
      <point x="135" y="251" type="curve"/>
      <point x="135" y="445"/>
      <point x="208" y="594"/>
      <point x="384" y="668" type="curve"/>
      <point x="359" y="731"/>
      <point x="384" y="668"/>
      <point x="359" y="731" type="curve"/>
      <point x="151" y="648"/>
      <point x="52" y="481"/>
      <point x="52" y="248" type="curve"/>
      <point x="52" y="103"/>
      <point x="103" y="-9"/>
      <point x="232" y="-9" type="curve"/>
      <point x="348" y="-9"/>
      <point x="399" y="88"/>
      <point x="399" y="215" type="curve"/>
      <point x="399" y="339"/>
      <point x="352" y="431"/>
      <point x="246" y="431" type="curve"/>
      <point x="137" y="431"/>
      <point x="84" y="320"/>
      <point x="82" y="235" type="curve"/>
      <point x="122" y="218"/>
      <point x="83" y="235"/>
    </contour>
  </outline>
</glyph>
<glyph name="seven" format="1">
  <advance width="401"/>
  <unicode hex="0037"/>
  <outline>
    <contour>
      <point x="124" y="568" type="line"/>
      <point x="124" y="666" type="line"/>
      <point x="55" y="666" type="line"/>
      <point x="55" y="568" type="line"/>
    </contour>
    <contour>
      <point x="55" y="654" type="line"/>
      <point x="383" y="654" type="line"/>
      <point x="383" y="722" type="line"/>
      <point x="55" y="722" type="line"/>
    </contour>
    <contour>
      <point x="333" y="722" type="line"/>
      <point x="58" y="0" type="line"/>
      <point x="143" y="0" type="line"/>
      <point x="383" y="654" type="line"/>
    </contour>
  </outline>
</glyph>
<glyph name="eight" format="1">
  <advance width="446"/>
  <unicode hex="0038"/>
  <outline>
    <contour>
      <point x="70" y="550" type="curve"/>
      <point x="70" y="455"/>
      <point x="120" y="407"/>
      <point x="198" y="353" type="curve"/>
      <point x="263" y="305"/>
      <point x="302" y="257"/>
      <point x="302" y="182" type="curve"/>
      <point x="302" y="118"/>
      <point x="281" y="67"/>
      <point x="223" y="67" type="curve"/>
      <point x="165" y="67"/>
      <point x="144" y="117"/>
      <point x="144" y="182" type="curve"/>
      <point x="144" y="259"/>
      <point x="184" y="303"/>
      <point x="249" y="352" type="curve"/>
      <point x="325" y="407"/>
      <point x="376" y="455"/>
      <point x="376" y="548" type="curve"/>
      <point x="376" y="656"/>
      <point x="327" y="727"/>
      <point x="223" y="727" type="curve"/>
      <point x="121" y="727"/>
      <point x="70" y="655"/>
      <point x="70" y="550" type="curve"/>
      <point x="155" y="550"/>
      <point x="70" y="550"/>
      <point x="155" y="550" type="curve"/>
      <point x="155" y="606"/>
      <point x="170" y="655"/>
      <point x="221" y="655" type="curve"/>
      <point x="273" y="655"/>
      <point x="290" y="608"/>
      <point x="290" y="548" type="curve"/>
      <point x="290" y="483"/>
      <point x="253" y="443"/>
      <point x="197" y="402" type="curve"/>
      <point x="112" y="341"/>
      <point x="57" y="286"/>
      <point x="57" y="182" type="curve"/>
      <point x="57" y="70"/>
      <point x="111" y="-5"/>
      <point x="219" y="-5" type="curve"/>
      <point x="329" y="-5"/>
      <point x="388" y="68"/>
      <point x="388" y="182" type="curve"/>
      <point x="388" y="286"/>
      <point x="335" y="342"/>
      <point x="250" y="403" type="curve"/>
      <point x="194" y="445"/>
      <point x="155" y="482"/>
      <point x="155" y="550" type="curve"/>
      <point x="70" y="550"/>
      <point x="155" y="550"/>
    </contour>
  </outline>
</glyph>
<glyph name="nine" format="1">
  <advance width="451"/>
  <unicode hex="0039"/>
  <outline>
    <contour>
      <point x="335" y="479" type="curve"/>
      <point x="317" y="416"/>
      <point x="290" y="363"/>
      <point x="222" y="363" type="curve"/>
      <point x="155" y="363"/>
      <point x="135" y="431"/>
      <point x="135" y="511" type="curve"/>
      <point x="135" y="584"/>
      <point x="154" y="650"/>
      <point x="215" y="650" type="curve"/>
      <point x="296" y="650"/>
      <point x="315" y="566"/>
      <point x="315" y="471" type="curve"/>
      <point x="315" y="277"/>
      <point x="250" y="133"/>
      <point x="76" y="52" type="curve"/>
      <point x="112" y="-16"/>
      <point x="76" y="52"/>
      <point x="112" y="-16" type="curve"/>
      <point x="302" y="73"/>
      <point x="398" y="241"/>
      <point x="398" y="474" type="curve"/>
      <point x="398" y="619"/>
      <point x="348" y="731"/>
      <point x="218" y="731" type="curve"/>
      <point x="102" y="731"/>
      <point x="52" y="634"/>
      <point x="52" y="507" type="curve"/>
      <point x="52" y="383"/>
      <point x="102" y="291"/>
      <point x="215" y="291" type="curve"/>
      <point x="313" y="291"/>
      <point x="354" y="386"/>
      <point x="377" y="462" type="curve"/>
      <point x="335" y="479"/>
      <point x="377" y="462"/>
    </contour>
  </outline>
</glyph>
<glyph name="colon" format="1">
  <advance width="236"/>
  <unicode hex="003A"/>
  <outline>
    <contour>
      <point x="164" y="410" type="curve"/>
      <point x="164" y="440"/>
      <point x="144" y="456"/>
      <point x="117" y="456" type="curve"/>
      <point x="90" y="456"/>
      <point x="72" y="439"/>
      <point x="72" y="410" type="curve"/>
      <point x="166" y="410"/>
      <point x="71" y="410"/>
      <point x="164" y="410" type="curve"/>
      <point x="164" y="379"/>
      <point x="145" y="365"/>
      <point x="117" y="365" type="curve"/>
      <point x="89" y="365"/>
      <point x="72" y="380"/>
      <point x="72" y="410" type="curve"/>
      <point x="166" y="410"/>
      <point x="71" y="410"/>
    </contour>
    <contour>
      <point x="164" y="12" type="curve"/>
      <point x="164" y="42"/>
      <point x="144" y="58"/>
      <point x="117" y="58" type="curve"/>
      <point x="90" y="58"/>
      <point x="72" y="41"/>
      <point x="72" y="12" type="curve"/>
      <point x="166" y="12"/>
      <point x="71" y="12"/>
      <point x="164" y="12" type="curve"/>
      <point x="164" y="-19"/>
      <point x="145" y="-33"/>
      <point x="118" y="-33" type="curve"/>
      <point x="89" y="-33"/>
      <point x="72" y="-18"/>
      <point x="72" y="12" type="curve"/>
      <point x="166" y="12"/>
      <point x="71" y="12"/>
    </contour>
  </outline>
</glyph>
<glyph name="semicolon" format="1">
  <advance width="264"/>
  <unicode hex="003B"/>
  <outline>
    <contour>
      <point x="75" y="-168" type="line"/>
      <point x="141" y="-157"/>
      <point x="184" y="-108"/>
      <point x="184" y="-30" type="curve"/>
      <point x="184" y="27"/>
      <point x="164" y="58"/>
      <point x="129" y="58" type="curve"/>
      <point x="99" y="58"/>
      <point x="79" y="42"/>
      <point x="79" y="11" type="curve"/>
      <point x="79" y="-12"/>
      <point x="91" y="-31"/>
      <point x="118" y="-34" type="curve"/>
      <point x="118" y="-56"/>
      <point x="114" y="-102"/>
      <point x="67" y="-119" type="curve"/>
    </contour>
    <contour>
      <point x="179" y="400" type="curve"/>
      <point x="179" y="431"/>
      <point x="160" y="446"/>
      <point x="133" y="446" type="curve"/>
      <point x="105" y="446"/>
      <point x="88" y="429"/>
      <point x="88" y="400" type="curve"/>
      <point x="181" y="400"/>
      <point x="86" y="400"/>
      <point x="179" y="400" type="curve"/>
      <point x="179" y="370"/>
      <point x="160" y="355"/>
      <point x="133" y="355" type="curve"/>
      <point x="105" y="355"/>
      <point x="88" y="371"/>
      <point x="88" y="400" type="curve"/>
      <point x="181" y="400"/>
      <point x="86" y="400"/>
    </contour>
  </outline>
</glyph>
<glyph name="less" format="1">
  <advance width="487"/>
  <unicode hex="003C"/>
  <outline>
    <contour>
      <point x="424" y="608" type="curve"/>
      <point x="295" y="518"/>
      <point x="166" y="428"/>
      <point x="36" y="338" type="curve"/>
      <point x="36" y="262"/>
      <point x="36" y="338"/>
      <point x="36" y="262" type="curve"/>
      <point x="166" y="352"/>
      <point x="295" y="442"/>
      <point x="424" y="532" type="curve"/>
      <point x="424" y="608"/>
      <point x="424" y="532"/>
    </contour>
    <contour>
      <point x="430" y="74" type="curve"/>
      <point x="299" y="162"/>
      <point x="167" y="250"/>
      <point x="36" y="338" type="curve"/>
      <point x="36" y="262"/>
      <point x="36" y="338"/>
      <point x="36" y="262" type="curve"/>
      <point x="167" y="174"/>
      <point x="299" y="86"/>
      <point x="430" y="-2" type="curve"/>
      <point x="430" y="74"/>
      <point x="430" y="-2"/>
    </contour>
  </outline>
</glyph>
<glyph name="equal" format="1">
  <advance width="551"/>
  <unicode hex="003D"/>
  <outline>
    <contour>
      <point x="75" y="181" type="curve"/>
      <point x="208" y="181"/>
      <point x="342" y="181"/>
      <point x="475" y="181" type="curve"/>
      <point x="475" y="254"/>
      <point x="475" y="181"/>
      <point x="475" y="254" type="curve"/>
      <point x="342" y="254"/>
      <point x="208" y="254"/>
      <point x="75" y="254" type="curve"/>
      <point x="75" y="181"/>
      <point x="75" y="254"/>
    </contour>
    <contour>
      <point x="75" y="403" type="curve"/>
      <point x="208" y="403"/>
      <point x="342" y="403"/>
      <point x="475" y="403" type="curve"/>
      <point x="475" y="476"/>
      <point x="475" y="403"/>
      <point x="475" y="476" type="curve"/>
      <point x="342" y="476"/>
      <point x="208" y="476"/>
      <point x="75" y="476" type="curve"/>
      <point x="75" y="403"/>
      <point x="75" y="476"/>
    </contour>
  </outline>
</glyph>
<glyph name="greater" format="1">
  <advance width="487"/>
  <unicode hex="003E"/>
  <outline>
    <contour>
      <point x="63" y="-2" type="curve"/>
      <point x="192" y="88"/>
      <point x="322" y="178"/>
      <point x="451" y="268" type="curve"/>
      <point x="451" y="344"/>
      <point x="451" y="268"/>
      <point x="451" y="344" type="curve"/>
      <point x="322" y="254"/>
      <point x="192" y="164"/>
      <point x="63" y="74" type="curve"/>
      <point x="63" y="-2"/>
      <point x="63" y="74"/>
    </contour>
    <contour>
      <point x="57" y="532" type="curve"/>
      <point x="188" y="444"/>
      <point x="319" y="356"/>
      <point x="451" y="268" type="curve"/>
      <point x="451" y="344"/>
      <point x="451" y="268"/>
      <point x="451" y="344" type="curve"/>
      <point x="319" y="432"/>
      <point x="188" y="520"/>
      <point x="57" y="608" type="curve"/>
      <point x="57" y="532"/>
      <point x="57" y="608"/>
    </contour>
  </outline>
</glyph>
<glyph name="question" format="1">
  <advance width="415"/>
  <unicode hex="003F"/>
  <outline>
    <contour>
      <point x="160" y="358" type="curve"/>
      <point x="160" y="321"/>
      <point x="160" y="258"/>
      <point x="160" y="221" type="curve"/>
      <point x="238" y="221"/>
      <point x="160" y="221"/>
      <point x="238" y="221" type="curve"/>
      <point x="238" y="258"/>
      <point x="238" y="321"/>
      <point x="238" y="358" type="curve"/>
      <point x="160" y="358"/>
      <point x="238" y="358"/>
    </contour>
    <contour>
      <point x="93" y="601" type="line"/>
      <point x="117" y="636"/>
      <point x="141" y="659"/>
      <point x="184" y="659" type="curve"/>
      <point x="254" y="659"/>
      <point x="281" y="594"/>
      <point x="281" y="518" type="curve"/>
      <point x="281" y="431"/>
      <point x="247" y="358"/>
      <point x="170" y="358" type="curve"/>
      <point x="170" y="326"/>
      <point x="169" y="324"/>
      <point x="169" y="292" type="curve"/>
      <point x="295" y="292"/>
      <point x="363" y="388"/>
      <point x="363" y="518" type="curve"/>
      <point x="363" y="642"/>
      <point x="301" y="732"/>
      <point x="188" y="732" type="curve"/>
      <point x="119" y="732"/>
      <point x="75" y="702"/>
      <point x="45" y="655" type="curve"/>
    </contour>
    <contour>
      <point x="245" y="42" type="curve"/>
      <point x="245" y="73"/>
      <point x="225" y="88"/>
      <point x="198" y="88" type="curve"/>
      <point x="170" y="88"/>
      <point x="153" y="71"/>
      <point x="153" y="42" type="curve"/>
      <point x="245" y="42"/>
      <point x="153" y="42"/>
      <point x="245" y="42" type="curve"/>
      <point x="245" y="11"/>
      <point x="226" y="-4"/>
      <point x="198" y="-4" type="curve"/>
      <point x="170" y="-4"/>
      <point x="153" y="12"/>
      <point x="153" y="42" type="curve"/>
      <point x="245" y="42"/>
      <point x="153" y="42"/>
    </contour>
  </outline>
</glyph>
<glyph name="at" format="1">
  <advance width="613"/>
  <unicode hex="0040"/>
  <outline>
    <contour>
      <point x="401" y="-54" type="curve"/>
      <point x="375" y="-76"/>
      <point x="353" y="-85"/>
      <point x="318" y="-85" type="curve"/>
      <point x="181" y="-85"/>
      <point x="127" y="43"/>
      <point x="127" y="200" type="curve"/>
      <point x="127" y="352"/>
      <point x="179" y="477"/>
      <point x="311" y="477" type="curve"/>
      <point x="436" y="477"/>
      <point x="486" y="355"/>
      <point x="486" y="209" type="curve"/>
      <point x="486" y="145"/>
      <point x="489" y="85"/>
      <point x="460" y="85" type="curve"/>
      <point x="428" y="85"/>
      <point x="433" y="141"/>
      <point x="433" y="205" type="curve"/>
      <point x="433" y="307"/>
      <point x="398" y="389"/>
      <point x="307" y="389" type="curve"/>
      <point x="208" y="389"/>
      <point x="178" y="310"/>
      <point x="178" y="203" type="curve"/>
      <point x="178" y="92"/>
      <point x="203" y="8"/>
      <point x="300" y="8" type="curve"/>
      <point x="389" y="8"/>
      <point x="412" y="89"/>
      <point x="420" y="189" type="curve"/>
      <point x="366" y="202"/>
      <point x="420" y="189"/>
      <point x="366" y="202" type="curve"/>
      <point x="357" y="142"/>
      <point x="360" y="77"/>
      <point x="309" y="77" type="curve"/>
      <point x="258" y="77"/>
      <point x="254" y="137"/>
      <point x="254" y="207" type="curve"/>
      <point x="254" y="266"/>
      <point x="256" y="320"/>
      <point x="303" y="320" type="curve"/>
      <point x="356" y="320"/>
      <point x="354" y="264"/>
      <point x="354" y="201" type="curve"/>
      <point x="354" y="102"/>
      <point x="367" y="20"/>
      <point x="453" y="20" type="curve"/>
      <point x="544" y="20"/>
      <point x="558" y="106"/>
      <point x="558" y="213" type="curve"/>
      <point x="558" y="404"/>
      <point x="487" y="549"/>
      <point x="313" y="549" type="curve"/>
      <point x="129" y="549"/>
      <point x="51" y="398"/>
      <point x="51" y="196" type="curve"/>
      <point x="51" y="-4"/>
      <point x="132" y="-154"/>
      <point x="314" y="-154" type="curve"/>
      <point x="366" y="-154"/>
      <point x="393" y="-145"/>
      <point x="436" y="-113" type="curve"/>
      <point x="401" y="-54"/>
      <point x="436" y="-113"/>
    </contour>
  </outline>
</glyph>
<glyph name="A" format="1">
  <advance width="582"/>
  <unicode hex="0041"/>
  <outline>
    <contour>
      <point x="105" y="68" type="curve"/>
      <point x="-29" y="68"/>
      <point x="121" y="68"/>
      <point x="-12" y="68" type="curve"/>
      <point x="-12" y="0"/>
      <point x="-12" y="68"/>
      <point x="-12" y="0" type="curve"/>
      <point x="32" y="0"/>
      <point x="60" y="0"/>
      <point x="104" y="0" type="curve"/>
      <point x="105" y="68"/>
      <point x="104" y="0"/>
    </contour>
    <contour>
      <point x="105" y="0" type="curve"/>
      <point x="154" y="0"/>
      <point x="94" y="0"/>
      <point x="243" y="0" type="curve"/>
      <point x="243" y="68"/>
      <point x="243" y="0"/>
      <point x="243" y="68" type="curve"/>
      <point x="94" y="68"/>
      <point x="254" y="68"/>
      <point x="105" y="68" type="curve"/>
      <point x="105" y="0"/>
      <point x="105" y="68"/>
    </contour>
    <contour>
      <point x="453" y="0" type="curve"/>
      <point x="497" y="0"/>
      <point x="524" y="0"/>
      <point x="569" y="0" type="curve"/>
      <point x="569" y="68"/>
      <point x="569" y="0"/>
      <point x="569" y="68" type="curve"/>
      <point x="436" y="68"/>
      <point x="586" y="68"/>
      <point x="453" y="68" type="curve"/>
      <point x="453" y="0"/>
      <point x="453" y="68"/>
    </contour>
    <contour>
      <point x="453" y="68" type="curve"/>
      <point x="302" y="68"/>
      <point x="464" y="68"/>
      <point x="313" y="68" type="curve"/>
      <point x="313" y="0"/>
      <point x="313" y="68"/>
      <point x="313" y="0" type="curve"/>
      <point x="363" y="0"/>
      <point x="402" y="0"/>
      <point x="453" y="0" type="curve"/>
      <point x="453" y="68"/>
      <point x="453" y="0"/>
    </contour>
    <contour>
      <point x="384" y="284" type="curve"/>
      <point x="318" y="284"/>
      <point x="252" y="284"/>
      <point x="187" y="284" type="curve"/>
      <point x="151" y="212"/>
      <point x="187" y="284"/>
      <point x="151" y="212" type="curve"/>
      <point x="238" y="212"/>
      <point x="325" y="212"/>
      <point x="411" y="212" type="curve"/>
      <point x="384" y="284"/>
      <point x="411" y="212"/>
    </contour>
    <contour>
      <point x="505" y="0" type="curve"/>
      <point x="447" y="241"/>
      <point x="386" y="481"/>
      <point x="328" y="722" type="curve"/>
      <point x="250" y="722"/>
      <point x="328" y="722"/>
      <point x="250" y="722" type="curve"/>
      <point x="306" y="481"/>
      <point x="358" y="241"/>
      <point x="415" y="0" type="curve"/>
      <point x="505" y="0"/>
      <point x="415" y="0"/>
    </contour>
    <contour>
      <point x="144" y="0" type="curve"/>
      <point x="207" y="241"/>
      <point x="263" y="481"/>
      <point x="327" y="722" type="curve"/>
      <point x="249" y="722"/>
      <point x="327" y="722"/>
      <point x="249" y="722" type="curve"/>
      <point x="184" y="480"/>
      <point x="114" y="242"/>
      <point x="50" y="0" type="curve"/>
      <point x="144" y="0"/>
      <point x="50" y="0"/>
    </contour>
    <contour>
      <point x="286" y="801" type="move" name="top"/>
    </contour>
    <contour>
      <point x="502" y="3" type="move" name="bottom"/>
    </contour>
  </outline>
</glyph>
<glyph name="B" format="1">
  <advance width="516"/>
  <unicode hex="0042"/>
  <outline>
    <contour>
      <point x="168" y="722" type="curve"/>
      <point x="125" y="722"/>
      <point x="93" y="722"/>
      <point x="51" y="722" type="curve"/>
      <point x="51" y="654"/>
      <point x="51" y="722"/>
      <point x="51" y="654" type="curve"/>
      <point x="178" y="654"/>
      <point x="40" y="654"/>
      <point x="168" y="654" type="curve"/>
      <point x="168" y="722"/>
      <point x="168" y="654"/>
    </contour>
    <contour>
      <point x="167" y="68" type="curve"/>
      <point x="39" y="68"/>
      <point x="178" y="68"/>
      <point x="50" y="68" type="curve"/>
      <point x="50" y="0"/>
      <point x="50" y="68"/>
      <point x="50" y="0" type="curve"/>
      <point x="93" y="0"/>
      <point x="124" y="0"/>
      <point x="167" y="0" type="curve"/>
      <point x="167" y="68"/>
      <point x="167" y="0"/>
    </contour>
    <contour>
      <point x="161" y="654" type="curve"/>
      <point x="201" y="654"/>
      <point x="222" y="654"/>
      <point x="262" y="654" type="curve"/>
      <point x="325" y="654"/>
      <point x="349" y="608"/>
      <point x="349" y="546" type="curve"/>
      <point x="349" y="487"/>
      <point x="330" y="441"/>
      <point x="274" y="441" type="curve"/>
      <point x="230" y="441"/>
      <point x="205" y="441"/>
      <point x="161" y="441" type="curve"/>
      <point x="161" y="422"/>
      <point x="161" y="391"/>
      <point x="161" y="372" type="curve"/>
      <point x="194" y="372"/>
      <point x="214" y="372"/>
      <point x="248" y="372" type="curve"/>
      <point x="352" y="372"/>
      <point x="434" y="431"/>
      <point x="434" y="542" type="curve"/>
      <point x="434" y="652"/>
      <point x="375" y="722"/>
      <point x="268" y="722" type="curve"/>
      <point x="226" y="722"/>
      <point x="203" y="722"/>
      <point x="161" y="722" type="curve"/>
      <point x="161" y="703"/>
      <point x="161" y="673"/>
    </contour>
    <contour>
      <point x="213" y="0" type="curve"/>
      <point x="213" y="241"/>
      <point x="213" y="481"/>
      <point x="213" y="722" type="curve"/>
      <point x="123" y="722"/>
      <point x="213" y="722"/>
      <point x="123" y="722" type="curve"/>
      <point x="123" y="481"/>
      <point x="124" y="241"/>
      <point x="123" y="0" type="curve"/>
      <point x="213" y="0"/>
      <point x="123" y="0"/>
    </contour>
    <contour>
      <point x="161" y="372" type="curve"/>
      <point x="205" y="372"/>
      <point x="230" y="372"/>
      <point x="274" y="372" type="curve"/>
      <point x="354" y="372"/>
      <point x="379" y="302"/>
      <point x="379" y="217" type="curve"/>
      <point x="379" y="132"/>
      <point x="346" y="68"/>
      <point x="266" y="68" type="curve"/>
      <point x="224" y="68"/>
      <point x="203" y="68"/>
      <point x="161" y="68" type="curve"/>
      <point x="161" y="49"/>
      <point x="161" y="19"/>
      <point x="161" y="0" type="curve"/>
      <point x="205" y="0"/>
      <point x="228" y="0"/>
      <point x="272" y="0" type="curve"/>
      <point x="397" y="0"/>
      <point x="465" y="85"/>
      <point x="465" y="214" type="curve"/>
      <point x="465" y="354"/>
      <point x="384" y="441"/>
      <point x="248" y="441" type="curve"/>
      <point x="215" y="441"/>
      <point x="194" y="441"/>
      <point x="161" y="441" type="curve"/>
      <point x="161" y="422"/>
      <point x="161" y="391"/>
    </contour>
  </outline>
</glyph>
<glyph name="D" format="1">
  <advance width="588"/>
  <unicode hex="0044"/>
  <outline>
    <contour>
      <point x="170" y="68" type="curve"/>
      <point x="41" y="68"/>
      <point x="181" y="68"/>
      <point x="51" y="68" type="curve"/>
      <point x="51" y="0"/>
      <point x="51" y="68"/>
      <point x="51" y="0" type="curve"/>
      <point x="95" y="0"/>
      <point x="128" y="0"/>
      <point x="170" y="0" type="curve"/>
      <point x="170" y="68"/>
      <point x="170" y="0"/>
    </contour>
    <contour>
      <point x="170" y="722" type="curve"/>
      <point x="128" y="722"/>
      <point x="95" y="722"/>
      <point x="51" y="722" type="curve"/>
      <point x="51" y="654"/>
      <point x="51" y="722"/>
      <point x="51" y="654" type="curve"/>
      <point x="181" y="654"/>
      <point x="41" y="654"/>
      <point x="170" y="654" type="curve"/>
      <point x="170" y="722"/>
      <point x="170" y="654"/>
    </contour>
    <contour>
      <point x="126" y="722" type="curve"/>
      <point x="126" y="481"/>
      <point x="126" y="241"/>
      <point x="126" y="0" type="curve"/>
      <point x="212" y="0"/>
      <point x="126" y="0"/>
      <point x="212" y="0" type="curve"/>
      <point x="212" y="241"/>
      <point x="212" y="481"/>
      <point x="212" y="722" type="curve"/>
      <point x="126" y="722"/>
      <point x="212" y="722"/>
    </contour>
    <contour>
      <point x="170" y="0" type="curve"/>
      <point x="211" y="0"/>
      <point x="242" y="0"/>
      <point x="283" y="0" type="curve"/>
      <point x="468" y="0"/>
      <point x="534" y="150"/>
      <point x="534" y="355" type="curve"/>
      <point x="534" y="567"/>
      <point x="468" y="722"/>
      <point x="279" y="722" type="curve"/>
      <point x="241" y="722"/>
      <point x="209" y="722"/>
      <point x="170" y="722" type="curve"/>
      <point x="170" y="661"/>
      <point x="170" y="714"/>
      <point x="170" y="654" type="curve"/>
      <point x="208" y="654"/>
      <point x="238" y="654"/>
      <point x="276" y="654" type="curve"/>
      <point x="418" y="654"/>
      <point x="448" y="521"/>
      <point x="448" y="354" type="curve"/>
      <point x="448" y="197"/>
      <point x="423" y="68"/>
      <point x="291" y="68" type="curve"/>
      <point x="248" y="68"/>
      <point x="214" y="68"/>
      <point x="170" y="68" type="curve"/>
      <point x="170" y="8"/>
      <point x="170" y="61"/>
    </contour>
    <contour>
      <point x="257" y="801" type="move" name="top"/>
    </contour>
  </outline>
</glyph>
<glyph name="E" format="1">
  <advance width="485"/>
  <unicode hex="0045"/>
  <outline>
    <contour>
      <point x="443" y="34" type="curve"/>
      <point x="443" y="154"/>
      <point x="443" y="29"/>
      <point x="443" y="149" type="curve"/>
      <point x="374" y="149"/>
      <point x="443" y="149"/>
      <point x="374" y="149" type="curve"/>
      <point x="374" y="29"/>
      <point x="374" y="154"/>
      <point x="374" y="34" type="curve"/>
      <point x="443" y="34"/>
      <point x="374" y="34"/>
    </contour>
    <contour>
      <point x="352" y="688" type="curve"/>
      <point x="352" y="568"/>
      <point x="352" y="693"/>
      <point x="352" y="573" type="curve"/>
      <point x="421" y="573"/>
      <point x="352" y="573"/>
      <point x="421" y="573" type="curve"/>
      <point x="421" y="693"/>
      <point x="421" y="568"/>
      <point x="421" y="688" type="curve"/>
      <point x="352" y="688"/>
      <point x="421" y="688"/>
    </contour>
    <contour>
      <point x="170" y="68" type="curve"/>
      <point x="40" y="68"/>
      <point x="181" y="68"/>
      <point x="51" y="68" type="curve"/>
      <point x="51" y="0"/>
      <point x="51" y="68"/>
      <point x="51" y="0" type="curve"/>
      <point x="94" y="0"/>
      <point x="127" y="0"/>
      <point x="170" y="0" type="curve"/>
      <point x="170" y="68"/>
      <point x="170" y="0"/>
    </contour>
    <contour>
      <point x="170" y="722" type="curve"/>
      <point x="127" y="722"/>
      <point x="94" y="722"/>
      <point x="51" y="722" type="curve"/>
      <point x="51" y="654"/>
      <point x="51" y="722"/>
      <point x="51" y="654" type="curve"/>
      <point x="181" y="654"/>
      <point x="40" y="654"/>
      <point x="170" y="654" type="curve"/>
      <point x="170" y="722"/>
      <point x="170" y="654"/>
    </contour>
    <contour>
      <point x="172" y="339" type="curve"/>
      <point x="242" y="339"/>
      <point x="312" y="339"/>
      <point x="381" y="339" type="curve"/>
      <point x="381" y="408"/>
      <point x="381" y="339"/>
      <point x="381" y="408" type="curve"/>
      <point x="312" y="408"/>
      <point x="242" y="408"/>
      <point x="172" y="408" type="curve"/>
      <point x="172" y="339"/>
      <point x="172" y="408"/>
    </contour>
    <contour>
      <point x="163" y="654" type="curve"/>
      <point x="249" y="654"/>
      <point x="335" y="654"/>
      <point x="421" y="654" type="curve"/>
      <point x="421" y="722"/>
      <point x="421" y="654"/>
      <point x="421" y="722" type="curve"/>
      <point x="335" y="722"/>
      <point x="249" y="722"/>
      <point x="163" y="722" type="curve"/>
      <point x="163" y="654"/>
      <point x="163" y="722"/>
    </contour>
    <contour>
      <point x="213" y="0" type="curve"/>
      <point x="213" y="722" type="line"/>
      <point x="127" y="722"/>
      <point x="213" y="722"/>
      <point x="127" y="722" type="curve"/>
      <point x="127" y="481"/>
      <point x="127" y="241"/>
      <point x="127" y="0" type="curve"/>
      <point x="213" y="0"/>
      <point x="127" y="0"/>
    </contour>
    <contour>
      <point x="163" y="0" type="curve"/>
      <point x="256" y="0"/>
      <point x="349" y="0"/>
      <point x="443" y="0" type="curve"/>
      <point x="443" y="68"/>
      <point x="443" y="0"/>
      <point x="443" y="68" type="curve"/>
      <point x="349" y="68"/>
      <point x="256" y="68"/>
      <point x="163" y="68" type="curve"/>
      <point x="163" y="0"/>
      <point x="163" y="68"/>
    </contour>
    <contour>
      <point x="256" y="801" type="move" name="top"/>
    </contour>
    <contour>
      <point x="436" y="1" type="move" name="bottom"/>
    </contour>
  </outline>
</glyph>
<glyph name="F" format="1">
  <advance width="459"/>
  <unicode hex="0046"/>
  <outline>
    <contour>
      <point x="169" y="0" type="curve"/>
      <point x="213" y="0"/>
      <point x="169" y="0"/>
      <point x="300" y="0" type="curve"/>
      <point x="300" y="68"/>
      <point x="300" y="0"/>
      <point x="300" y="68" type="curve"/>
      <point x="169" y="68"/>
      <point x="300" y="68"/>
      <point x="169" y="68" type="curve"/>
      <point x="169" y="0"/>
      <point x="169" y="68"/>
    </contour>
    <contour>
      <point x="169" y="722" type="curve"/>
      <point x="126" y="722"/>
      <point x="94" y="722"/>
      <point x="50" y="722" type="curve"/>
      <point x="50" y="654"/>
      <point x="50" y="722"/>
      <point x="50" y="654" type="curve"/>
      <point x="180" y="654"/>
      <point x="39" y="654"/>
      <point x="169" y="654" type="curve"/>
      <point x="169" y="722"/>
      <point x="169" y="654"/>
    </contour>
    <contour>
      <point x="169" y="68" type="curve"/>
      <point x="39" y="68"/>
      <point x="180" y="68"/>
      <point x="50" y="68" type="curve"/>
      <point x="50" y="0"/>
      <point x="50" y="68"/>
      <point x="50" y="0" type="curve"/>
      <point x="94" y="0"/>
      <point x="126" y="0"/>
      <point x="169" y="0" type="curve"/>
      <point x="169" y="68"/>
      <point x="169" y="0"/>
    </contour>
    <contour>
      <point x="355" y="688" type="curve"/>
      <point x="355" y="568"/>
      <point x="355" y="693"/>
      <point x="355" y="573" type="curve"/>
      <point x="424" y="573"/>
      <point x="355" y="573"/>
      <point x="424" y="573" type="curve"/>
      <point x="424" y="693"/>
      <point x="424" y="568"/>
      <point x="424" y="688" type="curve"/>
      <point x="355" y="688"/>
      <point x="424" y="688"/>
    </contour>
    <contour>
      <point x="172" y="339" type="curve"/>
      <point x="241" y="339"/>
      <point x="308" y="339"/>
      <point x="377" y="339" type="curve"/>
      <point x="377" y="408"/>
      <point x="377" y="339"/>
      <point x="377" y="408" type="curve"/>
      <point x="308" y="408"/>
      <point x="241" y="408"/>
      <point x="172" y="408" type="curve"/>
      <point x="172" y="339"/>
      <point x="172" y="408"/>
    </contour>
    <contour>
      <point x="212" y="0" type="curve"/>
      <point x="212" y="722" type="line"/>
      <point x="127" y="722"/>
      <point x="212" y="722"/>
      <point x="127" y="722" type="curve"/>
      <point x="127" y="481"/>
      <point x="127" y="241"/>
      <point x="127" y="0" type="curve"/>
      <point x="212" y="0"/>
      <point x="127" y="0"/>
    </contour>
    <contour>
      <point x="162" y="654" type="curve"/>
      <point x="249" y="654"/>
      <point x="336" y="654"/>
      <point x="424" y="654" type="curve"/>
      <point x="424" y="722"/>
      <point x="424" y="654"/>
      <point x="424" y="722" type="curve"/>
      <point x="336" y="722"/>
      <point x="249" y="722"/>
      <point x="162" y="722" type="curve"/>
      <point x="162" y="654"/>
      <point x="162" y="722"/>
    </contour>
  </outline>
</glyph>
<glyph name="G" format="1">
  <advance width="566"/>
  <unicode hex="0047"/>
  <outline>
    <contour>
      <point x="424" y="644" type="curve"/>
      <point x="424" y="511"/>
      <point x="424" y="652"/>
      <point x="424" y="520" type="curve"/>
      <point x="493" y="520"/>
      <point x="424" y="520"/>
      <point x="493" y="520" type="curve"/>
      <point x="493" y="652"/>
      <point x="493" y="511"/>
      <point x="493" y="644" type="curve"/>
      <point x="424" y="644"/>
      <point x="493" y="644"/>
    </contour>
    <contour>
      <point x="480" y="346" type="curve"/>
      <point x="434" y="346"/>
      <point x="387" y="346"/>
      <point x="340" y="346" type="curve"/>
      <point x="340" y="278"/>
      <point x="340" y="346"/>
      <point x="340" y="278" type="curve"/>
      <point x="387" y="278"/>
      <point x="434" y="278"/>
      <point x="480" y="278" type="curve"/>
      <point x="480" y="346"/>
      <point x="480" y="278"/>
    </contour>
    <contour>
      <point x="503" y="78" type="curve"/>
      <point x="503" y="167"/>
      <point x="503" y="256"/>
      <point x="503" y="346" type="curve"/>
      <point x="425" y="346"/>
      <point x="503" y="346"/>
      <point x="425" y="346" type="curve"/>
      <point x="425" y="256"/>
      <point x="425" y="167"/>
      <point x="425" y="78" type="curve"/>
      <point x="503" y="78"/>
      <point x="425" y="78"/>
    </contour>
    <contour>
      <point x="493" y="644" type="curve"/>
      <point x="436" y="699"/>
      <point x="377" y="727"/>
      <point x="298" y="727" type="curve"/>
      <point x="117" y="727"/>
      <point x="54" y="569"/>
      <point x="54" y="362" type="curve"/>
      <point x="54" y="153"/>
      <point x="121" y="-5"/>
      <point x="306" y="-5" type="curve"/>
      <point x="389" y="-5"/>
      <point x="439" y="24"/>
      <point x="503" y="78" type="curve"/>
      <point x="459" y="132"/>
      <point x="503" y="78"/>
      <point x="459" y="132" type="curve"/>
      <point x="419" y="93"/>
      <point x="369" y="67"/>
      <point x="305" y="67" type="curve"/>
      <point x="167" y="67"/>
      <point x="140" y="204"/>
      <point x="140" y="369" type="curve"/>
      <point x="140" y="524"/>
      <point x="168" y="655"/>
      <point x="298" y="655" type="curve"/>
      <point x="360" y="655"/>
      <point x="405" y="629"/>
      <point x="450" y="586" type="curve"/>
      <point x="493" y="644"/>
      <point x="450" y="586"/>
    </contour>
    <contour>
      <point x="295" y="801" type="move" name="top"/>
    </contour>
    <contour>
      <point x="324" y="-45" type="move" name="bottom"/>
    </contour>
  </outline>
</glyph>
<glyph name="H" format="1">
  <advance width="630"/>
  <unicode hex="0048"/>
  <outline>
    <contour>
      <point x="474" y="654" type="curve"/>
      <point x="601" y="654"/>
      <point x="465" y="654"/>
      <point x="593" y="654" type="curve"/>
      <point x="593" y="722"/>
      <point x="593" y="654"/>
      <point x="593" y="722" type="curve"/>
      <point x="550" y="722"/>
      <point x="516" y="722"/>
      <point x="474" y="722" type="curve"/>
      <point x="474" y="654"/>
      <point x="474" y="722"/>
    </contour>
    <contour>
      <point x="474" y="0" type="curve"/>
      <point x="516" y="0"/>
      <point x="550" y="0"/>
      <point x="593" y="0" type="curve"/>
      <point x="593" y="68"/>
      <point x="593" y="0"/>
      <point x="593" y="68" type="curve"/>
      <point x="465" y="68"/>
      <point x="601" y="68"/>
      <point x="474" y="68" type="curve"/>
      <point x="474" y="0"/>
      <point x="474" y="68"/>
    </contour>
    <contour>
      <point x="474" y="68" type="curve"/>
      <point x="346" y="68"/>
      <point x="482" y="68"/>
      <point x="355" y="68" type="curve"/>
      <point x="355" y="0"/>
      <point x="355" y="68"/>
      <point x="355" y="0" type="curve"/>
      <point x="397" y="0"/>
      <point x="431" y="0"/>
      <point x="474" y="0" type="curve"/>
      <point x="474" y="68"/>
      <point x="474" y="0"/>
    </contour>
    <contour>
      <point x="474" y="722" type="curve"/>
      <point x="431" y="722"/>
      <point x="397" y="722"/>
      <point x="355" y="722" type="curve"/>
      <point x="355" y="654"/>
      <point x="355" y="722"/>
      <point x="355" y="654" type="curve"/>
      <point x="482" y="654"/>
      <point x="346" y="654"/>
      <point x="474" y="654" type="curve"/>
      <point x="474" y="722"/>
      <point x="474" y="654"/>
    </contour>
    <contour>
      <point x="157" y="654" type="curve"/>
      <point x="285" y="654"/>
      <point x="149" y="654"/>
      <point x="277" y="654" type="curve"/>
      <point x="277" y="722"/>
      <point x="277" y="654"/>
      <point x="277" y="722" type="curve"/>
      <point x="234" y="722"/>
      <point x="200" y="722"/>
      <point x="157" y="722" type="curve"/>
      <point x="157" y="654"/>
      <point x="157" y="722"/>
    </contour>
    <contour>
      <point x="157" y="722" type="curve"/>
      <point x="115" y="722"/>
      <point x="81" y="722"/>
      <point x="38" y="722" type="curve"/>
      <point x="38" y="654"/>
      <point x="38" y="722"/>
      <point x="38" y="654" type="curve"/>
      <point x="166" y="654"/>
      <point x="30" y="654"/>
      <point x="157" y="654" type="curve"/>
      <point x="157" y="722"/>
      <point x="157" y="654"/>
    </contour>
    <contour>
      <point x="157" y="0" type="curve"/>
      <point x="200" y="0"/>
      <point x="149" y="0"/>
      <point x="277" y="0" type="curve"/>
      <point x="277" y="68"/>
      <point x="277" y="0"/>
      <point x="277" y="68" type="curve"/>
      <point x="149" y="68"/>
      <point x="285" y="68"/>
      <point x="157" y="68" type="curve"/>
      <point x="157" y="0"/>
      <point x="157" y="68"/>
    </contour>
    <contour>
      <point x="157" y="68" type="curve"/>
      <point x="30" y="68"/>
      <point x="166" y="68"/>
      <point x="38" y="68" type="curve"/>
      <point x="38" y="0"/>
      <point x="38" y="68"/>
      <point x="38" y="0" type="curve"/>
      <point x="81" y="0"/>
      <point x="115" y="0"/>
      <point x="157" y="0" type="curve"/>
      <point x="157" y="68"/>
      <point x="157" y="0"/>
    </contour>
    <contour>
      <point x="200" y="0" type="curve"/>
      <point x="200" y="722" type="line"/>
      <point x="115" y="722"/>
      <point x="200" y="722"/>
      <point x="115" y="722" type="curve"/>
      <point x="115" y="481"/>
      <point x="115" y="241"/>
      <point x="115" y="0" type="curve"/>
      <point x="200" y="0"/>
      <point x="115" y="0"/>
    </contour>
    <contour>
      <point x="472" y="397" type="curve"/>
      <point x="366" y="397"/>
      <point x="262" y="397"/>
      <point x="157" y="397" type="curve"/>
      <point x="157" y="328"/>
      <point x="157" y="397"/>
      <point x="157" y="328" type="curve"/>
      <point x="262" y="328"/>
      <point x="366" y="328"/>
      <point x="472" y="328" type="curve"/>
      <point x="472" y="397"/>
      <point x="472" y="328"/>
    </contour>
    <contour>
      <point x="516" y="25" type="curve"/>
      <point x="516" y="249"/>
      <point x="516" y="473"/>
      <point x="516" y="697" type="curve"/>
      <point x="430" y="697"/>
      <point x="516" y="697"/>
      <point x="430" y="697" type="curve"/>
      <point x="430" y="25" type="line"/>
      <point x="516" y="25"/>
      <point x="430" y="25"/>
    </contour>
  </outline>
</glyph>
<glyph name="I" format="1">
  <advance width="315"/>
  <unicode hex="0049"/>
  <outline>
    <contour>
      <point x="158" y="722" type="curve"/>
      <point x="116" y="722"/>
      <point x="81" y="722"/>
      <point x="39" y="722" type="curve"/>
      <point x="39" y="654"/>
      <point x="39" y="722"/>
      <point x="39" y="654" type="curve"/>
      <point x="167" y="654"/>
      <point x="30" y="654"/>
      <point x="158" y="654" type="curve"/>
      <point x="158" y="722"/>
      <point x="158" y="654"/>
    </contour>
    <contour>
      <point x="158" y="654" type="curve"/>
      <point x="286" y="654"/>
      <point x="150" y="654"/>
      <point x="278" y="654" type="curve"/>
      <point x="278" y="722"/>
      <point x="278" y="654"/>
      <point x="278" y="722" type="curve"/>
      <point x="235" y="722"/>
      <point x="201" y="722"/>
      <point x="158" y="722" type="curve"/>
      <point x="158" y="654"/>
      <point x="158" y="722"/>
    </contour>
    <contour>
      <point x="158" y="0" type="curve"/>
      <point x="201" y="0"/>
      <point x="235" y="0"/>
      <point x="278" y="0" type="curve"/>
      <point x="278" y="68"/>
      <point x="278" y="0"/>
      <point x="278" y="68" type="curve"/>
      <point x="150" y="68"/>
      <point x="286" y="68"/>
      <point x="158" y="68" type="curve"/>
      <point x="158" y="0"/>
      <point x="158" y="68"/>
    </contour>
    <contour>
      <point x="158" y="68" type="curve"/>
      <point x="30" y="68"/>
      <point x="167" y="68"/>
      <point x="39" y="68" type="curve"/>
      <point x="39" y="0"/>
      <point x="39" y="68"/>
      <point x="39" y="0" type="curve"/>
      <point x="81" y="0"/>
      <point x="116" y="0"/>
      <point x="158" y="0" type="curve"/>
      <point x="158" y="68"/>
      <point x="158" y="0"/>
    </contour>
    <contour>
      <point x="201" y="0" type="curve"/>
      <point x="201" y="241"/>
      <point x="201" y="481"/>
      <point x="201" y="722" type="curve"/>
      <point x="115" y="722"/>
      <point x="201" y="722"/>
      <point x="115" y="722" type="curve"/>
      <point x="115" y="481"/>
      <point x="115" y="241"/>
      <point x="115" y="0" type="curve"/>
      <point x="201" y="0"/>
      <point x="115" y="0"/>
    </contour>
    <contour>
      <point x="160" y="801" type="move" name="top"/>
    </contour>
    <contour>
      <point x="194" y="3" type="move" name="bottom"/>
    </contour>
  </outline>
</glyph>
<glyph name="J" format="1">
  <advance width="356"/>
  <unicode hex="004A"/>
  <outline>
    <contour>
      <point x="215" y="722" type="curve"/>
      <point x="174" y="722"/>
      <point x="140" y="722"/>
      <point x="98" y="722" type="curve"/>
      <point x="98" y="654"/>
      <point x="98" y="722"/>
      <point x="98" y="654" type="curve"/>
      <point x="224" y="654"/>
      <point x="90" y="654"/>
      <point x="215" y="654" type="curve"/>
      <point x="215" y="722"/>
      <point x="215" y="654"/>
    </contour>
    <contour>
      <point x="215" y="654" type="curve"/>
      <point x="342" y="654"/>
      <point x="207" y="654"/>
      <point x="333" y="654" type="curve"/>
      <point x="333" y="722"/>
      <point x="333" y="654"/>
      <point x="333" y="722" type="curve"/>
      <point x="291" y="722"/>
      <point x="257" y="722"/>
      <point x="215" y="722" type="curve"/>
      <point x="215" y="654"/>
      <point x="215" y="722"/>
    </contour>
    <contour>
      <point x="12" y="41" type="curve"/>
      <point x="36" y="18"/>
      <point x="66" y="-5"/>
      <point x="107" y="-5" type="curve"/>
      <point x="224" y="-5"/>
      <point x="258" y="86"/>
      <point x="258" y="231" type="curve"/>
      <point x="258" y="406"/>
      <point x="258" y="546"/>
      <point x="258" y="722" type="curve"/>
      <point x="180" y="722"/>
      <point x="250" y="722"/>
      <point x="172" y="722" type="curve"/>
      <point x="172" y="546"/>
      <point x="172" y="406"/>
      <point x="172" y="231" type="curve"/>
      <point x="172" y="143"/>
      <point x="177" y="65"/>
      <point x="107" y="65" type="curve"/>
      <point x="82" y="65"/>
      <point x="68" y="81"/>
      <point x="53" y="96" type="curve"/>
      <point x="17" y="47"/>
      <point x="48" y="90"/>
    </contour>
  </outline>
</glyph>
<glyph name="K" format="1">
  <advance width="551"/>
  <unicode hex="004B"/>
  <outline>
    <contour>
      <point x="409" y="722" type="curve"/>
      <point x="366" y="722"/>
      <point x="348" y="722"/>
      <point x="306" y="722" type="curve"/>
      <point x="306" y="654"/>
      <point x="306" y="722"/>
      <point x="306" y="654" type="curve"/>
      <point x="434" y="654"/>
      <point x="281" y="654"/>
      <point x="409" y="654" type="curve"/>
      <point x="409" y="722"/>
      <point x="409" y="654"/>
    </contour>
    <contour>
      <point x="412" y="0" type="curve"/>
      <point x="467" y="0"/>
      <point x="475" y="0"/>
      <point x="530" y="0" type="curve"/>
      <point x="530" y="68"/>
      <point x="530" y="0"/>
      <point x="530" y="68" type="curve"/>
      <point x="365" y="68"/>
      <point x="576" y="68"/>
      <point x="412" y="68" type="curve"/>
      <point x="412" y="0"/>
      <point x="412" y="68"/>
    </contour>
    <contour>
      <point x="390" y="654" type="curve"/>
      <point x="519" y="654"/>
      <point x="381" y="654"/>
      <point x="510" y="654" type="curve"/>
      <point x="510" y="722"/>
      <point x="510" y="654"/>
      <point x="510" y="722" type="curve"/>
      <point x="468" y="722"/>
      <point x="434" y="722"/>
      <point x="390" y="722" type="curve"/>
      <point x="390" y="654"/>
      <point x="390" y="722"/>
    </contour>
    <contour>
      <point x="155" y="722" type="curve"/>
      <point x="113" y="722"/>
      <point x="79" y="722"/>
      <point x="38" y="722" type="curve"/>
      <point x="38" y="654"/>
      <point x="38" y="722"/>
      <point x="38" y="654" type="curve"/>
      <point x="163" y="654"/>
      <point x="30" y="654"/>
      <point x="155" y="654" type="curve"/>
      <point x="155" y="722"/>
      <point x="155" y="654"/>
    </contour>
    <contour>
      <point x="155" y="654" type="curve"/>
      <point x="285" y="654"/>
      <point x="118" y="654"/>
      <point x="248" y="654" type="curve"/>
      <point x="248" y="722"/>
      <point x="248" y="654"/>
      <point x="248" y="722" type="curve"/>
      <point x="205" y="722"/>
      <point x="198" y="722"/>
      <point x="155" y="722" type="curve"/>
      <point x="155" y="654"/>
      <point x="155" y="722"/>
    </contour>
    <contour>
      <point x="155" y="0" type="curve"/>
      <point x="200" y="0"/>
      <point x="118" y="0"/>
      <point x="255" y="0" type="curve"/>
      <point x="255" y="68"/>
      <point x="255" y="0"/>
      <point x="255" y="68" type="curve"/>
      <point x="118" y="68"/>
      <point x="291" y="68"/>
      <point x="155" y="68" type="curve"/>
      <point x="155" y="0"/>
      <point x="155" y="68"/>
    </contour>
    <contour>
      <point x="155" y="68" type="curve"/>
      <point x="30" y="68"/>
      <point x="163" y="68"/>
      <point x="38" y="68" type="curve"/>
      <point x="38" y="0"/>
      <point x="38" y="68"/>
      <point x="38" y="0" type="curve"/>
      <point x="79" y="0"/>
      <point x="113" y="0"/>
      <point x="155" y="0" type="curve"/>
      <point x="155" y="68"/>
      <point x="155" y="0"/>
    </contour>
    <contour>
      <point x="396" y="722" type="curve"/>
      <point x="187" y="380" type="line"/>
      <point x="280" y="380"/>
      <point x="185" y="380"/>
      <point x="278" y="380" type="curve"/>
      <point x="460" y="687" type="line"/>
      <point x="400" y="687"/>
      <point x="456" y="722"/>
    </contour>
    <contour>
      <point x="198" y="0" type="curve"/>
      <point x="198" y="722" type="line"/>
      <point x="112" y="722"/>
      <point x="198" y="722"/>
      <point x="112" y="722" type="curve"/>
      <point x="112" y="481"/>
      <point x="112" y="241"/>
      <point x="112" y="0" type="curve"/>
      <point x="198" y="0"/>
      <point x="112" y="0"/>
    </contour>
    <contour>
      <point x="483" y="28" type="curve"/>
      <point x="278" y="380" type="line"/>
      <point x="185" y="380"/>
      <point x="280" y="380"/>
      <point x="187" y="380" type="curve"/>
      <point x="410" y="0" type="line"/>
      <point x="479" y="0"/>
      <point x="414" y="28"/>
    </contour>
    <contour>
      <point x="304" y="-44" type="move" name="bottom"/>
    </contour>
  </outline>
</glyph>
<glyph name="L" format="1">
  <advance width="453"/>
  <unicode hex="004C"/>
  <outline>
    <contour>
      <point x="426" y="34" type="curve"/>
      <point x="426" y="154"/>
      <point x="426" y="29"/>
      <point x="426" y="149" type="curve"/>
      <point x="357" y="149"/>
      <point x="426" y="149"/>
      <point x="357" y="149" type="curve"/>
      <point x="357" y="29"/>
      <point x="357" y="154"/>
      <point x="357" y="34" type="curve"/>
      <point x="426" y="34"/>
      <point x="357" y="34"/>
    </contour>
    <contour>
      <point x="157" y="68" type="curve"/>
      <point x="30" y="68"/>
      <point x="166" y="68"/>
      <point x="38" y="68" type="curve"/>
      <point x="38" y="0"/>
      <point x="38" y="68"/>
      <point x="38" y="0" type="curve"/>
      <point x="80" y="0"/>
      <point x="115" y="0"/>
      <point x="157" y="0" type="curve"/>
      <point x="157" y="68"/>
      <point x="157" y="0"/>
    </contour>
    <contour>
      <point x="157" y="722" type="curve"/>
      <point x="115" y="722"/>
      <point x="80" y="722"/>
      <point x="38" y="722" type="curve"/>
      <point x="38" y="654"/>
      <point x="38" y="722"/>
      <point x="38" y="654" type="curve"/>
      <point x="166" y="654"/>
      <point x="29" y="654"/>
      <point x="157" y="654" type="curve"/>
      <point x="157" y="722"/>
      <point x="157" y="654"/>
    </contour>
    <contour>
      <point x="157" y="654" type="curve"/>
      <point x="285" y="654"/>
      <point x="149" y="654"/>
      <point x="277" y="654" type="curve"/>
      <point x="277" y="722"/>
      <point x="277" y="654"/>
      <point x="277" y="722" type="curve"/>
      <point x="234" y="722"/>
      <point x="200" y="722"/>
      <point x="157" y="722" type="curve"/>
      <point x="157" y="654"/>
      <point x="157" y="722"/>
    </contour>
    <contour>
      <point x="201" y="0" type="curve"/>
      <point x="201" y="241"/>
      <point x="201" y="481"/>
      <point x="201" y="722" type="curve"/>
      <point x="115" y="722"/>
      <point x="201" y="722"/>
      <point x="115" y="722" type="curve"/>
      <point x="115" y="481"/>
      <point x="115" y="241"/>
      <point x="115" y="0" type="curve"/>
      <point x="201" y="0"/>
      <point x="115" y="0"/>
    </contour>
    <contour>
      <point x="157" y="0" type="curve"/>
      <point x="247" y="0"/>
      <point x="337" y="0"/>
      <point x="426" y="0" type="curve"/>
      <point x="426" y="68"/>
      <point x="426" y="0"/>
      <point x="426" y="68" type="curve"/>
      <point x="337" y="68"/>
      <point x="247" y="68"/>
      <point x="157" y="68" type="curve"/>
      <point x="157" y="0"/>
      <point x="157" y="68"/>
    </contour>
    <contour>
      <point x="158" y="801" type="move" name="top"/>
    </contour>
    <contour>
      <point x="272" y="-42" type="move" name="bottom"/>
    </contour>
  </outline>
</glyph>
<glyph name="M" format="1">
  <advance width="709"/>
  <unicode hex="004D"/>
  <outline>
    <contour>
      <point x="575" y="0" type="curve"/>
      <point x="616" y="0"/>
      <point x="648" y="0"/>
      <point x="689" y="0" type="curve"/>
      <point x="689" y="68"/>
      <point x="689" y="0"/>
      <point x="689" y="68" type="curve"/>
      <point x="567" y="68"/>
      <point x="697" y="68"/>
      <point x="575" y="68" type="curve"/>
      <point x="575" y="0"/>
      <point x="575" y="68"/>
    </contour>
    <contour>
      <point x="575" y="68" type="curve"/>
      <point x="459" y="68"/>
      <point x="583" y="68"/>
      <point x="468" y="68" type="curve"/>
      <point x="468" y="0"/>
      <point x="468" y="68"/>
      <point x="468" y="0" type="curve"/>
      <point x="506" y="0"/>
      <point x="537" y="0"/>
      <point x="575" y="0" type="curve"/>
      <point x="575" y="68"/>
      <point x="575" y="0"/>
    </contour>
    <contour>
      <point x="135" y="68" type="curve"/>
      <point x="13" y="68"/>
      <point x="144" y="68"/>
      <point x="21" y="68" type="curve"/>
      <point x="21" y="0"/>
      <point x="21" y="68"/>
      <point x="21" y="0" type="curve"/>
      <point x="62" y="0"/>
      <point x="94" y="0"/>
      <point x="135" y="0" type="curve"/>
      <point x="135" y="68"/>
      <point x="135" y="0"/>
    </contour>
    <contour>
      <point x="173" y="722" type="curve"/>
      <point x="132" y="722"/>
      <point x="100" y="722"/>
      <point x="60" y="722" type="curve"/>
      <point x="59" y="654"/>
      <point x="60" y="722"/>
      <point x="59" y="654" type="curve"/>
      <point x="181" y="654"/>
      <point x="51" y="654"/>
      <point x="173" y="654" type="curve"/>
      <point x="173" y="722"/>
      <point x="173" y="654"/>
    </contour>
    <contour>
      <point x="536" y="654" type="curve"/>
      <point x="657" y="654"/>
      <point x="527" y="654"/>
      <point x="649" y="654" type="curve"/>
      <point x="649" y="722"/>
      <point x="649" y="654"/>
      <point x="649" y="722" type="curve"/>
      <point x="608" y="722"/>
      <point x="576" y="722"/>
      <point x="536" y="722" type="curve"/>
      <point x="536" y="654"/>
      <point x="536" y="722"/>
    </contour>
    <contour>
      <point x="135" y="0" type="curve"/>
      <point x="173" y="0"/>
      <point x="127" y="0"/>
      <point x="242" y="0" type="curve"/>
      <point x="242" y="68"/>
      <point x="242" y="0"/>
      <point x="242" y="68" type="curve"/>
      <point x="127" y="68"/>
      <point x="250" y="68"/>
      <point x="135" y="68" type="curve"/>
      <point x="135" y="0"/>
      <point x="135" y="68"/>
    </contour>
    <contour>
      <point x="622" y="0" type="curve"/>
      <point x="608" y="241"/>
      <point x="592" y="481"/>
      <point x="579" y="722" type="curve"/>
      <point x="501" y="722"/>
      <point x="579" y="722"/>
      <point x="501" y="722" type="curve"/>
      <point x="514" y="481"/>
      <point x="523" y="241"/>
      <point x="536" y="0" type="curve"/>
      <point x="622" y="0"/>
      <point x="536" y="0"/>
    </contour>
    <contour>
      <point x="171" y="0" type="curve"/>
      <point x="183" y="241"/>
      <point x="195" y="481"/>
      <point x="207" y="722" type="curve"/>
      <point x="136" y="722"/>
      <point x="207" y="722"/>
      <point x="136" y="722" type="curve"/>
      <point x="123" y="481"/>
      <point x="111" y="241"/>
      <point x="98" y="0" type="curve"/>
      <point x="171" y="0"/>
      <point x="98" y="0"/>
    </contour>
    <contour>
      <point x="388" y="0" type="curve"/>
      <point x="328" y="241"/>
      <point x="268" y="481"/>
      <point x="208" y="722" type="curve"/>
      <point x="137" y="722"/>
      <point x="209" y="722"/>
      <point x="137" y="722" type="curve"/>
      <point x="197" y="481"/>
      <point x="256" y="241"/>
      <point x="315" y="0" type="curve"/>
      <point x="388" y="0"/>
      <point x="315" y="0"/>
    </contour>
    <contour>
      <point x="394" y="0" type="curve"/>
      <point x="453" y="241"/>
      <point x="511" y="481"/>
      <point x="569" y="722" type="curve"/>
      <point x="498" y="722"/>
      <point x="569" y="722"/>
      <point x="498" y="722" type="curve"/>
      <point x="439" y="481"/>
      <point x="380" y="241"/>
      <point x="321" y="0" type="curve"/>
      <point x="394" y="0"/>
      <point x="321" y="0"/>
    </contour>
  </outline>
</glyph>
<glyph name="N" format="1">
  <advance width="645"/>
  <unicode hex="004E"/>
  <outline>
    <contour>
      <point x="156" y="722" type="curve"/>
      <point x="114" y="722"/>
      <point x="80" y="722"/>
      <point x="39" y="722" type="curve"/>
      <point x="39" y="654"/>
      <point x="39" y="722"/>
      <point x="39" y="654" type="curve"/>
      <point x="165" y="654"/>
      <point x="31" y="654"/>
      <point x="156" y="654" type="curve"/>
      <point x="156" y="722"/>
      <point x="156" y="654"/>
    </contour>
    <contour>
      <point x="501" y="654" type="curve"/>
      <point x="626" y="654"/>
      <point x="493" y="654"/>
      <point x="617" y="654" type="curve"/>
      <point x="617" y="722"/>
      <point x="617" y="654"/>
      <point x="617" y="722" type="curve"/>
      <point x="575" y="722"/>
      <point x="542" y="722"/>
      <point x="501" y="722" type="curve"/>
      <point x="501" y="654"/>
      <point x="501" y="722"/>
    </contour>
    <contour>
      <point x="500" y="722" type="curve"/>
      <point x="459" y="722"/>
      <point x="426" y="722"/>
      <point x="386" y="722" type="curve"/>
      <point x="386" y="654"/>
      <point x="386" y="722"/>
      <point x="386" y="654" type="curve"/>
      <point x="508" y="654"/>
      <point x="378" y="654"/>
      <point x="500" y="654" type="curve"/>
      <point x="500" y="722"/>
      <point x="500" y="654"/>
    </contour>
    <contour>
      <point x="155" y="68" type="curve"/>
      <point x="30" y="68"/>
      <point x="164" y="68"/>
      <point x="39" y="68" type="curve"/>
      <point x="38" y="0"/>
      <point x="39" y="68"/>
      <point x="38" y="0" type="curve"/>
      <point x="79" y="0"/>
      <point x="113" y="0"/>
      <point x="155" y="0" type="curve"/>
      <point x="155" y="68"/>
      <point x="155" y="0"/>
    </contour>
    <contour>
      <point x="155" y="0" type="curve"/>
      <point x="195" y="0"/>
      <point x="147" y="0"/>
      <point x="268" y="0" type="curve"/>
      <point x="268" y="68"/>
      <point x="268" y="0"/>
      <point x="268" y="68" type="curve"/>
      <point x="147" y="68"/>
      <point x="277" y="68"/>
      <point x="155" y="68" type="curve"/>
      <point x="155" y="0"/>
      <point x="155" y="68"/>
    </contour>
    <contour>
      <point x="542" y="0" type="curve"/>
      <point x="428" y="241"/>
      <point x="314" y="481"/>
      <point x="200" y="722" type="curve"/>
      <point x="112" y="722"/>
      <point x="201" y="722"/>
      <point x="113" y="722" type="curve"/>
      <point x="226" y="481"/>
      <point x="341" y="241"/>
      <point x="455" y="0" type="curve"/>
      <point x="543" y="0"/>
      <point x="454" y="0"/>
    </contour>
    <contour>
      <point x="455" y="722" type="curve"/>
      <point x="455" y="481"/>
      <point x="455" y="241"/>
      <point x="455" y="0" type="curve"/>
      <point x="541" y="0"/>
      <point x="455" y="0"/>
      <point x="541" y="0" type="curve"/>
      <point x="541" y="241"/>
      <point x="541" y="481"/>
      <point x="541" y="722" type="curve"/>
      <point x="455" y="722"/>
      <point x="541" y="722"/>
    </contour>
    <contour>
      <point x="198" y="0" type="curve"/>
      <point x="198" y="241"/>
      <point x="198" y="481"/>
      <point x="198" y="722" type="curve"/>
      <point x="112" y="722"/>
      <point x="198" y="722"/>
      <point x="112" y="722" type="curve"/>
      <point x="112" y="481"/>
      <point x="112" y="241"/>
      <point x="112" y="0" type="curve"/>
      <point x="198" y="0"/>
      <point x="112" y="0"/>
    </contour>
    <contour>
      <point x="332" y="801" type="move" name="top"/>
    </contour>
    <contour>
      <point x="364" y="-44" type="move" name="bottom"/>
    </contour>
  </outline>
</glyph>
<glyph name="O" format="1">
  <advance width="566"/>
  <unicode hex="004F"/>
  <outline>
    <contour>
      <point x="142" y="360" type="curve"/>
      <point x="142" y="513"/>
      <point x="152" y="656"/>
      <point x="281" y="656" type="curve"/>
      <point x="407" y="656"/>
      <point x="425" y="516"/>
      <point x="425" y="363" type="curve"/>
      <point x="425" y="211"/>
      <point x="413" y="67"/>
      <point x="285" y="67" type="curve"/>
      <point x="157" y="67"/>
      <point x="142" y="206"/>
      <point x="142" y="360" type="curve"/>
      <point x="55" y="360"/>
      <point x="142" y="360"/>
      <point x="55" y="360" type="curve"/>
      <point x="55" y="161"/>
      <point x="109" y="-5"/>
      <point x="282" y="-5" type="curve"/>
      <point x="456" y="-5"/>
      <point x="511" y="163"/>
      <point x="511" y="363" type="curve"/>
      <point x="511" y="560"/>
      <point x="458" y="727"/>
      <point x="285" y="727" type="curve"/>
      <point x="111" y="727"/>
      <point x="55" y="559"/>
      <point x="55" y="360" type="curve"/>
      <point x="142" y="360"/>
      <point x="55" y="360"/>
    </contour>
    <contour>
      <point x="283" y="801" type="move" name="top"/>
    </contour>
  </outline>
</glyph>
<glyph name="P" format="1">
  <advance width="486"/>
  <unicode hex="0050"/>
  <outline>
    <contour>
      <point x="170" y="722" type="curve"/>
      <point x="127" y="722"/>
      <point x="94" y="722"/>
      <point x="51" y="722" type="curve"/>
      <point x="51" y="654"/>
      <point x="51" y="722"/>
      <point x="51" y="654" type="curve"/>
      <point x="181" y="654"/>
      <point x="40" y="654"/>
      <point x="170" y="654" type="curve"/>
      <point x="170" y="722"/>
      <point x="170" y="654"/>
    </contour>
    <contour>
      <point x="170" y="68" type="curve"/>
      <point x="40" y="68"/>
      <point x="181" y="68"/>
      <point x="51" y="68" type="curve"/>
      <point x="51" y="0"/>
      <point x="51" y="68"/>
      <point x="51" y="0" type="curve"/>
      <point x="94" y="0"/>
      <point x="127" y="0"/>
      <point x="170" y="0" type="curve"/>
      <point x="170" y="68"/>
      <point x="170" y="0"/>
    </contour>
    <contour>
      <point x="170" y="0" type="curve"/>
      <point x="213" y="0"/>
      <point x="159" y="0"/>
      <point x="290" y="0" type="curve"/>
      <point x="290" y="68"/>
      <point x="290" y="0"/>
      <point x="290" y="68" type="curve"/>
      <point x="159" y="68"/>
      <point x="301" y="68"/>
      <point x="170" y="68" type="curve"/>
      <point x="170" y="0"/>
      <point x="170" y="68"/>
    </contour>
    <contour>
      <point x="157" y="311" type="curve"/>
      <point x="194" y="284"/>
      <point x="234" y="266"/>
      <point x="283" y="266" type="curve"/>
      <point x="389" y="268"/>
      <point x="443" y="356"/>
      <point x="443" y="483" type="curve"/>
      <point x="443" y="616"/>
      <point x="381" y="722"/>
      <point x="258" y="722" type="curve"/>
      <point x="229" y="722"/>
      <point x="200" y="722"/>
      <point x="172" y="722" type="curve"/>
      <point x="172" y="654"/>
      <point x="172" y="722"/>
      <point x="172" y="654" type="curve"/>
      <point x="197" y="654"/>
      <point x="222" y="654"/>
      <point x="247" y="654" type="curve"/>
      <point x="326" y="654"/>
      <point x="357" y="575"/>
      <point x="357" y="486" type="curve"/>
      <point x="357" y="404"/>
      <point x="339" y="332"/>
      <point x="273" y="332" type="curve"/>
      <point x="236" y="332"/>
      <point x="214" y="346"/>
      <point x="185" y="369" type="curve"/>
      <point x="158" y="314"/>
      <point x="185" y="368"/>
    </contour>
    <contour>
      <point x="212" y="0" type="curve"/>
      <point x="212" y="241"/>
      <point x="212" y="481"/>
      <point x="212" y="722" type="curve"/>
      <point x="126" y="722"/>
      <point x="212" y="722"/>
      <point x="126" y="722" type="curve"/>
      <point x="126" y="481"/>
      <point x="126" y="241"/>
      <point x="126" y="0" type="curve"/>
      <point x="212" y="0"/>
      <point x="126" y="0"/>
    </contour>
  </outline>
</glyph>
<glyph name="Q" format="1">
  <advance width="547"/>
  <unicode hex="0051"/>
  <outline>
    <contour>
      <point x="252" y="16" type="curve"/>
      <point x="308" y="-140"/>
      <point x="390" y="-225"/>
      <point x="543" y="-225" type="curve"/>
      <point x="543" y="-153"/>
      <point x="543" y="-225"/>
      <point x="543" y="-153" type="curve"/>
      <point x="424" y="-153"/>
      <point x="370" y="-74"/>
      <point x="326" y="50" type="curve"/>
      <point x="252" y="16"/>
      <point x="326" y="50"/>
    </contour>
    <contour>
      <point x="141" y="360" type="curve"/>
      <point x="141" y="512"/>
      <point x="154" y="652"/>
      <point x="280" y="652" type="curve"/>
      <point x="407" y="652"/>
      <point x="426" y="514"/>
      <point x="426" y="361" type="curve"/>
      <point x="426" y="209"/>
      <point x="414" y="67"/>
      <point x="287" y="67" type="curve"/>
      <point x="158" y="67"/>
      <point x="141" y="206"/>
      <point x="141" y="360" type="curve"/>
      <point x="55" y="360"/>
      <point x="141" y="360"/>
      <point x="55" y="360" type="curve"/>
      <point x="55" y="161"/>
      <point x="110" y="-5"/>
      <point x="283" y="-5" type="curve"/>
      <point x="458" y="-5"/>
      <point x="512" y="164"/>
      <point x="512" y="365" type="curve"/>
      <point x="512" y="563"/>
      <point x="460" y="730"/>
      <point x="288" y="730" type="curve"/>
      <point x="112" y="730"/>
      <point x="55" y="560"/>
      <point x="55" y="360" type="curve"/>
      <point x="141" y="360"/>
      <point x="55" y="360"/>
    </contour>
  </outline>
</glyph>
<glyph name="R" format="1">
  <advance width="572"/>
  <unicode hex="0052"/>
  <outline>
    <contour>
      <point x="464" y="0" type="curve"/>
      <point x="498" y="0"/>
      <point x="520" y="0"/>
      <point x="556" y="0" type="curve"/>
      <point x="556" y="68"/>
      <point x="556" y="0"/>
      <point x="556" y="68" type="curve"/>
      <point x="453" y="68"/>
      <point x="566" y="68"/>
      <point x="464" y="68" type="curve"/>
      <point x="464" y="0"/>
      <point x="464" y="68"/>
    </contour>
    <contour>
      <point x="168" y="722" type="curve"/>
      <point x="125" y="722"/>
      <point x="92" y="722"/>
      <point x="50" y="722" type="curve"/>
      <point x="50" y="654"/>
      <point x="50" y="722"/>
      <point x="50" y="654" type="curve"/>
      <point x="178" y="654"/>
      <point x="39" y="654"/>
      <point x="168" y="654" type="curve"/>
      <point x="168" y="722"/>
      <point x="168" y="654"/>
    </contour>
    <contour>
      <point x="168" y="68" type="curve"/>
      <point x="39" y="68"/>
      <point x="178" y="68"/>
      <point x="50" y="68" type="curve"/>
      <point x="50" y="0"/>
      <point x="50" y="68"/>
      <point x="50" y="0" type="curve"/>
      <point x="92" y="0"/>
      <point x="125" y="0"/>
      <point x="168" y="0" type="curve"/>
      <point x="168" y="68"/>
      <point x="168" y="0"/>
    </contour>
    <contour>
      <point x="168" y="0" type="curve"/>
      <point x="210" y="0"/>
      <point x="157" y="0"/>
      <point x="284" y="0" type="curve"/>
      <point x="284" y="68"/>
      <point x="284" y="0"/>
      <point x="284" y="68" type="curve"/>
      <point x="157" y="68"/>
      <point x="295" y="68"/>
      <point x="168" y="68" type="curve"/>
      <point x="168" y="0"/>
      <point x="168" y="68"/>
    </contour>
    <contour>
      <point x="256" y="354" type="curve"/>
      <point x="319" y="228"/>
      <point x="361" y="126"/>
      <point x="423" y="0" type="curve"/>
      <point x="514" y="0"/>
      <point x="421" y="-3"/>
      <point x="512" y="-3" type="curve"/>
      <point x="450" y="124"/>
      <point x="407" y="227"/>
      <point x="343" y="354" type="curve"/>
      <point x="255" y="354"/>
      <point x="344" y="354"/>
    </contour>
    <contour>
      <point x="211" y="0" type="curve"/>
      <point x="211" y="241"/>
      <point x="211" y="481"/>
      <point x="211" y="722" type="curve"/>
      <point x="125" y="722"/>
      <point x="211" y="722"/>
      <point x="125" y="722" type="curve"/>
      <point x="125" y="481"/>
      <point x="125" y="241"/>
      <point x="125" y="0" type="curve"/>
      <point x="211" y="0"/>
      <point x="125" y="0"/>
    </contour>
    <contour>
      <point x="170" y="317" type="curve"/>
      <point x="209" y="317"/>
      <point x="247" y="317"/>
      <point x="286" y="317" type="curve"/>
      <point x="398" y="317"/>
      <point x="453" y="402"/>
      <point x="453" y="528" type="curve"/>
      <point x="453" y="644"/>
      <point x="396" y="722"/>
      <point x="284" y="722" type="curve"/>
      <point x="244" y="722"/>
      <point x="210" y="722"/>
      <point x="170" y="722" type="curve"/>
      <point x="170" y="654"/>
      <point x="170" y="722"/>
      <point x="170" y="654" type="curve"/>
      <point x="205" y="654"/>
      <point x="234" y="654"/>
      <point x="269" y="654" type="curve"/>
      <point x="338" y="654"/>
      <point x="367" y="596"/>
      <point x="367" y="521" type="curve"/>
      <point x="367" y="447"/>
      <point x="348" y="386"/>
      <point x="283" y="386" type="curve"/>
      <point x="245" y="386"/>
      <point x="207" y="386"/>
      <point x="170" y="386" type="curve"/>
      <point x="170" y="317"/>
      <point x="170" y="386"/>
    </contour>
    <contour>
      <point x="250" y="801" type="move" name="top"/>
    </contour>
    <contour>
      <point x="348" y="-44" type="move" name="bottom"/>
    </contour>
  </outline>
</glyph>
<glyph name="T" format="1">
  <advance width="461"/>
  <unicode hex="0054"/>
  <outline>
    <contour>
      <point x="33" y="687" type="curve"/>
      <point x="33" y="567"/>
      <point x="33" y="693"/>
      <point x="33" y="573" type="curve"/>
      <point x="102" y="573"/>
      <point x="33" y="573"/>
      <point x="102" y="573" type="curve"/>
      <point x="102" y="693"/>
      <point x="102" y="567"/>
      <point x="102" y="687" type="curve"/>
      <point x="33" y="687"/>
      <point x="102" y="687"/>
    </contour>
    <contour>
      <point x="359" y="687" type="curve"/>
      <point x="359" y="567"/>
      <point x="359" y="693"/>
      <point x="359" y="573" type="curve"/>
      <point x="428" y="573"/>
      <point x="359" y="573"/>
      <point x="428" y="573" type="curve"/>
      <point x="428" y="693"/>
      <point x="428" y="567"/>
      <point x="428" y="687" type="curve"/>
      <point x="359" y="687"/>
      <point x="428" y="687"/>
    </contour>
    <contour>
      <point x="230" y="0" type="curve"/>
      <point x="271" y="0"/>
      <point x="308" y="0"/>
      <point x="350" y="0" type="curve"/>
      <point x="350" y="68"/>
      <point x="350" y="0"/>
      <point x="350" y="68" type="curve"/>
      <point x="225" y="68"/>
      <point x="354" y="68"/>
      <point x="230" y="68" type="curve"/>
      <point x="230" y="0"/>
      <point x="230" y="68"/>
    </contour>
    <contour>
      <point x="230" y="68" type="curve"/>
      <point x="105" y="68"/>
      <point x="235" y="68"/>
      <point x="110" y="68" type="curve"/>
      <point x="110" y="0"/>
      <point x="110" y="68"/>
      <point x="110" y="0" type="curve"/>
      <point x="151" y="0"/>
      <point x="189" y="0"/>
      <point x="230" y="0" type="curve"/>
      <point x="230" y="68"/>
      <point x="230" y="0"/>
    </contour>
    <contour>
      <point x="273" y="0" type="curve"/>
      <point x="273" y="237"/>
      <point x="273" y="473"/>
      <point x="273" y="710" type="curve"/>
      <point x="188" y="710"/>
      <point x="273" y="710"/>
      <point x="188" y="710" type="curve"/>
      <point x="187" y="473"/>
      <point x="188" y="237"/>
      <point x="188" y="0" type="curve"/>
      <point x="273" y="0"/>
      <point x="188" y="0"/>
    </contour>
    <contour>
      <point x="33" y="649" type="curve"/>
      <point x="164" y="649"/>
      <point x="297" y="649"/>
      <point x="428" y="649" type="curve"/>
      <point x="428" y="725"/>
      <point x="428" y="646"/>
      <point x="428" y="722" type="curve"/>
      <point x="297" y="722"/>
      <point x="164" y="722"/>
      <point x="33" y="722" type="curve"/>
      <point x="33" y="646"/>
      <point x="33" y="725"/>
    </contour>
    <contour>
      <point x="231" y="801" type="move" name="top"/>
    </contour>
    <contour>
      <point x="265" y="-43" type="move" name="bottom"/>
    </contour>
  </outline>
</glyph>
<glyph name="U" format="1">
  <advance width="618"/>
  <unicode hex="0055"/>
  <outline>
    <contour>
      <point x="469" y="654" type="curve"/>
      <point x="592" y="654"/>
      <point x="464" y="654"/>
      <point x="587" y="654" type="curve"/>
      <point x="587" y="722"/>
      <point x="587" y="654"/>
      <point x="587" y="722" type="curve"/>
      <point x="547" y="722"/>
      <point x="510" y="722"/>
      <point x="469" y="722" type="curve"/>
      <point x="469" y="654"/>
      <point x="469" y="722"/>
    </contour>
    <contour>
      <point x="469" y="722" type="curve"/>
      <point x="428" y="722"/>
      <point x="392" y="722"/>
      <point x="351" y="722" type="curve"/>
      <point x="351" y="654"/>
      <point x="351" y="722"/>
      <point x="351" y="654" type="curve"/>
      <point x="474" y="654"/>
      <point x="347" y="654"/>
      <point x="469" y="654" type="curve"/>
      <point x="469" y="722"/>
      <point x="469" y="654"/>
    </contour>
    <contour>
      <point x="150" y="722" type="curve"/>
      <point x="110" y="722"/>
      <point x="73" y="722"/>
      <point x="33" y="722" type="curve"/>
      <point x="33" y="654"/>
      <point x="33" y="722"/>
      <point x="33" y="654" type="curve"/>
      <point x="155" y="654"/>
      <point x="28" y="654"/>
      <point x="150" y="654" type="curve"/>
      <point x="150" y="722"/>
      <point x="150" y="654"/>
    </contour>
    <contour>
      <point x="150" y="654" type="curve"/>
      <point x="272" y="654"/>
      <point x="145" y="654"/>
      <point x="268" y="654" type="curve"/>
      <point x="268" y="722"/>
      <point x="268" y="654"/>
      <point x="268" y="722" type="curve"/>
      <point x="227" y="722"/>
      <point x="191" y="722"/>
      <point x="150" y="722" type="curve"/>
      <point x="150" y="654"/>
      <point x="150" y="722"/>
    </contour>
    <contour>
      <point x="109" y="697" type="curve"/>
      <point x="109" y="557"/>
      <point x="109" y="411"/>
      <point x="109" y="271" type="curve"/>
      <point x="109" y="105"/>
      <point x="156" y="-5"/>
      <point x="307" y="-5" type="curve"/>
      <point x="459" y="-5"/>
      <point x="508" y="106"/>
      <point x="508" y="274" type="curve"/>
      <point x="508" y="412"/>
      <point x="508" y="559"/>
      <point x="508" y="697" type="curve"/>
      <point x="429" y="697"/>
      <point x="509" y="697"/>
      <point x="430" y="697" type="curve"/>
      <point x="430" y="554"/>
      <point x="430" y="407"/>
      <point x="430" y="264" type="curve"/>
      <point x="430" y="154"/>
      <point x="405" y="71"/>
      <point x="313" y="71" type="curve"/>
      <point x="207" y="71"/>
      <point x="188" y="161"/>
      <point x="188" y="285" type="curve"/>
      <point x="188" y="420"/>
      <point x="188" y="563"/>
      <point x="188" y="697" type="curve"/>
      <point x="109" y="697"/>
      <point x="188" y="697"/>
    </contour>
    <contour>
      <point x="312" y="801" type="move" name="top"/>
    </contour>
    <contour>
      <point x="342" y="-40" type="move" name="bottom"/>
    </contour>
  </outline>
</glyph>
<glyph name="W" format="1">
  <advance width="698"/>
  <unicode hex="0057"/>
  <outline>
    <contour>
      <point x="115" y="654" type="curve"/>
      <point x="222" y="654"/>
      <point x="110" y="654"/>
      <point x="217" y="654" type="curve"/>
      <point x="217" y="722"/>
      <point x="217" y="654"/>
      <point x="217" y="722" type="curve"/>
      <point x="182" y="722"/>
      <point x="151" y="722"/>
      <point x="115" y="722" type="curve"/>
      <point x="115" y="654"/>
      <point x="115" y="722"/>
    </contour>
    <contour>
      <point x="109" y="722" type="curve"/>
      <point x="72" y="722"/>
      <point x="39" y="722"/>
      <point x="2" y="722" type="curve"/>
      <point x="2" y="654"/>
      <point x="2" y="722"/>
      <point x="2" y="654" type="curve"/>
      <point x="114" y="654"/>
      <point x="-3" y="654"/>
      <point x="109" y="654" type="curve"/>
      <point x="109" y="722"/>
      <point x="109" y="654"/>
    </contour>
    <contour>
      <point x="578" y="722" type="curve"/>
      <point x="543" y="722"/>
      <point x="512" y="722"/>
      <point x="477" y="722" type="curve"/>
      <point x="477" y="654"/>
      <point x="477" y="722"/>
      <point x="477" y="654" type="curve"/>
      <point x="583" y="654"/>
      <point x="472" y="654"/>
      <point x="578" y="654" type="curve"/>
      <point x="578" y="722"/>
      <point x="578" y="654"/>
    </contour>
    <contour>
      <point x="581" y="654" type="curve"/>
      <point x="693" y="654"/>
      <point x="577" y="654"/>
      <point x="688" y="654" type="curve"/>
      <point x="688" y="722"/>
      <point x="688" y="654"/>
      <point x="688" y="722" type="curve"/>
      <point x="652" y="722"/>
      <point x="619" y="722"/>
      <point x="581" y="722" type="curve"/>
      <point x="581" y="654"/>
      <point x="581" y="722"/>
    </contour>
    <contour>
      <point x="254" y="0" type="curve"/>
      <point x="297" y="241"/>
      <point x="340" y="481"/>
      <point x="382" y="722" type="curve"/>
      <point x="311" y="722"/>
      <point x="382" y="722"/>
      <point x="311" y="722" type="curve"/>
      <point x="271" y="482"/>
      <point x="232" y="242"/>
      <point x="192" y="0" type="curve"/>
      <point x="259" y="0"/>
      <point x="187" y="0"/>
    </contour>
    <contour>
      <point x="315" y="722" type="curve"/>
      <point x="354" y="481"/>
      <point x="392" y="241"/>
      <point x="432" y="0" type="curve"/>
      <point x="499" y="0"/>
      <point x="424" y="0"/>
      <point x="491" y="0" type="curve"/>
      <point x="456" y="243"/>
      <point x="422" y="481"/>
      <point x="387" y="722" type="curve"/>
      <point x="315" y="722"/>
      <point x="387" y="722"/>
    </contour>
    <contour>
      <point x="66" y="722" type="curve"/>
      <point x="105" y="481"/>
      <point x="144" y="241"/>
      <point x="183" y="0" type="curve"/>
      <point x="251" y="0"/>
      <point x="184" y="0"/>
      <point x="251" y="0" type="curve"/>
      <point x="214" y="241"/>
      <point x="176" y="481"/>
      <point x="140" y="722" type="curve"/>
      <point x="66" y="722"/>
      <point x="140" y="722"/>
    </contour>
    <contour>
      <point x="551" y="722" type="curve"/>
      <point x="512" y="481"/>
      <point x="473" y="241"/>
      <point x="434" y="0" type="curve"/>
      <point x="501" y="0"/>
      <point x="435" y="0"/>
      <point x="503" y="0" type="curve"/>
      <point x="543" y="241"/>
      <point x="584" y="481"/>
      <point x="625" y="722" type="curve"/>
      <point x="551" y="722"/>
      <point x="625" y="722"/>
    </contour>
  </outline>
</glyph>
<glyph name="X" format="1">
  <advance width="534"/>
  <unicode hex="0058"/>
  <outline>
    <contour>
      <point x="126" y="0" type="curve"/>
      <point x="164" y="0"/>
      <point x="121" y="0"/>
      <point x="236" y="0" type="curve"/>
      <point x="236" y="68"/>
      <point x="236" y="0"/>
      <point x="236" y="68" type="curve"/>
      <point x="121" y="68"/>
      <point x="241" y="68"/>
      <point x="126" y="68" type="curve"/>
      <point x="126" y="0"/>
      <point x="126" y="68"/>
    </contour>
    <contour>
      <point x="113" y="68" type="curve"/>
      <point x="2" y="68"/>
      <point x="118" y="68"/>
      <point x="7" y="68" type="curve"/>
      <point x="7" y="0"/>
      <point x="7" y="68"/>
      <point x="7" y="0" type="curve"/>
      <point x="43" y="0"/>
      <point x="77" y="0"/>
      <point x="113" y="0" type="curve"/>
      <point x="113" y="68"/>
      <point x="113" y="0"/>
    </contour>
    <contour>
      <point x="417" y="0" type="curve"/>
      <point x="454" y="0"/>
      <point x="487" y="0"/>
      <point x="524" y="0" type="curve"/>
      <point x="524" y="68"/>
      <point x="524" y="0"/>
      <point x="524" y="68" type="curve"/>
      <point x="413" y="68"/>
      <point x="528" y="68"/>
      <point x="417" y="68" type="curve"/>
      <point x="417" y="0"/>
      <point x="417" y="68"/>
    </contour>
    <contour>
      <point x="405" y="68" type="curve"/>
      <point x="290" y="68"/>
      <point x="410" y="68"/>
      <point x="295" y="68" type="curve"/>
      <point x="295" y="0"/>
      <point x="295" y="68"/>
      <point x="295" y="0" type="curve"/>
      <point x="333" y="0"/>
      <point x="367" y="0"/>
      <point x="405" y="0" type="curve"/>
      <point x="405" y="68"/>
      <point x="405" y="0"/>
    </contour>
    <contour>
      <point x="405" y="654" type="curve"/>
      <point x="516" y="654"/>
      <point x="400" y="654"/>
      <point x="511" y="654" type="curve"/>
      <point x="511" y="722"/>
      <point x="511" y="654"/>
      <point x="511" y="722" type="curve"/>
      <point x="474" y="722"/>
      <point x="441" y="722"/>
      <point x="405" y="722" type="curve"/>
      <point x="405" y="654"/>
      <point x="405" y="722"/>
    </contour>
    <contour>
      <point x="414" y="722" type="curve"/>
      <point x="373" y="722"/>
      <point x="337" y="722"/>
      <point x="296" y="722" type="curve"/>
      <point x="296" y="654"/>
      <point x="296" y="722"/>
      <point x="296" y="654" type="curve"/>
      <point x="419" y="654"/>
      <point x="292" y="654"/>
      <point x="414" y="654" type="curve"/>
      <point x="414" y="722"/>
      <point x="414" y="654"/>
    </contour>
    <contour>
      <point x="128" y="722" type="curve"/>
      <point x="92" y="722"/>
      <point x="59" y="722"/>
      <point x="22" y="722" type="curve"/>
      <point x="22" y="654"/>
      <point x="22" y="722"/>
      <point x="22" y="654" type="curve"/>
      <point x="133" y="654"/>
      <point x="17" y="654"/>
      <point x="128" y="654" type="curve"/>
      <point x="128" y="722"/>
      <point x="128" y="654"/>
    </contour>
    <contour>
      <point x="119" y="654" type="curve"/>
      <point x="241" y="654"/>
      <point x="114" y="654"/>
      <point x="237" y="654" type="curve"/>
      <point x="237" y="722"/>
      <point x="237" y="654"/>
      <point x="237" y="722" type="curve"/>
      <point x="196" y="722"/>
      <point x="160" y="722"/>
      <point x="119" y="722" type="curve"/>
      <point x="119" y="654"/>
      <point x="119" y="722"/>
    </contour>
    <contour>
      <point x="378" y="722" type="curve"/>
      <point x="270" y="480"/>
      <point x="163" y="238"/>
      <point x="56" y="-4" type="curve"/>
      <point x="144" y="-4"/>
      <point x="56" y="0"/>
      <point x="144" y="0" type="curve"/>
      <point x="250" y="242"/>
      <point x="356" y="483"/>
      <point x="463" y="725" type="curve"/>
      <point x="378" y="725"/>
      <point x="463" y="722"/>
    </contour>
    <contour>
      <point x="72" y="726" type="curve"/>
      <point x="177" y="483"/>
      <point x="283" y="242"/>
      <point x="389" y="0" type="curve"/>
      <point x="475" y="0"/>
      <point x="389" y="-3"/>
      <point x="475" y="-3" type="curve"/>
      <point x="369" y="239"/>
      <point x="264" y="480"/>
      <point x="158" y="722" type="curve"/>
      <point x="72" y="722"/>
      <point x="158" y="726"/>
    </contour>
  </outline>
</glyph>
<glyph name="Y" format="1">
  <advance width="519"/>
  <unicode hex="0059"/>
  <outline>
    <contour>
      <point x="250" y="68" type="curve"/>
      <point x="126" y="68"/>
      <point x="255" y="68"/>
      <point x="131" y="68" type="curve"/>
      <point x="131" y="0"/>
      <point x="131" y="68"/>
      <point x="131" y="0" type="curve"/>
      <point x="171" y="0"/>
      <point x="208" y="0"/>
      <point x="250" y="0" type="curve"/>
      <point x="250" y="68"/>
      <point x="250" y="0"/>
    </contour>
    <contour>
      <point x="250" y="0" type="curve"/>
      <point x="291" y="0"/>
      <point x="328" y="0"/>
      <point x="369" y="0" type="curve"/>
      <point x="369" y="68"/>
      <point x="369" y="0"/>
      <point x="369" y="68" type="curve"/>
      <point x="245" y="68"/>
      <point x="374" y="68"/>
      <point x="250" y="68" type="curve"/>
      <point x="250" y="0"/>
      <point x="250" y="68"/>
    </contour>
    <contour>
      <point x="394" y="722" type="curve"/>
      <point x="355" y="722"/>
      <point x="320" y="722"/>
      <point x="281" y="722" type="curve"/>
      <point x="281" y="654"/>
      <point x="281" y="722"/>
      <point x="281" y="654" type="curve"/>
      <point x="399" y="654"/>
      <point x="276" y="654"/>
      <point x="394" y="654" type="curve"/>
      <point x="394" y="722"/>
      <point x="394" y="654"/>
    </contour>
    <contour>
      <point x="102" y="722" type="curve"/>
      <point x="68" y="722"/>
      <point x="37" y="722"/>
      <point x="4" y="722" type="curve"/>
      <point x="3" y="654"/>
      <point x="4" y="722"/>
      <point x="3" y="654" type="curve"/>
      <point x="106" y="654"/>
      <point x="-2" y="654"/>
      <point x="102" y="654" type="curve"/>
      <point x="102" y="722"/>
      <point x="102" y="654"/>
    </contour>
    <contour>
      <point x="114" y="654" type="curve"/>
      <point x="232" y="654"/>
      <point x="109" y="654"/>
      <point x="227" y="654" type="curve"/>
      <point x="227" y="722"/>
      <point x="227" y="654"/>
      <point x="227" y="722" type="curve"/>
      <point x="188" y="722"/>
      <point x="153" y="722"/>
      <point x="114" y="722" type="curve"/>
      <point x="114" y="654"/>
      <point x="114" y="722"/>
    </contour>
    <contour>
      <point x="406" y="654" type="curve"/>
      <point x="514" y="654"/>
      <point x="401" y="654"/>
      <point x="509" y="654" type="curve"/>
      <point x="509" y="722"/>
      <point x="509" y="654"/>
      <point x="509" y="722" type="curve"/>
      <point x="474" y="722"/>
      <point x="442" y="722"/>
      <point x="406" y="722" type="curve"/>
      <point x="406" y="654"/>
      <point x="406" y="722"/>
    </contour>
    <contour>
      <point x="53" y="725" type="curve"/>
      <point x="104" y="596"/>
      <point x="153" y="469"/>
      <point x="202" y="337" type="curve"/>
      <point x="290" y="337"/>
      <point x="189" y="337"/>
      <point x="277" y="337" type="curve"/>
      <point x="233" y="468"/>
      <point x="190" y="592"/>
      <point x="144" y="722" type="curve"/>
      <point x="53" y="722"/>
      <point x="144" y="725"/>
    </contour>
    <contour>
      <point x="364" y="722" type="curve"/>
      <point x="313" y="591"/>
      <point x="268" y="467"/>
      <point x="216" y="337" type="curve"/>
      <point x="304" y="337"/>
      <point x="209" y="337"/>
      <point x="297" y="337" type="curve"/>
      <point x="350" y="468"/>
      <point x="401" y="596"/>
      <point x="455" y="725" type="curve"/>
      <point x="364" y="725"/>
      <point x="455" y="722"/>
    </contour>
    <contour>
      <point x="296" y="0" type="curve"/>
      <point x="296" y="115"/>
      <point x="296" y="225"/>
      <point x="296" y="340" type="curve"/>
      <point x="203" y="340"/>
      <point x="296" y="340"/>
      <point x="203" y="340" type="curve"/>
      <point x="203" y="225"/>
      <point x="203" y="115"/>
      <point x="203" y="0" type="curve"/>
      <point x="296" y="0"/>
      <point x="203" y="0"/>
    </contour>
    <contour>
      <point x="254" y="801" type="move" name="top"/>
    </contour>
  </outline>
</glyph>
<glyph name="Z" format="1">
  <advance width="499"/>
  <unicode hex="005A"/>
  <outline>
    <contour>
      <point x="60" y="688" type="curve"/>
      <point x="60" y="568"/>
      <point x="60" y="693"/>
      <point x="60" y="573" type="curve"/>
      <point x="129" y="573"/>
      <point x="60" y="573"/>
      <point x="129" y="573" type="curve"/>
      <point x="129" y="693"/>
      <point x="129" y="568"/>
      <point x="129" y="688" type="curve"/>
      <point x="60" y="688"/>
      <point x="129" y="688"/>
    </contour>
    <contour>
      <point x="456" y="34" type="curve"/>
      <point x="456" y="154"/>
      <point x="456" y="29"/>
      <point x="456" y="149" type="curve"/>
      <point x="388" y="149"/>
      <point x="456" y="149"/>
      <point x="388" y="149" type="curve"/>
      <point x="388" y="29"/>
      <point x="388" y="154"/>
      <point x="388" y="34" type="curve"/>
      <point x="456" y="34"/>
      <point x="388" y="34"/>
    </contour>
    <contour>
      <point x="60" y="654" type="curve"/>
      <point x="163" y="654"/>
      <point x="295" y="654"/>
      <point x="398" y="654" type="curve"/>
      <point x="391" y="660"/>
      <point x="380" y="660"/>
      <point x="373" y="667" type="curve"/>
      <point x="366" y="672"/>
      <point x="369" y="683"/>
      <point x="362" y="689" type="curve"/>
      <point x="357" y="682"/>
      <point x="348" y="686"/>
      <point x="344" y="678" type="curve"/>
      <point x="35" y="68" type="line"/>
      <point x="35" y="33"/>
      <point x="35" y="68"/>
      <point x="35" y="33" type="curve"/>
      <point x="35" y="0"/>
      <point x="35" y="33"/>
      <point x="35" y="0" type="curve"/>
      <point x="66" y="0"/>
      <point x="35" y="0"/>
      <point x="66" y="0" type="curve"/>
      <point x="436" y="0"/>
      <point x="333" y="0"/>
      <point x="456" y="0" type="curve"/>
      <point x="456" y="68"/>
      <point x="456" y="0"/>
      <point x="456" y="68" type="curve"/>
      <point x="333" y="68"/>
      <point x="189" y="68"/>
      <point x="66" y="68" type="curve"/>
      <point x="72" y="63"/>
      <point x="82" y="63"/>
      <point x="88" y="58" type="curve"/>
      <point x="95" y="52"/>
      <point x="94" y="39"/>
      <point x="101" y="33" type="curve"/>
      <point x="105" y="40"/>
      <point x="114" y="37"/>
      <point x="119" y="44" type="curve"/>
      <point x="432" y="654" type="line"/>
      <point x="432" y="689"/>
      <point x="432" y="654"/>
      <point x="432" y="689" type="curve"/>
      <point x="432" y="722"/>
      <point x="432" y="689"/>
      <point x="432" y="722" type="curve"/>
      <point x="400" y="722"/>
      <point x="432" y="722"/>
      <point x="400" y="722" type="curve"/>
      <point x="296" y="722"/>
      <point x="164" y="722"/>
      <point x="60" y="722" type="curve"/>
      <point x="60" y="654"/>
      <point x="60" y="722"/>
    </contour>
    <contour>
      <point x="251" y="801" type="move" name="top"/>
    </contour>
  </outline>
</glyph>
<glyph name="bracketleft" format="1">
  <advance width="248"/>
  <unicode hex="005B"/>
  <outline>
    <contour>
      <point x="208" y="770" type="curve"/>
      <point x="176" y="770"/>
      <point x="143" y="770"/>
      <point x="111" y="770" type="curve"/>
      <point x="102" y="770"/>
      <point x="80" y="770"/>
      <point x="72" y="770" type="curve"/>
      <point x="72" y="760"/>
      <point x="72" y="748"/>
      <point x="72" y="738" type="curve"/>
      <point x="72" y="463"/>
      <point x="72" y="188"/>
      <point x="72" y="-88" type="curve"/>
      <point x="72" y="-98"/>
      <point x="72" y="-104"/>
      <point x="72" y="-118" type="curve"/>
      <point x="81" y="-118"/>
      <point x="101" y="-118"/>
      <point x="110" y="-118" type="curve"/>
      <point x="142" y="-118"/>
      <point x="175" y="-118"/>
      <point x="208" y="-118" type="curve"/>
      <point x="208" y="-43"/>
      <point x="208" y="-118"/>
      <point x="208" y="-43" type="curve"/>
      <point x="175" y="-43"/>
      <point x="142" y="-43"/>
      <point x="110" y="-43" type="curve"/>
      <point x="158" y="-43"/>
      <point x="110" y="-43"/>
      <point x="158" y="-43" type="curve"/>
      <point x="158" y="-88"/>
      <point x="158" y="-43"/>
      <point x="158" y="-88" type="curve"/>
      <point x="158" y="188"/>
      <point x="158" y="463"/>
      <point x="158" y="738" type="curve"/>
      <point x="158" y="695"/>
      <point x="158" y="738"/>
      <point x="158" y="695" type="curve"/>
      <point x="111" y="695"/>
      <point x="158" y="695"/>
      <point x="111" y="695" type="curve"/>
      <point x="143" y="695"/>
      <point x="176" y="695"/>
      <point x="208" y="695" type="curve"/>
      <point x="208" y="770"/>
      <point x="208" y="695"/>
    </contour>
  </outline>
</glyph>
<glyph name="backslash" format="1">
  <advance width="402"/>
  <unicode hex="005C"/>
  <outline>
    <contour>
      <point x="371" y="-68" type="curve"/>
      <point x="288" y="236"/>
      <point x="204" y="540"/>
      <point x="121" y="844" type="curve"/>
      <point x="31" y="844"/>
      <point x="121" y="844"/>
      <point x="31" y="844" type="curve"/>
      <point x="115" y="540"/>
      <point x="198" y="236"/>
      <point x="281" y="-68" type="curve"/>
      <point x="371" y="-68"/>
      <point x="281" y="-68"/>
    </contour>
  </outline>
</glyph>
<glyph name="bracketright" format="1">
  <advance width="250"/>
  <unicode hex="005D"/>
  <outline>
    <contour>
      <point x="41" y="695" type="curve"/>
      <point x="74" y="695"/>
      <point x="106" y="695"/>
      <point x="139" y="695" type="curve"/>
      <point x="131" y="703"/>
      <point x="119" y="704"/>
      <point x="112" y="712" type="curve"/>
      <point x="105" y="721"/>
      <point x="98" y="730"/>
      <point x="92" y="738" type="curve"/>
      <point x="92" y="463"/>
      <point x="91" y="188"/>
      <point x="92" y="-88" type="curve"/>
      <point x="98" y="-78"/>
      <point x="107" y="-71"/>
      <point x="114" y="-62" type="curve"/>
      <point x="121" y="-54"/>
      <point x="133" y="-52"/>
      <point x="139" y="-43" type="curve"/>
      <point x="107" y="-43"/>
      <point x="74" y="-43"/>
      <point x="41" y="-43" type="curve"/>
      <point x="41" y="-118"/>
      <point x="41" y="-43"/>
      <point x="41" y="-118" type="curve"/>
      <point x="74" y="-118"/>
      <point x="107" y="-118"/>
      <point x="139" y="-118" type="curve"/>
      <point x="178" y="-118"/>
      <point x="139" y="-118"/>
      <point x="178" y="-118" type="curve"/>
      <point x="178" y="-88"/>
      <point x="178" y="-118"/>
      <point x="178" y="-88" type="curve"/>
      <point x="177" y="188"/>
      <point x="178" y="463"/>
      <point x="178" y="738" type="curve"/>
      <point x="178" y="770"/>
      <point x="178" y="738"/>
      <point x="178" y="770" type="curve"/>
      <point x="139" y="770"/>
      <point x="178" y="770"/>
      <point x="139" y="770" type="curve"/>
      <point x="106" y="770"/>
      <point x="74" y="770"/>
      <point x="41" y="770" type="curve"/>
      <point x="41" y="695"/>
      <point x="41" y="770"/>
    </contour>
  </outline>
</glyph>
<glyph name="asciicircum" format="1">
  <advance width="419"/>
  <unicode hex="005E"/>
  <outline>
    <contour>
      <point x="141" y="459" type="curve"/>
      <point x="178" y="567"/>
      <point x="216" y="674"/>
      <point x="253" y="781" type="curve"/>
      <point x="166" y="781"/>
      <point x="253" y="781"/>
      <point x="167" y="781" type="curve"/>
      <point x="129" y="674"/>
      <point x="92" y="567"/>
      <point x="55" y="459" type="curve"/>
      <point x="141" y="459"/>
      <point x="55" y="459"/>
    </contour>
    <contour>
      <point x="364" y="459" type="curve"/>
      <point x="328" y="564"/>
      <point x="289" y="675"/>
      <point x="252" y="781" type="curve"/>
      <point x="166" y="781"/>
      <point x="253" y="781"/>
      <point x="166" y="781" type="curve"/>
      <point x="203" y="675"/>
      <point x="242" y="564"/>
      <point x="278" y="459" type="curve"/>
      <point x="364" y="459"/>
      <point x="278" y="459"/>
    </contour>
  </outline>
</glyph>
<glyph name="grave" format="1">
  <advance width="317"/>
  <unicode hex="0060"/>
  <outline>
    <contour>
      <point x="219" y="595" type="line"/>
      <point x="157" y="761" type="line"/>
      <point x="53" y="761" type="line"/>
      <point x="139" y="595" type="line"/>
    </contour>
    <contour>
      <point x="179" y="595" type="move" name="_top"/>
    </contour>
  </outline>
</glyph>
<glyph name="c" format="1">
  <advance width="413"/>
  <unicode hex="0063"/>
  <outline>
    <contour>
      <point x="289" y="471" type="curve"/>
      <point x="289" y="354"/>
      <point x="289" y="476"/>
      <point x="289" y="360" type="curve"/>
      <point x="358" y="360"/>
      <point x="289" y="360"/>
      <point x="358" y="360" type="curve"/>
      <point x="358" y="476"/>
      <point x="358" y="354"/>
      <point x="358" y="471" type="curve"/>
      <point x="289" y="471"/>
      <point x="358" y="471"/>
    </contour>
    <contour>
      <point x="358" y="471" type="curve"/>
      <point x="326" y="507"/>
      <point x="282" y="538"/>
      <point x="233" y="538" type="curve"/>
      <point x="96" y="538"/>
      <point x="48" y="424"/>
      <point x="48" y="267" type="curve"/>
      <point x="48" y="110"/>
      <point x="94" y="-5"/>
      <point x="231" y="-5" type="curve"/>
      <point x="289" y="-5"/>
      <point x="340" y="30"/>
      <point x="368" y="94" type="curve"/>
      <point x="309" y="132"/>
      <point x="368" y="94"/>
      <point x="309" y="132" type="curve"/>
      <point x="294" y="104"/>
      <point x="269" y="66"/>
      <point x="235" y="66" type="curve"/>
      <point x="146" y="66"/>
      <point x="134" y="158"/>
      <point x="134" y="267" type="curve"/>
      <point x="134" y="376"/>
      <point x="146" y="467"/>
      <point x="232" y="467" type="curve"/>
      <point x="262" y="467"/>
      <point x="288" y="445"/>
      <point x="307" y="423" type="curve"/>
      <point x="358" y="471"/>
      <point x="307" y="423"/>
    </contour>
    <contour>
      <point x="228" y="639" type="move" name="top"/>
    </contour>
    <contour>
      <point x="253" y="0" type="move" name="bottom"/>
    </contour>
  </outline>
</glyph>
<glyph name="d" format="1">
  <advance width="503"/>
  <unicode hex="0064"/>
  <outline>
    <contour>
      <point x="363" y="800" type="curve"/>
      <point x="319" y="800"/>
      <point x="288" y="800"/>
      <point x="244" y="800" type="curve"/>
      <point x="244" y="732"/>
      <point x="244" y="800"/>
      <point x="244" y="732" type="curve"/>
      <point x="374" y="732"/>
      <point x="233" y="732"/>
      <point x="363" y="732" type="curve"/>
      <point x="363" y="800"/>
      <point x="363" y="732"/>
    </contour>
    <contour>
      <point x="364" y="0" type="curve"/>
      <point x="408" y="0"/>
      <point x="440" y="0"/>
      <point x="483" y="0" type="curve"/>
      <point x="483" y="68"/>
      <point x="483" y="0"/>
      <point x="483" y="68" type="curve"/>
      <point x="354" y="68"/>
      <point x="494" y="68"/>
      <point x="364" y="68" type="curve"/>
      <point x="364" y="-1"/>
      <point x="364" y="69"/>
    </contour>
    <contour>
      <point x="367" y="449" type="curve"/>
      <point x="340" y="502"/>
      <point x="291" y="535"/>
      <point x="226" y="535" type="curve"/>
      <point x="94" y="535"/>
      <point x="48" y="406"/>
      <point x="48" y="263" type="curve"/>
      <point x="48" y="123"/>
      <point x="98" y="-2"/>
      <point x="224" y="-2" type="curve"/>
      <point x="295" y="-2"/>
      <point x="342" y="44"/>
      <point x="367" y="117" type="curve"/>
      <point x="336" y="166"/>
      <point x="368" y="117"/>
      <point x="337" y="166" type="curve"/>
      <point x="320" y="111"/>
      <point x="289" y="66"/>
      <point x="240" y="66" type="curve"/>
      <point x="154" y="66"/>
      <point x="134" y="164"/>
      <point x="134" y="267" type="curve"/>
      <point x="134" y="369"/>
      <point x="156" y="467"/>
      <point x="243" y="467" type="curve"/>
      <point x="285" y="467"/>
      <point x="318" y="438"/>
      <point x="336" y="397" type="curve"/>
      <point x="366" y="450"/>
      <point x="336" y="396"/>
    </contour>
    <contour>
      <point x="409" y="0" type="curve"/>
      <point x="409" y="267"/>
      <point x="409" y="533"/>
      <point x="409" y="800" type="curve"/>
      <point x="319" y="800"/>
      <point x="409" y="800"/>
      <point x="319" y="800" type="curve"/>
      <point x="319" y="533"/>
      <point x="319" y="267"/>
      <point x="319" y="0" type="curve"/>
      <point x="409" y="0"/>
      <point x="319" y="0"/>
    </contour>
  </outline>
</glyph>
<glyph name="f" format="1">
  <advance width="340"/>
  <unicode hex="0066"/>
  <outline>
    <contour>
      <point x="256" y="773" type="curve"/>
      <point x="256" y="659"/>
      <point x="256" y="779"/>
      <point x="256" y="664" type="curve"/>
      <point x="325" y="664"/>
      <point x="256" y="664"/>
      <point x="325" y="664" type="curve"/>
      <point x="325" y="779"/>
      <point x="325" y="659"/>
      <point x="325" y="773" type="curve"/>
      <point x="256" y="773"/>
      <point x="325" y="773"/>
    </contour>
    <contour>
      <point x="149" y="-1" type="curve"/>
      <point x="189" y="-1"/>
      <point x="227" y="0"/>
      <point x="267" y="0" type="curve"/>
      <point x="267" y="69"/>
      <point x="267" y="0"/>
      <point x="267" y="69" type="curve"/>
      <point x="147" y="68"/>
      <point x="270" y="69"/>
      <point x="149" y="68" type="curve"/>
      <point x="149" y="-1"/>
      <point x="149" y="68"/>
    </contour>
    <contour>
      <point x="149" y="68" type="curve"/>
      <point x="28" y="69"/>
      <point x="152" y="68"/>
      <point x="31" y="69" type="curve"/>
      <point x="31" y="0"/>
      <point x="31" y="69"/>
      <point x="31" y="0" type="curve"/>
      <point x="71" y="0"/>
      <point x="109" y="-1"/>
      <point x="149" y="-1" type="curve"/>
      <point x="149" y="68"/>
      <point x="149" y="-1"/>
    </contour>
    <contour>
      <point x="29" y="465" type="curve"/>
      <point x="285" y="465" type="line"/>
      <point x="285" y="533"/>
      <point x="285" y="465"/>
      <point x="285" y="533" type="curve"/>
      <point x="29" y="533" type="line"/>
      <point x="29" y="465"/>
      <point x="29" y="533"/>
    </contour>
    <contour>
      <point x="192" y="0" type="curve"/>
      <point x="192" y="621" type="line"/>
      <point x="192" y="682"/>
      <point x="193" y="740"/>
      <point x="242" y="740" type="curve"/>
      <point x="261" y="740"/>
      <point x="276" y="730"/>
      <point x="290" y="719" type="curve"/>
      <point x="325" y="773"/>
      <point x="290" y="719"/>
      <point x="325" y="773" type="curve"/>
      <point x="301" y="792"/>
      <point x="272" y="805"/>
      <point x="242" y="805" type="curve"/>
      <point x="148" y="805"/>
      <point x="105" y="723"/>
      <point x="106" y="621" type="curve"/>
      <point x="106" y="0" type="line"/>
      <point x="192" y="0"/>
      <point x="106" y="0"/>
    </contour>
  </outline>
</glyph>
<glyph name="g" format="1">
  <advance width="417"/>
  <unicode hex="0067"/>
  <outline>
    <contour>
      <point x="301" y="460" type="curve"/>
      <point x="393" y="526" type="line"/>
      <point x="386" y="536"/>
      <point x="363" y="577"/>
      <point x="356" y="587" type="curve"/>
      <point x="253" y="515" type="line"/>
      <point x="301" y="460"/>
      <point x="253" y="515"/>
    </contour>
    <contour>
      <point x="150" y="346" type="curve"/>
      <point x="150" y="408"/>
      <point x="166" y="470"/>
      <point x="219" y="470" type="curve"/>
      <point x="272" y="470"/>
      <point x="285" y="410"/>
      <point x="285" y="347" type="curve"/>
      <point x="285" y="289"/>
      <point x="271" y="231"/>
      <point x="218" y="231" type="curve"/>
      <point x="168" y="231"/>
      <point x="150" y="287"/>
      <point x="150" y="346" type="curve"/>
      <point x="64" y="343"/>
      <point x="150" y="346"/>
      <point x="64" y="343" type="curve"/>
      <point x="64" y="242"/>
      <point x="118" y="163"/>
      <point x="215" y="163" type="curve"/>
      <point x="314" y="163"/>
      <point x="371" y="244"/>
      <point x="371" y="350" type="curve"/>
      <point x="371" y="454"/>
      <point x="317" y="537"/>
      <point x="219" y="537" type="curve"/>
      <point x="117" y="537"/>
      <point x="64" y="451"/>
      <point x="64" y="343" type="curve"/>
      <point x="150" y="346"/>
      <point x="64" y="343"/>
    </contour>
    <contour>
      <point x="134" y="237" type="curve"/>
      <point x="91" y="204"/>
      <point x="67" y="165"/>
      <point x="67" y="110" type="curve"/>
      <point x="67" y="32"/>
      <point x="126" y="-14"/>
      <point x="207" y="-24" type="curve"/>
      <point x="273" y="-32"/>
      <point x="325" y="-65"/>
      <point x="325" y="-131" type="curve"/>
      <point x="325" y="-195"/>
      <point x="280" y="-237"/>
      <point x="216" y="-237" type="curve"/>
      <point x="156" y="-237"/>
      <point x="120" y="-184"/>
      <point x="120" y="-118" type="curve"/>
      <point x="120" y="-66"/>
      <point x="132" y="-19"/>
      <point x="175" y="7" type="curve"/>
      <point x="133" y="49"/>
      <point x="175" y="7"/>
      <point x="133" y="49" type="curve"/>
      <point x="67" y="11"/>
      <point x="34" y="-45"/>
      <point x="34" y="-121" type="curve"/>
      <point x="34" y="-229"/>
      <point x="105" y="-305"/>
      <point x="213" y="-305" type="curve"/>
      <point x="324" y="-305"/>
      <point x="404" y="-233"/>
      <point x="403" y="-124" type="curve"/>
      <point x="403" y="-26"/>
      <point x="325" y="29"/>
      <point x="223" y="41" type="curve"/>
      <point x="181" y="45"/>
      <point x="153" y="74"/>
      <point x="153" y="118" type="curve"/>
      <point x="153" y="148"/>
      <point x="157" y="171"/>
      <point x="180" y="192" type="curve"/>
      <point x="134" y="237"/>
      <point x="180" y="192"/>
    </contour>
    <contour>
      <point x="218" y="639" type="move" name="top"/>
    </contour>
  </outline>
</glyph>
<glyph name="h" format="1">
  <advance width="486"/>
  <unicode hex="0068"/>
  <outline>
    <contour>
      <point x="363" y="-1" type="curve"/>
      <point x="404" y="-1"/>
      <point x="442" y="0"/>
      <point x="482" y="0" type="curve"/>
      <point x="482" y="68"/>
      <point x="482" y="0"/>
      <point x="482" y="68" type="curve"/>
      <point x="361" y="68"/>
      <point x="485" y="68"/>
      <point x="363" y="68" type="curve"/>
      <point x="363" y="-1"/>
      <point x="363" y="68"/>
    </contour>
    <contour>
      <point x="127" y="-1" type="curve"/>
      <point x="160" y="-1"/>
      <point x="125" y="-1"/>
      <point x="226" y="0" type="curve"/>
      <point x="226" y="68"/>
      <point x="226" y="0"/>
      <point x="226" y="68" type="curve"/>
      <point x="125" y="68"/>
      <point x="228" y="68"/>
      <point x="127" y="68" type="curve"/>
      <point x="127" y="-1"/>
      <point x="127" y="68"/>
    </contour>
    <contour>
      <point x="127" y="799" type="curve"/>
      <point x="86" y="799"/>
      <point x="47" y="800"/>
      <point x="7" y="800" type="curve"/>
      <point x="7" y="732"/>
      <point x="7" y="800"/>
      <point x="7" y="732" type="curve"/>
      <point x="129" y="731"/>
      <point x="4" y="732"/>
      <point x="127" y="731" type="curve"/>
      <point x="127" y="799"/>
      <point x="127" y="731"/>
    </contour>
    <contour>
      <point x="127" y="68" type="curve"/>
      <point x="5" y="68"/>
      <point x="129" y="68"/>
      <point x="7" y="68" type="curve"/>
      <point x="7" y="0"/>
      <point x="7" y="68"/>
      <point x="7" y="0" type="curve"/>
      <point x="47" y="0"/>
      <point x="86" y="-1"/>
      <point x="127" y="-1" type="curve"/>
      <point x="127" y="68"/>
      <point x="127" y="-1"/>
    </contour>
    <contour>
      <point x="150" y="328" type="curve"/>
      <point x="162" y="389"/>
      <point x="194" y="467"/>
      <point x="255" y="467" type="curve"/>
      <point x="321" y="467"/>
      <point x="321" y="401"/>
      <point x="321" y="325" type="curve"/>
      <point x="321" y="217"/>
      <point x="321" y="108"/>
      <point x="321" y="0" type="curve"/>
      <point x="407" y="0"/>
      <point x="321" y="0"/>
      <point x="407" y="0" type="curve"/>
      <point x="407" y="110"/>
      <point x="407" y="221"/>
      <point x="407" y="331" type="curve"/>
      <point x="407" y="445"/>
      <point x="386" y="535"/>
      <point x="280" y="535" type="curve"/>
      <point x="198" y="535"/>
      <point x="140" y="451"/>
      <point x="129" y="366" type="curve"/>
      <point x="151" y="330"/>
      <point x="127" y="364"/>
    </contour>
    <contour>
      <point x="169" y="0" type="curve"/>
      <point x="169" y="267"/>
      <point x="169" y="533"/>
      <point x="169" y="800" type="curve"/>
      <point x="83" y="800"/>
      <point x="169" y="800"/>
      <point x="83" y="800" type="curve"/>
      <point x="83" y="533"/>
      <point x="83" y="267"/>
      <point x="83" y="0" type="curve"/>
      <point x="169" y="0"/>
      <point x="83" y="0"/>
    </contour>
  </outline>
</glyph>
<glyph name="i" format="1">
  <advance width="275"/>
  <unicode hex="0069"/>
  <outline>
    <contour>
      <point x="149" y="68" type="curve"/>
      <point x="27" y="68"/>
      <point x="151" y="68"/>
      <point x="30" y="68" type="curve"/>
      <point x="29" y="0"/>
      <point x="30" y="68"/>
      <point x="29" y="0" type="curve"/>
      <point x="69" y="0"/>
      <point x="108" y="0"/>
      <point x="149" y="0" type="curve"/>
      <point x="149" y="68"/>
      <point x="149" y="0"/>
    </contour>
    <contour>
      <point x="149" y="0" type="curve"/>
      <point x="186" y="0"/>
      <point x="222" y="0"/>
      <point x="261" y="0" type="curve"/>
      <point x="261" y="68"/>
      <point x="261" y="0"/>
      <point x="261" y="68" type="curve"/>
      <point x="145" y="68"/>
      <point x="264" y="68"/>
      <point x="149" y="68" type="curve"/>
      <point x="149" y="0"/>
      <point x="149" y="68"/>
    </contour>
    <contour>
      <point x="149" y="533" type="curve"/>
      <point x="108" y="533"/>
      <point x="69" y="533"/>
      <point x="30" y="533" type="curve"/>
      <point x="29" y="465"/>
      <point x="30" y="533"/>
      <point x="29" y="465" type="curve"/>
      <point x="151" y="465"/>
      <point x="26" y="465"/>
      <point x="149" y="465" type="curve"/>
      <point x="149" y="533"/>
      <point x="149" y="465"/>
    </contour>
    <contour>
      <point x="194" y="0" type="curve"/>
      <point x="194" y="178"/>
      <point x="194" y="355"/>
      <point x="194" y="533" type="curve"/>
      <point x="103" y="533"/>
      <point x="194" y="533"/>
      <point x="103" y="533" type="curve"/>
      <point x="103" y="355"/>
      <point x="103" y="178"/>
      <point x="103" y="0" type="curve"/>
      <point x="194" y="0"/>
      <point x="103" y="0"/>
    </contour>
    <contour>
      <point x="191" y="681" type="curve"/>
      <point x="191" y="711"/>
      <point x="172" y="727"/>
      <point x="145" y="727" type="curve"/>
      <point x="117" y="727"/>
      <point x="100" y="710"/>
      <point x="100" y="681" type="curve"/>
      <point x="193" y="681"/>
      <point x="98" y="681"/>
      <point x="191" y="681" type="curve"/>
      <point x="191" y="650"/>
      <point x="172" y="635"/>
      <point x="145" y="635" type="curve"/>
      <point x="117" y="635"/>
      <point x="100" y="651"/>
      <point x="100" y="681" type="curve"/>
      <point x="193" y="681"/>
      <point x="98" y="681"/>
    </contour>
    <contour>
      <point x="145" y="639" type="move" name="top"/>
    </contour>
    <contour>
      <point x="188" y="1" type="move" name="bottom"/>
    </contour>
  </outline>
</glyph>
<glyph name="j" format="1">
  <advance width="234"/>
  <unicode hex="006A"/>
  <outline>
    <contour>
      <point x="112" y="533" type="curve"/>
      <point x="72" y="533"/>
      <point x="35" y="533"/>
      <point x="-5" y="533" type="curve"/>
      <point x="-5" y="465"/>
      <point x="-5" y="533"/>
      <point x="-5" y="465" type="curve"/>
      <point x="117" y="465"/>
      <point x="-10" y="465"/>
      <point x="112" y="465" type="curve"/>
      <point x="112" y="533"/>
      <point x="112" y="465"/>
    </contour>
    <contour>
      <point x="-5" y="-303" type="curve"/>
      <point x="1" y="-304"/>
      <point x="9" y="-305"/>
      <point x="17" y="-305" type="curve"/>
      <point x="106" y="-305"/>
      <point x="156" y="-225"/>
      <point x="156" y="-130" type="curve"/>
      <point x="156" y="91"/>
      <point x="156" y="312"/>
      <point x="156" y="534" type="curve"/>
      <point x="70" y="534"/>
      <point x="156" y="534"/>
      <point x="70" y="534" type="curve"/>
      <point x="70" y="312"/>
      <point x="70" y="91"/>
      <point x="70" y="-130" type="curve"/>
      <point x="70" y="-179"/>
      <point x="63" y="-237"/>
      <point x="21" y="-237" type="curve"/>
      <point x="16" y="-237"/>
      <point x="13" y="-236"/>
      <point x="7" y="-235" type="curve"/>
      <point x="-5" y="-301"/>
      <point x="7" y="-238"/>
    </contour>
    <contour>
      <point x="158" y="676" type="curve"/>
      <point x="158" y="707"/>
      <point x="138" y="722"/>
      <point x="111" y="722" type="curve"/>
      <point x="83" y="722"/>
      <point x="66" y="705"/>
      <point x="66" y="676" type="curve"/>
      <point x="159" y="676"/>
      <point x="64" y="676"/>
      <point x="158" y="676" type="curve"/>
      <point x="158" y="646"/>
      <point x="139" y="631"/>
      <point x="111" y="631" type="curve"/>
      <point x="83" y="631"/>
      <point x="66" y="647"/>
      <point x="66" y="676" type="curve"/>
      <point x="159" y="676"/>
      <point x="64" y="676"/>
    </contour>
  </outline>
</glyph>
<glyph name="k" format="1">
  <advance width="456"/>
  <unicode hex="006B"/>
  <outline>
    <contour>
      <point x="126" y="68" type="curve"/>
      <point x="4" y="68"/>
      <point x="128" y="68"/>
      <point x="6" y="68" type="curve"/>
      <point x="6" y="0"/>
      <point x="6" y="68"/>
      <point x="6" y="0" type="curve"/>
      <point x="47" y="0"/>
      <point x="85" y="-1"/>
      <point x="126" y="-1" type="curve"/>
      <point x="126" y="68"/>
      <point x="126" y="-1"/>
    </contour>
    <contour>
      <point x="332" y="0" type="curve"/>
      <point x="368" y="0"/>
      <point x="404" y="0"/>
      <point x="440" y="0" type="curve"/>
      <point x="440" y="68"/>
      <point x="440" y="0"/>
      <point x="440" y="68" type="curve"/>
      <point x="333" y="68"/>
      <point x="441" y="68"/>
      <point x="333" y="68" type="curve"/>
      <point x="333" y="0"/>
      <point x="332" y="68"/>
    </contour>
    <contour>
      <point x="333" y="465" type="curve"/>
      <point x="421" y="465"/>
      <point x="332" y="465"/>
      <point x="421" y="465" type="curve"/>
      <point x="421" y="533"/>
      <point x="421" y="465"/>
      <point x="421" y="533" type="curve"/>
      <point x="391" y="533"/>
      <point x="362" y="533"/>
      <point x="333" y="533" type="curve"/>
      <point x="333" y="465"/>
      <point x="333" y="533"/>
    </contour>
    <contour>
      <point x="126" y="-1" type="curve"/>
      <point x="161" y="-1"/>
      <point x="121" y="-1"/>
      <point x="226" y="0" type="curve"/>
      <point x="226" y="68"/>
      <point x="226" y="0"/>
      <point x="226" y="68" type="curve"/>
      <point x="121" y="68"/>
      <point x="230" y="68"/>
      <point x="126" y="68" type="curve"/>
      <point x="126" y="-1"/>
      <point x="126" y="68"/>
    </contour>
    <contour>
      <point x="349" y="533" type="curve"/>
      <point x="303" y="533"/>
      <point x="260" y="533"/>
      <point x="214" y="533" type="curve"/>
      <point x="214" y="465"/>
      <point x="214" y="533"/>
      <point x="214" y="465" type="curve"/>
      <point x="353" y="465"/>
      <point x="209" y="465"/>
      <point x="349" y="465" type="curve"/>
      <point x="349" y="533"/>
      <point x="349" y="465"/>
    </contour>
    <contour>
      <point x="127" y="799" type="curve"/>
      <point x="86" y="799"/>
      <point x="48" y="800"/>
      <point x="7" y="800" type="curve"/>
      <point x="7" y="732"/>
      <point x="7" y="800"/>
      <point x="7" y="732" type="curve"/>
      <point x="129" y="731"/>
      <point x="5" y="732"/>
      <point x="127" y="731" type="curve"/>
      <point x="127" y="799"/>
      <point x="127" y="731"/>
    </contour>
    <contour>
      <point x="169" y="0" type="curve"/>
      <point x="169" y="800" type="line"/>
      <point x="83" y="800"/>
      <point x="169" y="800"/>
      <point x="83" y="800" type="curve"/>
      <point x="83" y="533"/>
      <point x="83" y="267"/>
      <point x="83" y="0" type="curve"/>
      <point x="169" y="0"/>
      <point x="83" y="0"/>
    </contour>
    <contour>
      <point x="311" y="533" type="curve"/>
      <point x="152" y="275" type="line"/>
      <point x="235" y="275"/>
      <point x="150" y="275"/>
      <point x="233" y="275" type="curve"/>
      <point x="383" y="504" type="line"/>
      <point x="314" y="504"/>
      <point x="380" y="533"/>
    </contour>
    <contour>
      <point x="394" y="38" type="curve"/>
      <point x="233" y="275" type="line"/>
      <point x="150" y="275"/>
      <point x="235" y="275"/>
      <point x="152" y="275" type="curve"/>
      <point x="328" y="0" type="line"/>
      <point x="390" y="0"/>
      <point x="332" y="38"/>
    </contour>
    <contour>
      <point x="296" y="-43" type="move" name="bottom"/>
    </contour>
  </outline>
</glyph>
<glyph name="l" format="1">
  <advance width="271"/>
  <unicode hex="006C"/>
  <outline>
    <contour>
      <point x="136" y="68" type="curve"/>
      <point x="14" y="68"/>
      <point x="136" y="68"/>
      <point x="14" y="68" type="curve"/>
      <point x="14" y="0"/>
      <point x="14" y="68"/>
      <point x="14" y="0" type="curve"/>
      <point x="55" y="0"/>
      <point x="95" y="0"/>
      <point x="136" y="0" type="curve"/>
      <point x="136" y="69"/>
      <point x="136" y="-1"/>
    </contour>
    <contour>
      <point x="137" y="800" type="curve"/>
      <point x="96" y="800"/>
      <point x="55" y="800"/>
      <point x="15" y="800" type="curve"/>
      <point x="14" y="732"/>
      <point x="15" y="800"/>
      <point x="14" y="732" type="curve"/>
      <point x="137" y="731"/>
      <point x="14" y="732"/>
      <point x="137" y="731" type="curve"/>
      <point x="137" y="799"/>
      <point x="137" y="732"/>
    </contour>
    <contour>
      <point x="136" y="0" type="curve"/>
      <point x="177" y="0"/>
      <point x="217" y="0"/>
      <point x="258" y="0" type="curve"/>
      <point x="258" y="68"/>
      <point x="258" y="0"/>
      <point x="258" y="68" type="curve"/>
      <point x="136" y="68"/>
      <point x="258" y="68"/>
      <point x="136" y="68" type="curve"/>
      <point x="136" y="-1"/>
      <point x="136" y="69"/>
    </contour>
    <contour>
      <point x="178" y="0" type="curve"/>
      <point x="178" y="267"/>
      <point x="178" y="533"/>
      <point x="178" y="800" type="curve"/>
      <point x="92" y="800"/>
      <point x="178" y="800"/>
      <point x="92" y="800" type="curve"/>
      <point x="92" y="533"/>
      <point x="92" y="267"/>
      <point x="92" y="0" type="curve"/>
      <point x="178" y="0"/>
      <point x="92" y="0"/>
    </contour>
    <contour>
      <point x="137" y="883" type="move" name="top"/>
    </contour>
    <contour>
      <point x="167" y="-43" type="move" name="bottom"/>
    </contour>
  </outline>
</glyph>
<glyph name="m" format="1">
  <advance width="727"/>
  <unicode hex="006D"/>
  <outline>
    <contour>
      <point x="372" y="0" type="curve"/>
      <point x="478" y="0"/>
      <point x="373" y="0"/>
      <point x="478" y="0" type="curve"/>
      <point x="478" y="68"/>
      <point x="478" y="0"/>
      <point x="478" y="68" type="curve"/>
      <point x="373" y="68"/>
      <point x="478" y="68"/>
      <point x="372" y="68" type="curve"/>
      <point x="372" y="0"/>
      <point x="372" y="68"/>
    </contour>
    <contour>
      <point x="585" y="0" type="curve"/>
      <point x="626" y="0"/>
      <point x="664" y="0"/>
      <point x="706" y="0" type="curve"/>
      <point x="706" y="68"/>
      <point x="706" y="0"/>
      <point x="706" y="68" type="curve"/>
      <point x="580" y="68"/>
      <point x="711" y="68"/>
      <point x="585" y="68" type="curve"/>
      <point x="585" y="0"/>
      <point x="585" y="68"/>
    </contour>
    <contour>
      <point x="161" y="68" type="curve"/>
      <point x="37" y="68"/>
      <point x="165" y="68"/>
      <point x="41" y="68" type="curve"/>
      <point x="41" y="0"/>
      <point x="41" y="68"/>
      <point x="41" y="0" type="curve"/>
      <point x="82" y="0"/>
      <point x="119" y="0"/>
      <point x="161" y="0" type="curve"/>
      <point x="161" y="68"/>
      <point x="161" y="0"/>
    </contour>
    <contour>
      <point x="161" y="0" type="curve"/>
      <point x="197" y="0"/>
      <point x="150" y="0"/>
      <point x="262" y="0" type="curve"/>
      <point x="262" y="68"/>
      <point x="262" y="0"/>
      <point x="262" y="68" type="curve"/>
      <point x="150" y="68"/>
      <point x="272" y="68"/>
      <point x="161" y="68" type="curve"/>
      <point x="161" y="0"/>
      <point x="161" y="68"/>
    </contour>
    <contour>
      <point x="161" y="533" type="curve"/>
      <point x="119" y="533"/>
      <point x="82" y="533"/>
      <point x="41" y="533" type="curve"/>
      <point x="41" y="465"/>
      <point x="41" y="533"/>
      <point x="41" y="465" type="curve"/>
      <point x="165" y="465"/>
      <point x="36" y="465"/>
      <point x="161" y="465" type="curve"/>
      <point x="161" y="533"/>
      <point x="161" y="465"/>
    </contour>
    <contour>
      <point x="396" y="311" type="curve"/>
      <point x="411" y="383"/>
      <point x="428" y="468"/>
      <point x="486" y="468" type="curve"/>
      <point x="553" y="468"/>
      <point x="540" y="404"/>
      <point x="540" y="324" type="curve"/>
      <point x="540" y="216"/>
      <point x="540" y="108"/>
      <point x="540" y="0" type="curve"/>
      <point x="626" y="0"/>
      <point x="540" y="0"/>
      <point x="626" y="0" type="curve"/>
      <point x="626" y="110"/>
      <point x="626" y="221"/>
      <point x="626" y="331" type="curve"/>
      <point x="626" y="451"/>
      <point x="626" y="538"/>
      <point x="517" y="538" type="curve"/>
      <point x="432" y="538"/>
      <point x="390" y="452"/>
      <point x="375" y="351" type="curve"/>
      <point x="399" y="313"/>
      <point x="371" y="349"/>
    </contour>
    <contour>
      <point x="184" y="311" type="curve"/>
      <point x="196" y="381"/>
      <point x="214" y="468"/>
      <point x="274" y="468" type="curve"/>
      <point x="341" y="468"/>
      <point x="329" y="404"/>
      <point x="329" y="324" type="curve"/>
      <point x="329" y="216"/>
      <point x="329" y="108"/>
      <point x="329" y="0" type="curve"/>
      <point x="415" y="0"/>
      <point x="329" y="0"/>
      <point x="415" y="0" type="curve"/>
      <point x="415" y="110"/>
      <point x="415" y="221"/>
      <point x="415" y="331" type="curve"/>
      <point x="415" y="451"/>
      <point x="415" y="539"/>
      <point x="305" y="539" type="curve"/>
      <point x="219" y="539"/>
      <point x="178" y="452"/>
      <point x="163" y="351" type="curve"/>
      <point x="187" y="312"/>
      <point x="160" y="349"/>
    </contour>
    <contour>
      <point x="203" y="0" type="curve"/>
      <point x="203" y="178"/>
      <point x="203" y="355"/>
      <point x="203" y="533" type="curve"/>
      <point x="117" y="533"/>
      <point x="203" y="533"/>
      <point x="117" y="533" type="curve"/>
      <point x="117" y="355"/>
      <point x="117" y="178"/>
      <point x="117" y="0" type="curve"/>
      <point x="203" y="0"/>
      <point x="117" y="0"/>
    </contour>
  </outline>
</glyph>
<glyph name="p" format="1">
  <advance width="491"/>
  <unicode hex="0070"/>
  <outline>
    <contour>
      <point x="124" y="-231" type="curve"/>
      <point x="3" y="-231"/>
      <point x="127" y="-231"/>
      <point x="6" y="-231" type="curve"/>
      <point x="6" y="-300"/>
      <point x="6" y="-231"/>
      <point x="6" y="-300" type="curve"/>
      <point x="46" y="-300"/>
      <point x="84" y="-300"/>
      <point x="124" y="-300" type="curve"/>
      <point x="124" y="-231"/>
      <point x="124" y="-300"/>
    </contour>
    <contour>
      <point x="124" y="-300" type="curve"/>
      <point x="163" y="-300"/>
      <point x="198" y="-300"/>
      <point x="236" y="-300" type="curve"/>
      <point x="236" y="-231"/>
      <point x="236" y="-300"/>
      <point x="236" y="-231" type="curve"/>
      <point x="122" y="-231"/>
      <point x="239" y="-231"/>
      <point x="124" y="-231" type="curve"/>
      <point x="124" y="-300"/>
      <point x="124" y="-231"/>
    </contour>
    <contour>
      <point x="125" y="533" type="curve"/>
      <point x="85" y="533"/>
      <point x="47" y="533"/>
      <point x="7" y="533" type="curve"/>
      <point x="7" y="465"/>
      <point x="7" y="533"/>
      <point x="7" y="465" type="curve"/>
      <point x="127" y="465"/>
      <point x="4" y="465"/>
      <point x="125" y="465" type="curve"/>
      <point x="125" y="533"/>
      <point x="125" y="465"/>
    </contour>
    <contour>
      <point x="151" y="347" type="curve"/>
      <point x="159" y="399"/>
      <point x="202" y="467"/>
      <point x="253" y="467" type="curve"/>
      <point x="348" y="467"/>
      <point x="356" y="370"/>
      <point x="356" y="268" type="curve"/>
      <point x="358" y="163"/>
      <point x="346" y="63"/>
      <point x="256" y="63" type="curve"/>
      <point x="207" y="63"/>
      <point x="177" y="96"/>
      <point x="154" y="140" type="curve"/>
      <point x="119" y="100"/>
      <point x="157" y="145"/>
      <point x="122" y="105" type="curve"/>
      <point x="158" y="37"/>
      <point x="202" y="-5"/>
      <point x="273" y="-5" type="curve"/>
      <point x="411" y="-5"/>
      <point x="442" y="127"/>
      <point x="442" y="272" type="curve"/>
      <point x="442" y="411"/>
      <point x="409" y="538"/>
      <point x="273" y="538" type="curve"/>
      <point x="200" y="538"/>
      <point x="148" y="468"/>
      <point x="127" y="407" type="curve"/>
      <point x="154" y="344"/>
      <point x="124" y="410"/>
    </contour>
    <contour>
      <point x="167" y="-300" type="curve"/>
      <point x="167" y="-22"/>
      <point x="167" y="255"/>
      <point x="167" y="533" type="curve"/>
      <point x="81" y="533"/>
      <point x="167" y="533"/>
      <point x="81" y="533" type="curve"/>
      <point x="81" y="255"/>
      <point x="81" y="-22"/>
      <point x="81" y="-300" type="curve"/>
      <point x="167" y="-300"/>
      <point x="81" y="-300"/>
    </contour>
  </outline>
</glyph>
<glyph name="q" format="1">
  <advance width="501"/>
  <unicode hex="0071"/>
  <outline>
    <contour>
      <point x="366" y="465" type="curve"/>
      <point x="489" y="465"/>
      <point x="355" y="465"/>
      <point x="479" y="465" type="curve"/>
      <point x="479" y="539"/>
      <point x="479" y="459"/>
      <point x="479" y="533" type="curve"/>
      <point x="441" y="533"/>
      <point x="403" y="533"/>
      <point x="366" y="533" type="curve"/>
      <point x="366" y="459"/>
      <point x="366" y="539"/>
    </contour>
    <contour>
      <point x="365" y="-231" type="curve"/>
      <point x="234" y="-231"/>
      <point x="377" y="-231"/>
      <point x="246" y="-231" type="curve"/>
      <point x="246" y="-306"/>
      <point x="246" y="-225"/>
      <point x="246" y="-300" type="curve"/>
      <point x="286" y="-300"/>
      <point x="325" y="-300"/>
      <point x="365" y="-300" type="curve"/>
      <point x="365" y="-225"/>
      <point x="365" y="-306"/>
    </contour>
    <contour>
      <point x="365" y="-300" type="curve"/>
      <point x="403" y="-300"/>
      <point x="440" y="-300"/>
      <point x="478" y="-300" type="curve"/>
      <point x="478" y="-225"/>
      <point x="478" y="-306"/>
      <point x="478" y="-231" type="curve"/>
      <point x="353" y="-231"/>
      <point x="490" y="-231"/>
      <point x="365" y="-231" type="curve"/>
      <point x="365" y="-306"/>
      <point x="365" y="-225"/>
    </contour>
    <contour>
      <point x="365" y="414" type="curve"/>
      <point x="340" y="491"/>
      <point x="281" y="538"/>
      <point x="217" y="538" type="curve"/>
      <point x="80" y="538"/>
      <point x="48" y="407"/>
      <point x="48" y="265" type="curve"/>
      <point x="49" y="122"/>
      <point x="86" y="-6"/>
      <point x="221" y="-6" type="curve"/>
      <point x="286" y="-6"/>
      <point x="339" y="55"/>
      <point x="362" y="120" type="curve"/>
      <point x="333" y="161"/>
      <point x="367" y="119"/>
      <point x="338" y="160" type="curve"/>
      <point x="320" y="110"/>
      <point x="282" y="63"/>
      <point x="234" y="63" type="curve"/>
      <point x="145" y="63"/>
      <point x="135" y="164"/>
      <point x="135" y="268" type="curve"/>
      <point x="135" y="369"/>
      <point x="147" y="467"/>
      <point x="232" y="467" type="curve"/>
      <point x="274" y="467"/>
      <point x="311" y="441"/>
      <point x="341" y="375" type="curve"/>
      <point x="362" y="419"/>
      <point x="345" y="370"/>
    </contour>
    <contour>
      <point x="409" y="-300" type="curve"/>
      <point x="409" y="-24"/>
      <point x="409" y="257"/>
      <point x="409" y="533" type="curve"/>
      <point x="312" y="533"/>
      <point x="418" y="533"/>
      <point x="320" y="533" type="curve"/>
      <point x="320" y="257"/>
      <point x="320" y="-24"/>
      <point x="320" y="-300" type="curve"/>
      <point x="418" y="-300"/>
      <point x="312" y="-300"/>
    </contour>
  </outline>
</glyph>
<glyph name="r" format="1">
  <advance width="341"/>
  <unicode hex="0072"/>
  <outline>
    <contour>
      <point x="159" y="0" type="curve"/>
      <point x="198" y="0"/>
      <point x="234" y="0"/>
      <point x="272" y="0" type="curve"/>
      <point x="272" y="74"/>
      <point x="272" y="-6"/>
      <point x="272" y="68" type="curve"/>
      <point x="147" y="68"/>
      <point x="284" y="68"/>
      <point x="159" y="68" type="curve"/>
      <point x="159" y="-6"/>
      <point x="159" y="74"/>
    </contour>
    <contour>
      <point x="159" y="68" type="curve"/>
      <point x="27" y="68"/>
      <point x="172" y="68"/>
      <point x="40" y="68" type="curve"/>
      <point x="40" y="-6"/>
      <point x="40" y="74"/>
      <point x="40" y="0" type="curve"/>
      <point x="80" y="0"/>
      <point x="119" y="0"/>
      <point x="159" y="0" type="curve"/>
      <point x="159" y="74"/>
      <point x="159" y="-6"/>
    </contour>
    <contour>
      <point x="159" y="533" type="curve"/>
      <point x="118" y="533"/>
      <point x="80" y="533"/>
      <point x="40" y="533" type="curve"/>
      <point x="40" y="459"/>
      <point x="40" y="539"/>
      <point x="40" y="465" type="curve"/>
      <point x="172" y="465"/>
      <point x="27" y="465"/>
      <point x="159" y="465" type="curve"/>
      <point x="159" y="539"/>
      <point x="159" y="459"/>
    </contour>
    <contour>
      <point x="202" y="0" type="curve"/>
      <point x="202" y="176"/>
      <point x="202" y="357"/>
      <point x="202" y="533" type="curve"/>
      <point x="108" y="533"/>
      <point x="210" y="533"/>
      <point x="116" y="533" type="curve"/>
      <point x="116" y="357"/>
      <point x="116" y="176"/>
      <point x="116" y="0" type="curve"/>
      <point x="210" y="0"/>
      <point x="108" y="0"/>
    </contour>
    <contour>
      <point x="184" y="328" type="curve"/>
      <point x="201" y="426"/>
      <point x="258" y="469"/>
      <point x="319" y="469" type="curve"/>
      <point x="319" y="548"/>
      <point x="319" y="459"/>
      <point x="319" y="538" type="curve"/>
      <point x="237" y="538"/>
      <point x="174" y="461"/>
      <point x="151" y="364" type="curve"/>
      <point x="185" y="328"/>
      <point x="153" y="362"/>
    </contour>
    <contour>
      <point x="160" y="639" type="move" name="top"/>
    </contour>
    <contour>
      <point x="196" y="-45" type="move" name="bottom"/>
    </contour>
  </outline>
</glyph>
<glyph name="t" format="1">
  <advance width="290"/>
  <unicode hex="0074"/>
  <outline>
    <contour>
      <point x="15" y="463" type="curve"/>
      <point x="269" y="463" type="line"/>
      <point x="269" y="532"/>
      <point x="269" y="463"/>
      <point x="269" y="532" type="curve"/>
      <point x="15" y="532" type="line"/>
      <point x="15" y="463"/>
      <point x="15" y="532"/>
    </contour>
    <contour>
      <point x="235" y="87" type="curve"/>
      <point x="222" y="75"/>
      <point x="212" y="67"/>
      <point x="195" y="67" type="curve"/>
      <point x="156" y="67"/>
      <point x="157" y="110"/>
      <point x="157" y="161" type="curve"/>
      <point x="157" y="680" type="line"/>
      <point x="71" y="626"/>
      <point x="156" y="674"/>
      <point x="71" y="620" type="curve"/>
      <point x="71" y="157" type="line"/>
      <point x="71" y="60"/>
      <point x="99" y="-6"/>
      <point x="183" y="-6" type="curve"/>
      <point x="218" y="-6"/>
      <point x="242" y="6"/>
      <point x="273" y="28" type="curve"/>
      <point x="235" y="87"/>
      <point x="273" y="28"/>
    </contour>
    <contour>
      <point x="211" y="-40" type="move" name="bottom"/>
    </contour>
  </outline>
</glyph>
<glyph name="v" format="1">
  <advance width="492"/>
  <unicode hex="0076"/>
  <outline>
    <contour>
      <point x="113" y="533" type="curve"/>
      <point x="77" y="533"/>
      <point x="46" y="533"/>
      <point x="11" y="533" type="curve"/>
      <point x="11" y="465"/>
      <point x="11" y="533"/>
      <point x="11" y="465" type="curve"/>
      <point x="118" y="465"/>
      <point x="6" y="465"/>
      <point x="113" y="465" type="curve"/>
      <point x="113" y="533"/>
      <point x="113" y="465"/>
    </contour>
    <contour>
      <point x="113" y="465" type="curve"/>
      <point x="221" y="465"/>
      <point x="109" y="465"/>
      <point x="217" y="465" type="curve"/>
      <point x="217" y="533"/>
      <point x="217" y="465"/>
      <point x="217" y="533" type="curve"/>
      <point x="181" y="533"/>
      <point x="149" y="533"/>
      <point x="113" y="533" type="curve"/>
      <point x="113" y="465"/>
      <point x="113" y="533"/>
    </contour>
    <contour>
      <point x="390" y="533" type="curve"/>
      <point x="352" y="533"/>
      <point x="318" y="533"/>
      <point x="281" y="533" type="curve"/>
      <point x="281" y="465"/>
      <point x="281" y="533"/>
      <point x="281" y="465" type="curve"/>
      <point x="395" y="465"/>
      <point x="277" y="465"/>
      <point x="390" y="465" type="curve"/>
      <point x="390" y="533"/>
      <point x="390" y="465"/>
    </contour>
    <contour>
      <point x="390" y="465" type="curve"/>
      <point x="491" y="465"/>
      <point x="386" y="465"/>
      <point x="487" y="465" type="curve"/>
      <point x="487" y="533"/>
      <point x="487" y="465"/>
      <point x="487" y="533" type="curve"/>
      <point x="453" y="533"/>
      <point x="423" y="533"/>
      <point x="390" y="533" type="curve"/>
      <point x="390" y="465"/>
      <point x="390" y="533"/>
    </contour>
    <contour>
      <point x="65" y="533" type="curve"/>
      <point x="109" y="355"/>
      <point x="153" y="178"/>
      <point x="197" y="0" type="curve"/>
      <point x="277" y="0"/>
      <point x="197" y="0"/>
      <point x="277" y="0" type="curve"/>
      <point x="234" y="177"/>
      <point x="196" y="356"/>
      <point x="153" y="533" type="curve"/>
      <point x="65" y="533"/>
      <point x="153" y="533"/>
    </contour>
    <contour>
      <point x="351" y="533" type="curve"/>
      <point x="218" y="0" type="line"/>
      <point x="299" y="0"/>
      <point x="218" y="0"/>
      <point x="299" y="0" type="curve"/>
      <point x="346" y="178"/>
      <point x="392" y="355"/>
      <point x="439" y="533" type="curve"/>
      <point x="351" y="533"/>
      <point x="439" y="533"/>
    </contour>
  </outline>
</glyph>
<glyph name="w" format="1">
  <advance width="693"/>
  <unicode hex="0077"/>
  <outline>
    <contour>
      <point x="577" y="465" type="curve"/>
      <point x="690" y="465"/>
      <point x="572" y="465"/>
      <point x="685" y="465" type="curve"/>
      <point x="685" y="533"/>
      <point x="685" y="465"/>
      <point x="685" y="533" type="curve"/>
      <point x="648" y="533"/>
      <point x="614" y="533"/>
      <point x="577" y="533" type="curve"/>
      <point x="577" y="465"/>
      <point x="577" y="533"/>
    </contour>
    <contour>
      <point x="577" y="533" type="curve"/>
      <point x="539" y="533"/>
      <point x="515" y="533"/>
      <point x="477" y="533" type="curve"/>
      <point x="477" y="465"/>
      <point x="477" y="533"/>
      <point x="477" y="465" type="curve"/>
      <point x="592" y="465"/>
      <point x="462" y="465"/>
      <point x="577" y="465" type="curve"/>
      <point x="577" y="533"/>
      <point x="577" y="465"/>
    </contour>
    <contour>
      <point x="117" y="533" type="curve"/>
      <point x="80" y="533"/>
      <point x="46" y="533"/>
      <point x="9" y="533" type="curve"/>
      <point x="9" y="465"/>
      <point x="9" y="533"/>
      <point x="9" y="465" type="curve"/>
      <point x="122" y="465"/>
      <point x="4" y="465"/>
      <point x="117" y="465" type="curve"/>
      <point x="117" y="533"/>
      <point x="117" y="465"/>
    </contour>
    <contour>
      <point x="117" y="465" type="curve"/>
      <point x="229" y="465"/>
      <point x="107" y="465"/>
      <point x="219" y="465" type="curve"/>
      <point x="219" y="533"/>
      <point x="219" y="465"/>
      <point x="219" y="533" type="curve"/>
      <point x="182" y="533"/>
      <point x="154" y="533"/>
      <point x="117" y="533" type="curve"/>
      <point x="117" y="465"/>
      <point x="117" y="533"/>
    </contour>
    <contour>
      <point x="257" y="0" type="curve"/>
      <point x="300" y="178"/>
      <point x="343" y="355"/>
      <point x="386" y="533" type="curve"/>
      <point x="312" y="533"/>
      <point x="386" y="533"/>
      <point x="312" y="533" type="curve"/>
      <point x="269" y="355"/>
      <point x="227" y="178"/>
      <point x="185" y="0" type="curve"/>
      <point x="257" y="0"/>
      <point x="185" y="0"/>
    </contour>
    <contour>
      <point x="552" y="533" type="curve"/>
      <point x="512" y="355"/>
      <point x="472" y="178"/>
      <point x="433" y="0" type="curve"/>
      <point x="505" y="0"/>
      <point x="433" y="0"/>
      <point x="505" y="0" type="curve"/>
      <point x="546" y="178"/>
      <point x="586" y="355"/>
      <point x="627" y="533" type="curve"/>
      <point x="552" y="533"/>
      <point x="627" y="533"/>
    </contour>
    <contour>
      <point x="316" y="533" type="curve"/>
      <point x="355" y="355"/>
      <point x="393" y="178"/>
      <point x="433" y="0" type="curve"/>
      <point x="505" y="0"/>
      <point x="433" y="0"/>
      <point x="505" y="0" type="curve"/>
      <point x="466" y="178"/>
      <point x="428" y="355"/>
      <point x="390" y="533" type="curve"/>
      <point x="316" y="533"/>
      <point x="390" y="533"/>
    </contour>
    <contour>
      <point x="68" y="533" type="curve"/>
      <point x="106" y="355"/>
      <point x="146" y="178"/>
      <point x="184" y="0" type="curve"/>
      <point x="256" y="0"/>
      <point x="184" y="0"/>
      <point x="256" y="0" type="curve"/>
      <point x="218" y="178"/>
      <point x="180" y="355"/>
      <point x="142" y="533" type="curve"/>
      <point x="68" y="533"/>
      <point x="142" y="533"/>
    </contour>
  </outline>
</glyph>
<glyph name="x" format="1">
  <advance width="492"/>
  <unicode hex="0078"/>
  <outline>
    <contour>
      <point x="105" y="68" type="curve"/>
      <point x="25" y="68"/>
      <point x="99" y="68"/>
      <point x="19" y="68" type="curve"/>
      <point x="19" y="0"/>
      <point x="19" y="68"/>
      <point x="19" y="0" type="curve"/>
      <point x="45" y="0"/>
      <point x="78" y="0"/>
      <point x="105" y="0" type="curve"/>
      <point x="105" y="68"/>
      <point x="105" y="0"/>
    </contour>
    <contour>
      <point x="404" y="68" type="curve"/>
      <point x="285" y="68"/>
      <point x="401" y="68"/>
      <point x="281" y="68" type="curve"/>
      <point x="281" y="0"/>
      <point x="281" y="68"/>
      <point x="281" y="0" type="curve"/>
      <point x="320" y="0"/>
      <point x="365" y="0"/>
      <point x="404" y="0" type="curve"/>
      <point x="404" y="68"/>
      <point x="404" y="0"/>
    </contour>
    <contour>
      <point x="392" y="0" type="curve"/>
      <point x="420" y="0"/>
      <point x="457" y="0"/>
      <point x="485" y="0" type="curve"/>
      <point x="485" y="68"/>
      <point x="485" y="0"/>
      <point x="485" y="68" type="curve"/>
      <point x="402" y="68"/>
      <point x="474" y="68"/>
      <point x="392" y="68" type="curve"/>
      <point x="392" y="0"/>
      <point x="392" y="68"/>
    </contour>
    <contour>
      <point x="93" y="0" type="curve"/>
      <point x="134" y="0"/>
      <point x="94" y="0"/>
      <point x="215" y="0" type="curve"/>
      <point x="215" y="68"/>
      <point x="215" y="0"/>
      <point x="215" y="68" type="curve"/>
      <point x="94" y="68"/>
      <point x="214" y="68"/>
      <point x="93" y="68" type="curve"/>
      <point x="93" y="0"/>
      <point x="93" y="68"/>
    </contour>
    <contour>
      <point x="381" y="465" type="curve"/>
      <point x="467" y="465"/>
      <point x="395" y="465"/>
      <point x="481" y="465" type="curve"/>
      <point x="481" y="533"/>
      <point x="481" y="465"/>
      <point x="481" y="533" type="curve"/>
      <point x="452" y="533"/>
      <point x="410" y="533"/>
      <point x="381" y="533" type="curve"/>
      <point x="381" y="465"/>
      <point x="381" y="533"/>
    </contour>
    <contour>
      <point x="137" y="533" type="curve"/>
      <point x="106" y="533"/>
      <point x="67" y="533"/>
      <point x="37" y="533" type="curve"/>
      <point x="37" y="465"/>
      <point x="37" y="533"/>
      <point x="37" y="465" type="curve"/>
      <point x="130" y="465"/>
      <point x="44" y="465"/>
      <point x="137" y="465" type="curve"/>
      <point x="137" y="533"/>
      <point x="137" y="465"/>
    </contour>
    <contour>
      <point x="121" y="465" type="curve"/>
      <point x="233" y="465"/>
      <point x="112" y="465"/>
      <point x="224" y="465" type="curve"/>
      <point x="224" y="533"/>
      <point x="224" y="465"/>
      <point x="224" y="533" type="curve"/>
      <point x="188" y="533"/>
      <point x="159" y="533"/>
      <point x="121" y="533" type="curve"/>
      <point x="121" y="465"/>
      <point x="121" y="533"/>
    </contour>
    <contour>
      <point x="400" y="533" type="curve"/>
      <point x="359" y="533"/>
      <point x="328" y="533"/>
      <point x="288" y="533" type="curve"/>
      <point x="288" y="465"/>
      <point x="288" y="533"/>
      <point x="288" y="465" type="curve"/>
      <point x="409" y="465"/>
      <point x="278" y="465"/>
      <point x="400" y="465" type="curve"/>
      <point x="400" y="533"/>
      <point x="400" y="465"/>
    </contour>
    <contour>
      <point x="433" y="21" type="curve"/>
      <point x="393" y="105"/>
      <point x="190" y="450"/>
      <point x="150" y="533" type="curve"/>
      <point x="100" y="533"/>
      <point x="131" y="507"/>
      <point x="81" y="507" type="curve"/>
      <point x="120" y="423"/>
      <point x="321" y="83"/>
      <point x="360" y="0" type="curve"/>
      <point x="414" y="0"/>
      <point x="379" y="21"/>
    </contour>
    <contour>
      <point x="363" y="533" type="curve"/>
      <point x="323" y="450"/>
      <point x="109" y="110"/>
      <point x="69" y="27" type="curve"/>
      <point x="119" y="27"/>
      <point x="89" y="0"/>
      <point x="138" y="0" type="curve"/>
      <point x="178" y="83"/>
      <point x="396" y="429"/>
      <point x="435" y="512" type="curve"/>
      <point x="384" y="512"/>
      <point x="414" y="533"/>
    </contour>
  </outline>
</glyph>
<glyph name="y" format="1">
  <advance width="529"/>
  <unicode hex="0079"/>
  <outline>
    <contour>
      <point x="183" y="-231" type="curve"/>
      <point x="74" y="-232"/>
      <point x="188" y="-231"/>
      <point x="78" y="-232" type="curve"/>
      <point x="78" y="-300"/>
      <point x="78" y="-232"/>
      <point x="78" y="-300" type="curve"/>
      <point x="115" y="-300"/>
      <point x="146" y="-299"/>
      <point x="183" y="-299" type="curve"/>
      <point x="183" y="-231"/>
      <point x="183" y="-299"/>
    </contour>
    <contour>
      <point x="114" y="534" type="curve"/>
      <point x="78" y="534"/>
      <point x="47" y="533"/>
      <point x="12" y="533" type="curve"/>
      <point x="12" y="465"/>
      <point x="12" y="533"/>
      <point x="12" y="465" type="curve"/>
      <point x="119" y="465"/>
      <point x="7" y="465"/>
      <point x="114" y="465" type="curve"/>
      <point x="114" y="534"/>
      <point x="114" y="465"/>
    </contour>
    <contour>
      <point x="114" y="465" type="curve"/>
      <point x="232" y="465"/>
      <point x="109" y="465"/>
      <point x="227" y="465" type="curve"/>
      <point x="227" y="533"/>
      <point x="227" y="465"/>
      <point x="227" y="533" type="curve"/>
      <point x="187" y="533"/>
      <point x="153" y="534"/>
      <point x="114" y="534" type="curve"/>
      <point x="114" y="465"/>
      <point x="114" y="534"/>
    </contour>
    <contour>
      <point x="423" y="534" type="curve"/>
      <point x="386" y="534"/>
      <point x="353" y="533"/>
      <point x="316" y="533" type="curve"/>
      <point x="316" y="465"/>
      <point x="316" y="533"/>
      <point x="316" y="465" type="curve"/>
      <point x="428" y="465"/>
      <point x="312" y="465"/>
      <point x="423" y="465" type="curve"/>
      <point x="423" y="534"/>
      <point x="423" y="465"/>
    </contour>
    <contour>
      <point x="423" y="465" type="curve"/>
      <point x="527" y="465"/>
      <point x="418" y="465"/>
      <point x="522" y="465" type="curve"/>
      <point x="522" y="533"/>
      <point x="522" y="465"/>
      <point x="522" y="533" type="curve"/>
      <point x="487" y="533"/>
      <point x="457" y="534"/>
      <point x="423" y="534" type="curve"/>
      <point x="423" y="465"/>
      <point x="423" y="534"/>
    </contour>
    <contour>
      <point x="307" y="-11" type="curve"/>
      <point x="277" y="91"/>
      <point x="182" y="431"/>
      <point x="153" y="533" type="curve"/>
      <point x="64" y="533"/>
      <point x="153" y="533"/>
      <point x="64" y="533" type="curve"/>
      <point x="96" y="432"/>
      <point x="194" y="87"/>
      <point x="226" y="-14" type="curve"/>
      <point x="307" y="-14"/>
      <point x="226" y="-11"/>
    </contour>
    <contour>
      <point x="219" y="-300" type="curve"/>
      <point x="268" y="-149"/>
      <point x="423" y="382"/>
      <point x="472" y="533" type="curve"/>
      <point x="384" y="533"/>
      <point x="472" y="533"/>
      <point x="384" y="533" type="curve"/>
      <point x="334" y="382"/>
      <point x="179" y="-149"/>
      <point x="130" y="-300" type="curve"/>
      <point x="219" y="-300"/>
      <point x="130" y="-300"/>
    </contour>
    <contour>
      <point x="277" y="639" type="move" name="top"/>
    </contour>
  </outline>
</glyph>
<glyph name="braceleft" format="1">
  <advance width="228"/>
  <unicode hex="007B"/>
  <outline>
    <contour>
      <point x="183" y="-47" type="curve"/>
      <point x="142" y="-47"/>
      <point x="148" y="-1"/>
      <point x="148" y="47" type="curve"/>
      <point x="148" y="102"/>
      <point x="148" y="157"/>
      <point x="148" y="211" type="curve"/>
      <point x="148" y="302"/>
      <point x="116" y="376"/>
      <point x="35" y="376" type="curve"/>
      <point x="35" y="304"/>
      <point x="35" y="376"/>
      <point x="35" y="304" type="curve"/>
      <point x="71" y="304"/>
      <point x="70" y="262"/>
      <point x="70" y="218" type="curve"/>
      <point x="70" y="162"/>
      <point x="70" y="106"/>
      <point x="70" y="51" type="curve"/>
      <point x="70" y="-42"/>
      <point x="100" y="-116"/>
      <point x="183" y="-116" type="curve"/>
      <point x="183" y="-47"/>
      <point x="183" y="-116"/>
    </contour>
    <contour>
      <point x="183" y="795" type="curve"/>
      <point x="100" y="795"/>
      <point x="70" y="723"/>
      <point x="70" y="631" type="curve"/>
      <point x="70" y="574"/>
      <point x="70" y="516"/>
      <point x="70" y="459" type="curve"/>
      <point x="70" y="416"/>
      <point x="70" y="376"/>
      <point x="35" y="376" type="curve"/>
      <point x="35" y="304"/>
      <point x="35" y="376"/>
      <point x="35" y="304" type="curve"/>
      <point x="117" y="304"/>
      <point x="148" y="377"/>
      <point x="148" y="469" type="curve"/>
      <point x="148" y="523"/>
      <point x="148" y="577"/>
      <point x="148" y="631" type="curve"/>
      <point x="148" y="679"/>
      <point x="142" y="726"/>
      <point x="183" y="726" type="curve"/>
      <point x="183" y="795"/>
      <point x="183" y="726"/>
    </contour>
  </outline>
</glyph>
<glyph name="bar" format="1">
  <advance width="232"/>
  <unicode hex="007C"/>
  <outline>
    <contour>
      <point x="159" y="-300" type="curve"/>
      <point x="159" y="67"/>
      <point x="159" y="433"/>
      <point x="159" y="800" type="curve"/>
      <point x="73" y="800"/>
      <point x="159" y="800"/>
      <point x="73" y="800" type="curve"/>
      <point x="73" y="433"/>
      <point x="73" y="67"/>
      <point x="73" y="-300" type="curve"/>
      <point x="159" y="-300"/>
      <point x="73" y="-300"/>
    </contour>
  </outline>
</glyph>
<glyph name="braceright" format="1">
  <advance width="228"/>
  <unicode hex="007D"/>
  <outline>
    <contour>
      <point x="45" y="-116" type="curve"/>
      <point x="128" y="-116"/>
      <point x="159" y="-42"/>
      <point x="159" y="51" type="curve"/>
      <point x="159" y="106"/>
      <point x="159" y="162"/>
      <point x="159" y="218" type="curve"/>
      <point x="159" y="262"/>
      <point x="156" y="304"/>
      <point x="193" y="304" type="curve"/>
      <point x="193" y="376"/>
      <point x="193" y="304"/>
      <point x="193" y="376" type="curve"/>
      <point x="111" y="376"/>
      <point x="81" y="302"/>
      <point x="81" y="211" type="curve"/>
      <point x="81" y="157"/>
      <point x="81" y="102"/>
      <point x="81" y="47" type="curve"/>
      <point x="81" y="-1"/>
      <point x="86" y="-47"/>
      <point x="45" y="-47" type="curve"/>
      <point x="45" y="-116"/>
      <point x="45" y="-47"/>
    </contour>
    <contour>
      <point x="45" y="726" type="curve"/>
      <point x="86" y="726"/>
      <point x="81" y="679"/>
      <point x="81" y="631" type="curve"/>
      <point x="81" y="577"/>
      <point x="81" y="523"/>
      <point x="81" y="469" type="curve"/>
      <point x="81" y="377"/>
      <point x="111" y="304"/>
      <point x="193" y="304" type="curve"/>
      <point x="193" y="376"/>
      <point x="193" y="304"/>
      <point x="193" y="376" type="curve"/>
      <point x="158" y="376"/>
      <point x="159" y="416"/>
      <point x="159" y="459" type="curve"/>
      <point x="159" y="516"/>
      <point x="159" y="574"/>
      <point x="159" y="631" type="curve"/>
      <point x="159" y="723"/>
      <point x="128" y="795"/>
      <point x="45" y="795" type="curve"/>
      <point x="45" y="726"/>
      <point x="45" y="795"/>
    </contour>
  </outline>
</glyph>
<glyph name="asciitilde" format="1">
  <advance width="519"/>
  <unicode hex="007E"/>
  <outline>
    <contour>
      <point x="381" y="363" type="curve"/>
      <point x="373" y="324"/>
      <point x="365" y="278"/>
      <point x="335" y="278" type="curve"/>
      <point x="313" y="278"/>
      <point x="302" y="291"/>
      <point x="290" y="310" type="curve"/>
      <point x="260" y="347"/>
      <point x="236" y="370"/>
      <point x="189" y="370" type="curve"/>
      <point x="110" y="370"/>
      <point x="83" y="314"/>
      <point x="69" y="233" type="curve"/>
      <point x="102" y="223"/>
      <point x="106" y="221"/>
      <point x="140" y="211" type="curve"/>
      <point x="147" y="253"/>
      <point x="155" y="297"/>
      <point x="187" y="297" type="curve"/>
      <point x="209" y="297"/>
      <point x="219" y="284"/>
      <point x="232" y="267" type="curve"/>
      <point x="263" y="228"/>
      <point x="288" y="206"/>
      <point x="336" y="205" type="curve"/>
      <point x="413" y="205"/>
      <point x="433" y="266"/>
      <point x="451" y="344" type="curve"/>
      <point x="418" y="352"/>
      <point x="414" y="355"/>
    </contour>
  </outline>
</glyph>
<glyph name="exclamdown" format="1">
  <advance width="236"/>
  <unicode hex="00A1"/>
  <outline>
    <contour>
      <point x="74" y="296" type="line"/>
      <point x="67" y="-197" type="line"/>
      <point x="168" y="-197" type="line"/>
      <point x="164" y="296" type="line"/>
    </contour>
    <contour>
      <point x="73" y="487" type="curve"/>
      <point x="73" y="457"/>
      <point x="92" y="441"/>
      <point x="119" y="441" type="curve"/>
      <point x="147" y="441"/>
      <point x="165" y="458"/>
      <point x="165" y="486" type="curve"/>
      <point x="72" y="487"/>
      <point x="167" y="486"/>
      <point x="73" y="487" type="curve"/>
      <point x="73" y="518"/>
      <point x="92" y="532"/>
      <point x="120" y="532" type="curve"/>
      <point x="148" y="532"/>
      <point x="165" y="516"/>
      <point x="165" y="486" type="curve"/>
      <point x="72" y="487"/>
      <point x="167" y="486"/>
    </contour>
  </outline>
</glyph>
<glyph name="cent" format="1">
  <advance width="479"/>
  <unicode hex="00A2"/>
  <outline>
    <contour>
      <point x="296" y="-53" type="curve"/>
      <point x="296" y="-13"/>
      <point x="296" y="27"/>
      <point x="296" y="67" type="curve"/>
      <point x="210" y="67"/>
      <point x="296" y="67"/>
      <point x="210" y="67" type="curve"/>
      <point x="210" y="27"/>
      <point x="210" y="-13"/>
      <point x="210" y="-53" type="curve"/>
      <point x="296" y="-53"/>
      <point x="210" y="-53"/>
    </contour>
    <contour>
      <point x="223" y="778" type="curve"/>
      <point x="223" y="742"/>
      <point x="223" y="706"/>
      <point x="223" y="670" type="curve"/>
      <point x="309" y="670"/>
      <point x="223" y="670"/>
      <point x="309" y="670" type="curve"/>
      <point x="309" y="706"/>
      <point x="309" y="742"/>
      <point x="309" y="778" type="curve"/>
      <point x="223" y="778"/>
      <point x="309" y="778"/>
    </contour>
    <contour>
      <point x="427" y="606" type="curve"/>
      <point x="380" y="661"/>
      <point x="336" y="683"/>
      <point x="272" y="683" type="curve"/>
      <point x="114" y="683"/>
      <point x="50" y="542"/>
      <point x="50" y="364" type="curve"/>
      <point x="50" y="192"/>
      <point x="98" y="49"/>
      <point x="249" y="49" type="curve"/>
      <point x="325" y="49"/>
      <point x="376" y="80"/>
      <point x="424" y="149" type="curve"/>
      <point x="370" y="197"/>
      <point x="424" y="149"/>
      <point x="370" y="197" type="curve"/>
      <point x="339" y="155"/>
      <point x="310" y="121"/>
      <point x="257" y="121" type="curve"/>
      <point x="154" y="121"/>
      <point x="136" y="238"/>
      <point x="136" y="368" type="curve"/>
      <point x="136" y="497"/>
      <point x="165" y="611"/>
      <point x="264" y="611" type="curve"/>
      <point x="313" y="611"/>
      <point x="344" y="590"/>
      <point x="375" y="553" type="curve"/>
      <point x="427" y="606"/>
      <point x="375" y="553"/>
    </contour>
    <contour>
      <point x="358" y="606" type="curve"/>
      <point x="358" y="486"/>
      <point x="358" y="596"/>
      <point x="358" y="476" type="curve"/>
      <point x="427" y="476"/>
      <point x="358" y="476"/>
      <point x="427" y="476" type="curve"/>
      <point x="427" y="596"/>
      <point x="427" y="486"/>
      <point x="427" y="606" type="curve"/>
      <point x="358" y="606"/>
      <point x="427" y="606"/>
    </contour>
  </outline>
</glyph>
<glyph name="sterling" format="1">
  <advance width="371"/>
  <unicode hex="00A3"/>
  <outline>
    <contour>
      <point x="306" y="69" type="curve"/>
      <point x="220" y="69"/>
      <point x="130" y="69"/>
      <point x="45" y="69" type="curve"/>
      <point x="45" y="0"/>
      <point x="45" y="69"/>
      <point x="45" y="0" type="curve"/>
      <point x="130" y="0"/>
      <point x="221" y="0"/>
      <point x="306" y="0" type="curve"/>
      <point x="306" y="69"/>
      <point x="306" y="0"/>
    </contour>
    <contour>
      <point x="272" y="410" type="curve"/>
      <point x="203" y="410"/>
      <point x="128" y="410"/>
      <point x="61" y="410" type="curve"/>
      <point x="61" y="342"/>
      <point x="61" y="410"/>
      <point x="61" y="342" type="curve"/>
      <point x="128" y="342"/>
      <point x="203" y="342"/>
      <point x="272" y="342" type="curve"/>
      <point x="272" y="410"/>
      <point x="272" y="342"/>
    </contour>
    <contour>
      <point x="327" y="668" type="curve"/>
      <point x="296" y="708"/>
      <point x="267" y="723"/>
      <point x="224" y="723" type="curve"/>
      <point x="76" y="723"/>
      <point x="75" y="558"/>
      <point x="102" y="368" type="curve"/>
      <point x="123" y="216"/>
      <point x="145" y="69"/>
      <point x="45" y="69" type="curve"/>
      <point x="45" y="0"/>
      <point x="45" y="69"/>
      <point x="45" y="0" type="curve"/>
      <point x="210" y="0"/>
      <point x="205" y="180"/>
      <point x="178" y="383" type="curve"/>
      <point x="159" y="522"/>
      <point x="138" y="657"/>
      <point x="220" y="657" type="curve"/>
      <point x="248" y="657"/>
      <point x="264" y="639"/>
      <point x="281" y="619" type="curve"/>
      <point x="327" y="668"/>
      <point x="281" y="619"/>
    </contour>
  </outline>
</glyph>
<glyph name="currency" format="1">
  <advance width="547"/>
  <unicode hex="00A4"/>
  <outline>
    <contour>
      <point x="218" y="314" type="curve"/>
      <point x="218" y="371"/>
      <point x="224" y="427"/>
      <point x="272" y="427" type="curve"/>
      <point x="322" y="427"/>
      <point x="327" y="375"/>
      <point x="327" y="314" type="curve"/>
      <point x="327" y="254"/>
      <point x="324" y="194"/>
      <point x="274" y="194" type="curve"/>
      <point x="222" y="194"/>
      <point x="218" y="252"/>
      <point x="218" y="314" type="curve"/>
      <point x="132" y="314"/>
      <point x="223" y="314"/>
      <point x="137" y="314" type="curve"/>
      <point x="137" y="208"/>
      <point x="178" y="126"/>
      <point x="274" y="126" type="curve"/>
      <point x="370" y="126"/>
      <point x="410" y="210"/>
      <point x="410" y="316" type="curve"/>
      <point x="410" y="416"/>
      <point x="371" y="496"/>
      <point x="279" y="496" type="curve"/>
      <point x="183" y="496"/>
      <point x="137" y="417"/>
      <point x="137" y="314" type="curve"/>
      <point x="223" y="314"/>
      <point x="132" y="314"/>
    </contour>
    <contour>
      <point x="340" y="387" type="line"/>
      <point x="488" y="525" type="line"/>
      <point x="426" y="587" type="line"/>
      <point x="288" y="439" type="line"/>
    </contour>
    <contour>
      <point x="293" y="191" type="line"/>
      <point x="431" y="43" type="line"/>
      <point x="493" y="104" type="line"/>
      <point x="345" y="243" type="line"/>
    </contour>
    <contour>
      <point x="203" y="242" type="line"/>
      <point x="55" y="104" type="line"/>
      <point x="116" y="42" type="line"/>
      <point x="255" y="190" type="line"/>
    </contour>
    <contour>
      <point x="262" y="440" type="line"/>
      <point x="123" y="588" type="line"/>
      <point x="62" y="526" type="line"/>
      <point x="210" y="388" type="line"/>
    </contour>
  </outline>
</glyph>
<glyph name="yen" format="1">
  <advance width="566"/>
  <unicode hex="00A5"/>
  <outline>
    <contour>
      <point x="421" y="394" type="curve"/>
      <point x="376" y="394"/>
      <point x="331" y="394"/>
      <point x="287" y="394" type="curve"/>
      <point x="287" y="319"/>
      <point x="287" y="394"/>
      <point x="287" y="319" type="curve"/>
      <point x="331" y="319"/>
      <point x="376" y="319"/>
      <point x="421" y="319" type="curve"/>
      <point x="421" y="394"/>
      <point x="421" y="319"/>
    </contour>
    <contour>
      <point x="268" y="394" type="curve"/>
      <point x="224" y="394"/>
      <point x="180" y="394"/>
      <point x="137" y="394" type="curve"/>
      <point x="137" y="319"/>
      <point x="137" y="394"/>
      <point x="137" y="319" type="curve"/>
      <point x="180" y="319"/>
      <point x="224" y="319"/>
      <point x="268" y="319" type="curve"/>
      <point x="268" y="394"/>
      <point x="268" y="319"/>
    </contour>
    <contour>
      <point x="421" y="264" type="curve"/>
      <point x="326" y="264"/>
      <point x="231" y="264"/>
      <point x="137" y="264" type="curve"/>
      <point x="137" y="189"/>
      <point x="137" y="264"/>
      <point x="137" y="189" type="curve"/>
      <point x="231" y="189"/>
      <point x="326" y="189"/>
      <point x="421" y="189" type="curve"/>
      <point x="421" y="264"/>
      <point x="421" y="189"/>
    </contour>
    <contour>
      <point x="276" y="68" type="curve"/>
      <point x="155" y="68"/>
      <point x="281" y="68"/>
      <point x="159" y="68" type="curve"/>
      <point x="159" y="0"/>
      <point x="159" y="68"/>
      <point x="159" y="0" type="curve"/>
      <point x="199" y="0"/>
      <point x="236" y="0"/>
      <point x="276" y="0" type="curve"/>
      <point x="276" y="68"/>
      <point x="276" y="0"/>
    </contour>
    <contour>
      <point x="276" y="0" type="curve"/>
      <point x="317" y="0"/>
      <point x="353" y="0"/>
      <point x="393" y="0" type="curve"/>
      <point x="393" y="68"/>
      <point x="393" y="0"/>
      <point x="393" y="68" type="curve"/>
      <point x="272" y="68"/>
      <point x="398" y="68"/>
      <point x="276" y="68" type="curve"/>
      <point x="276" y="0"/>
      <point x="276" y="68"/>
    </contour>
    <contour>
      <point x="419" y="722" type="curve"/>
      <point x="381" y="722"/>
      <point x="347" y="722"/>
      <point x="308" y="722" type="curve"/>
      <point x="308" y="654"/>
      <point x="308" y="722"/>
      <point x="308" y="654" type="curve"/>
      <point x="424" y="654"/>
      <point x="304" y="654"/>
      <point x="419" y="654" type="curve"/>
      <point x="419" y="722"/>
      <point x="419" y="654"/>
    </contour>
    <contour>
      <point x="130" y="722" type="curve"/>
      <point x="96" y="722"/>
      <point x="67" y="722"/>
      <point x="34" y="722" type="curve"/>
      <point x="33" y="654"/>
      <point x="34" y="722"/>
      <point x="33" y="654" type="curve"/>
      <point x="135" y="654"/>
      <point x="28" y="654"/>
      <point x="130" y="654" type="curve"/>
      <point x="130" y="722"/>
      <point x="130" y="654"/>
    </contour>
    <contour>
      <point x="142" y="654" type="curve"/>
      <point x="258" y="654"/>
      <point x="137" y="654"/>
      <point x="253" y="654" type="curve"/>
      <point x="253" y="722"/>
      <point x="253" y="654"/>
      <point x="253" y="722" type="curve"/>
      <point x="215" y="722"/>
      <point x="180" y="722"/>
      <point x="142" y="722" type="curve"/>
      <point x="142" y="654"/>
      <point x="142" y="722"/>
    </contour>
    <contour>
      <point x="432" y="654" type="curve"/>
      <point x="537" y="654"/>
      <point x="427" y="654"/>
      <point x="532" y="654" type="curve"/>
      <point x="532" y="722"/>
      <point x="532" y="654"/>
      <point x="532" y="722" type="curve"/>
      <point x="497" y="722"/>
      <point x="467" y="722"/>
      <point x="432" y="722" type="curve"/>
      <point x="432" y="654"/>
      <point x="432" y="722"/>
    </contour>
    <contour>
      <point x="80" y="725" type="curve"/>
      <point x="131" y="596"/>
      <point x="179" y="469"/>
      <point x="229" y="337" type="curve"/>
      <point x="317" y="337"/>
      <point x="216" y="337"/>
      <point x="304" y="337" type="curve"/>
      <point x="260" y="468"/>
      <point x="217" y="592"/>
      <point x="171" y="722" type="curve"/>
      <point x="80" y="722"/>
      <point x="171" y="725"/>
    </contour>
    <contour>
      <point x="390" y="722" type="curve"/>
      <point x="340" y="591"/>
      <point x="295" y="468"/>
      <point x="243" y="337" type="curve"/>
      <point x="331" y="337"/>
      <point x="236" y="337"/>
      <point x="324" y="337" type="curve"/>
      <point x="377" y="468"/>
      <point x="428" y="596"/>
      <point x="482" y="725" type="curve"/>
      <point x="390" y="725"/>
      <point x="482" y="722"/>
    </contour>
    <contour>
      <point x="323" y="0" type="curve"/>
      <point x="323" y="115"/>
      <point x="323" y="226"/>
      <point x="323" y="341" type="curve"/>
      <point x="230" y="341"/>
      <point x="323" y="341"/>
      <point x="230" y="341" type="curve"/>
      <point x="230" y="226"/>
      <point x="230" y="115"/>
      <point x="230" y="0" type="curve"/>
      <point x="323" y="0"/>
      <point x="230" y="0"/>
    </contour>
  </outline>
</glyph>
<glyph name="section" format="1">
  <advance width="403"/>
  <unicode hex="00A7"/>
  <outline>
    <contour>
      <point x="313" y="703" type="curve"/>
      <point x="277" y="734"/>
      <point x="249" y="750"/>
      <point x="205" y="750" type="curve"/>
      <point x="123" y="750"/>
      <point x="78" y="691"/>
      <point x="78" y="610" type="curve"/>
      <point x="78" y="537"/>
      <point x="109" y="486"/>
      <point x="174" y="454" type="curve"/>
      <point x="221" y="429"/>
      <point x="265" y="411"/>
      <point x="265" y="362" type="curve"/>
      <point x="265" y="310"/>
      <point x="247" y="270"/>
      <point x="200" y="256" type="curve"/>
      <point x="251" y="202"/>
      <point x="200" y="256"/>
      <point x="251" y="202" type="curve"/>
      <point x="323" y="225"/>
      <point x="351" y="284"/>
      <point x="351" y="361" type="curve"/>
      <point x="350" y="442"/>
      <point x="293" y="484"/>
      <point x="217" y="519" type="curve"/>
      <point x="180" y="537"/>
      <point x="158" y="568"/>
      <point x="158" y="610" type="curve"/>
      <point x="158" y="646"/>
      <point x="171" y="682"/>
      <point x="206" y="682" type="curve"/>
      <point x="237" y="682"/>
      <point x="251" y="668"/>
      <point x="271" y="650" type="curve"/>
      <point x="313" y="703"/>
      <point x="271" y="650"/>
    </contour>
    <contour>
      <point x="154" y="521" type="curve"/>
      <point x="87" y="491"/>
      <point x="56" y="440"/>
      <point x="56" y="366" type="curve"/>
      <point x="56" y="288"/>
      <point x="102" y="240"/>
      <point x="175" y="206" type="curve"/>
      <point x="216" y="186"/>
      <point x="249" y="165"/>
      <point x="249" y="118" type="curve"/>
      <point x="249" y="77"/>
      <point x="236" y="40"/>
      <point x="202" y="40" type="curve"/>
      <point x="167" y="40"/>
      <point x="149" y="58"/>
      <point x="127" y="84" type="curve"/>
      <point x="77" y="37"/>
      <point x="127" y="84"/>
      <point x="77" y="37" type="curve"/>
      <point x="114" y="-8"/>
      <point x="149" y="-28"/>
      <point x="201" y="-28" type="curve"/>
      <point x="284" y="-28"/>
      <point x="332" y="31"/>
      <point x="332" y="117" type="curve"/>
      <point x="331" y="190"/>
      <point x="297" y="241"/>
      <point x="230" y="271" type="curve"/>
      <point x="183" y="295"/>
      <point x="142" y="316"/>
      <point x="142" y="365" type="curve"/>
      <point x="142" y="413"/>
      <point x="155" y="451"/>
      <point x="197" y="470" type="curve"/>
      <point x="154" y="521"/>
      <point x="197" y="470"/>
    </contour>
    <contour>
      <point x="146" y="37" type="curve"/>
      <point x="146" y="157"/>
      <point x="146" y="33"/>
      <point x="146" y="153" type="curve"/>
      <point x="77" y="153"/>
      <point x="146" y="153"/>
      <point x="77" y="153" type="curve"/>
      <point x="77" y="33"/>
      <point x="77" y="157"/>
      <point x="77" y="37" type="curve"/>
      <point x="146" y="37"/>
      <point x="77" y="37"/>
    </contour>
    <contour>
      <point x="313" y="587" type="curve"/>
      <point x="313" y="707"/>
      <point x="313" y="583"/>
      <point x="313" y="703" type="curve"/>
      <point x="244" y="703"/>
      <point x="313" y="703"/>
      <point x="244" y="703" type="curve"/>
      <point x="244" y="583"/>
      <point x="244" y="707"/>
      <point x="244" y="587" type="curve"/>
      <point x="313" y="587"/>
      <point x="244" y="587"/>
    </contour>
  </outline>
</glyph>
<glyph name="dieresis" format="1">
  <advance width="340"/>
  <unicode hex="00A8"/>
  <outline>
    <contour>
      <point x="128" y="678" type="curve"/>
      <point x="128" y="708"/>
      <point x="108" y="724"/>
      <point x="81" y="724" type="curve"/>
      <point x="54" y="724"/>
      <point x="36" y="707"/>
      <point x="36" y="678" type="curve"/>
      <point x="129" y="678"/>
      <point x="34" y="678"/>
      <point x="128" y="678" type="curve"/>
      <point x="128" y="647"/>
      <point x="109" y="632"/>
      <point x="81" y="632" type="curve"/>
      <point x="53" y="632"/>
      <point x="36" y="648"/>
      <point x="36" y="678" type="curve"/>
      <point x="129" y="678"/>
      <point x="34" y="678"/>
    </contour>
    <contour>
      <point x="265" y="678" type="curve"/>
      <point x="265" y="708"/>
      <point x="245" y="724"/>
      <point x="218" y="724" type="curve"/>
      <point x="191" y="724"/>
      <point x="173" y="707"/>
      <point x="173" y="678" type="curve"/>
      <point x="266" y="678"/>
      <point x="171" y="678"/>
      <point x="265" y="678" type="curve"/>
      <point x="265" y="647"/>
      <point x="246" y="632"/>
      <point x="218" y="632" type="curve"/>
      <point x="190" y="632"/>
      <point x="173" y="648"/>
      <point x="173" y="678" type="curve"/>
      <point x="266" y="678"/>
      <point x="171" y="678"/>
    </contour>
    <contour>
      <point x="150" y="637" type="move" name="_top"/>
    </contour>
  </outline>
</glyph>
